<svg width="21" height="23" viewBox="0 0 21 23" fill="none" xmlns="http://www.w3.org/2000/svg">
<path d="M20.1264 14.2744C19.7968 13.9583 19.5355 13.5822 19.3575 13.1681C19.1796 12.754 19.0886 12.3099 19.0899 11.8617V9.05511C19.0899 6.85867 18.1848 4.7522 16.5738 3.19908C14.9628 1.64597 12.7778 0.773437 10.4995 0.773438C8.22123 0.773437 6.03624 1.64597 4.42524 3.19908C2.81424 4.7522 1.90919 6.85867 1.90919 9.05511V11.8617C1.91041 12.3099 1.81942 12.754 1.6415 13.1681C1.46358 13.5822 1.20225 13.9583 0.872626 14.2744C0.455968 14.676 0.172215 15.1878 0.0572533 15.7449C-0.0577085 16.302 0.00128468 16.8795 0.226772 17.4043C0.45226 17.9291 0.834112 18.3777 1.32404 18.6932C1.81396 19.0088 2.38995 19.1772 2.97917 19.1772H5.82257C6.04163 20.2172 6.62694 21.1523 7.4793 21.824C8.33166 22.4956 9.39867 22.8625 10.4995 22.8625C11.6004 22.8625 12.6674 22.4956 13.5197 21.824C14.3721 21.1523 14.9574 20.2172 15.1765 19.1772H18.0208C18.61 19.1772 19.186 19.0088 19.676 18.6932C20.1659 18.3777 20.5477 17.9291 20.7732 17.4043C20.9987 16.8795 21.0577 16.302 20.9427 15.7449C20.8278 15.1878 20.5431 14.676 20.1264 14.2744ZM10.4995 21.0175C9.90941 21.0152 9.33446 20.8371 8.85333 20.5077C8.37221 20.1782 8.00841 19.7135 7.8117 19.1772H13.1873C12.9906 19.7135 12.6268 20.1782 12.1457 20.5077C11.6646 20.8371 11.0896 21.0152 10.4995 21.0175ZM18.0199 17.3368H2.97917C2.76745 17.3369 2.56046 17.2765 2.38439 17.1631C2.20831 17.0498 2.07107 16.8886 1.99004 16.7001C1.909 16.5115 1.88781 16.304 1.92915 16.1038C1.97049 15.9037 2.0725 15.7198 2.22226 15.5755C2.72971 15.0889 3.13204 14.5102 3.40597 13.8727C3.6799 13.2352 3.82 12.5517 3.81815 11.8617V9.05511C3.81815 7.34677 4.52208 5.7084 5.77508 4.50042C7.02808 3.29244 8.72751 2.61381 10.4995 2.61381C12.2715 2.61381 13.971 3.29244 15.224 4.50042C16.477 5.7084 17.1809 7.34677 17.1809 9.05511V11.8617C17.1791 12.5517 17.3191 13.2352 17.5931 13.8727C17.867 14.5102 18.2693 15.0889 18.7768 15.5755C18.9266 15.7198 19.0286 15.9037 19.0699 16.1038C19.1112 16.304 19.09 16.5115 19.009 16.7001C18.928 16.8886 18.7907 17.0498 18.6147 17.1631C18.4386 17.2765 18.2316 17.3369 18.0199 17.3368Z" fill="#0062B6"/>
</svg>
