<svg width="34" height="35" viewBox="0 0 34 35" fill="none" xmlns="http://www.w3.org/2000/svg">
<path d="M16.9997 34.2596C13.6984 34.2597 10.4711 33.2808 7.72613 31.4467C4.98102 29.6125 2.84146 27.0055 1.57802 23.9554C0.31459 20.9052 -0.0159706 17.5489 0.628147 14.3109C1.27226 11.0729 2.86213 8.09856 5.19668 5.76412C8.32713 2.63367 12.5729 0.875 17.0001 0.875C21.4272 0.875 25.673 2.63367 28.8035 5.76413C31.9339 8.89458 33.6926 13.1404 33.6926 17.5675C33.6926 21.9947 31.9339 26.2405 28.8035 29.3709C27.2569 30.9256 25.4174 32.1582 23.3914 32.9973C21.3653 33.8365 19.1929 34.2655 16.9999 34.2596M16.9997 34.2596H16.9999M16.9997 34.2596L17.0001 34.1346L17.0001 34.2596C17 34.2596 17 34.2596 16.9999 34.2596M16.9997 34.2596H16.9999M1.69562 17.5675C1.69562 9.12903 8.56158 2.26307 17.0001 2.26307C25.4386 2.26307 32.3045 9.12903 32.3045 17.5675C32.3045 26.006 25.4386 32.872 17.0001 32.872C8.56158 32.872 1.69562 26.006 1.69562 17.5675Z" fill="url(#paint0_linear_5530_9033)" stroke="url(#paint1_linear_5530_9033)" stroke-width="0.25"/>
<path d="M6.76611 24.1328L6.8286 24.241C6.6692 24.333 6.47979 24.358 6.30202 24.3103C6.12427 24.2626 5.97272 24.1463 5.88071 23.987C5.88071 23.987 5.8807 23.9869 5.88069 23.9869L5.98895 23.9244L6.76611 24.1328ZM6.76611 24.1328L6.8286 24.241C6.988 24.149 7.10432 23.9975 7.15197 23.8197C7.19962 23.642 7.17472 23.4526 7.08273 23.2932M6.76611 24.1328L7.08273 23.2932M27.1698 24.2409C27.2753 24.3021 27.3952 24.3342 27.5172 24.3339M27.1698 24.2409L27.2325 24.1328M27.1698 24.2409C27.1698 24.2409 27.1698 24.2409 27.1698 24.2409L27.2325 24.1328M27.1698 24.2409C27.0107 24.1486 26.8947 23.9969 26.8474 23.8192C26.8001 23.6415 26.8253 23.4522 26.9174 23.2931M27.5172 24.3339L27.2325 24.1328M27.5172 24.3339C27.517 24.3339 27.5169 24.3339 27.5168 24.3339L27.517 24.2089L27.5172 24.3339ZM27.2325 24.1328C27.1021 24.0571 27.007 23.9328 26.9682 23.787C26.9294 23.6413 26.95 23.4861 27.0256 23.3556M26.9174 23.2931C26.9174 23.2931 26.9174 23.2931 26.9173 23.2932L27.0256 23.3556M26.9174 23.2931C26.9174 23.293 26.9174 23.293 26.9175 23.293L27.0256 23.3556M26.9174 23.2931C27.9215 21.552 28.4503 19.5776 28.4507 17.5678C28.4507 11.2539 23.3161 6.11715 17 6.11715C10.684 6.11715 5.54941 11.2538 5.54939 17.5678L27.0256 23.3556M7.08273 23.2932C6.07861 21.5521 5.54982 19.5777 5.54939 17.5678L7.08273 23.2932Z" fill="url(#paint2_linear_5530_9033)" stroke="url(#paint3_linear_5530_9033)" stroke-width="0.25"/>
<path d="M16.5094 8.89188C16.6395 9.022 16.816 9.0951 17 9.0951C17.184 9.0951 17.3605 9.022 17.4906 8.89188C17.6207 8.76175 17.6938 8.58527 17.6938 8.40125V5.42334C17.6938 5.23932 17.6207 5.06284 17.4906 4.93272C17.3605 4.80259 17.184 4.72949 17 4.72949C16.816 4.72949 16.6395 4.80259 16.5094 4.93272C16.3793 5.06284 16.3062 5.23932 16.3062 5.42334V8.40125C16.3062 8.58527 16.3793 8.76175 16.5094 8.89188Z" fill="url(#paint4_linear_5530_9033)" stroke="url(#paint5_linear_5530_9033)" stroke-width="0.25"/>
<path d="M10.3268 7.39684L10.3268 7.39683C10.2813 7.3179 10.2517 7.23077 10.2398 7.14042C10.2279 7.05006 10.234 6.95825 10.2576 6.87023C10.2811 6.78221 10.3219 6.69969 10.3773 6.6274C10.4328 6.5551 10.502 6.49445 10.5809 6.44889C10.6599 6.40333 10.747 6.37377 10.8373 6.36188C10.9277 6.35 11.0195 6.35603 11.1075 6.37962C11.1956 6.40322 11.2781 6.44392 11.3504 6.49941C11.4227 6.55489 11.4833 6.62407 11.5289 6.70299C11.5289 6.703 11.5289 6.703 11.5289 6.703L13.0178 9.282C13.0787 9.38743 13.1107 9.50701 13.1108 9.62875C13.1108 9.75048 13.0788 9.87008 13.018 9.97554C12.9572 10.081 12.8697 10.1686 12.7643 10.2295C12.6589 10.2905 12.5394 10.3226 12.4176 10.3228M10.3268 7.39684L12.4175 10.1978M10.3268 7.39684L11.8158 9.97585L11.924 9.91335M10.3268 7.39684L11.924 9.91335M12.4176 10.3228L12.4175 10.1978M12.4176 10.3228C12.4177 10.3228 12.4177 10.3228 12.4177 10.3228L12.4175 10.1978M12.4176 10.3228C12.2957 10.3229 12.1758 10.291 12.0702 10.2301C11.9645 10.1692 11.8768 10.0815 11.8158 9.97585L11.924 9.91335M12.4175 10.1978C12.3175 10.1979 12.2192 10.1717 12.1326 10.1218C12.046 10.0718 11.974 9.99995 11.924 9.91335" fill="url(#paint6_linear_5530_9033)" stroke="url(#paint7_linear_5530_9033)" stroke-width="0.25"/>
<path d="M8.71376 13.5857L8.71381 13.5857L9.06069 13.5535C9.18595 13.5536 9.30773 13.5123 9.40712 13.436C9.50651 13.3598 9.57796 13.2529 9.61038 13.1319C9.64279 13.0109 9.63437 12.8826 9.5864 12.7669C9.53844 12.6511 9.45362 12.5545 9.34511 12.4919L9.40761 12.3837L9.40756 12.3836L6.8286 10.8947L6.82859 10.8947C6.66919 10.8027 6.47976 10.7778 6.30199 10.8254C6.21397 10.849 6.13145 10.8897 6.05916 10.9452C5.98687 11.0007 5.92621 11.0699 5.88065 11.1488C5.8351 11.2277 5.80553 11.3149 5.79365 11.4052C5.78176 11.4956 5.78779 11.5874 5.81139 11.6754C5.85904 11.8532 5.97536 12.0047 6.13475 12.0967C6.13476 12.0967 6.13476 12.0967 6.13477 12.0967L8.71376 13.5857Z" fill="url(#paint8_linear_5530_9033)" stroke="url(#paint9_linear_5530_9033)" stroke-width="0.25"/>
<path d="M4.85559 18.2617H7.8335C8.01752 18.2617 8.194 18.1886 8.32413 18.0585C8.45425 17.9284 8.52735 17.7519 8.52735 17.5679C8.52735 17.3839 8.45425 17.2074 8.32413 17.0772C8.194 16.9471 8.01752 16.874 7.8335 16.874H4.85559C4.67157 16.874 4.49509 16.9471 4.36497 17.0772C4.23484 17.2074 4.16174 17.3839 4.16174 17.5679C4.16174 17.7519 4.23484 17.9284 4.36497 18.0585C4.49509 18.1886 4.67157 18.2617 4.85559 18.2617Z" fill="url(#paint10_linear_5530_9033)" stroke="url(#paint11_linear_5530_9033)" stroke-width="0.25"/>
<path d="M8.71522 21.5505L8.71523 21.5505C8.87463 21.4584 9.06405 21.4335 9.24183 21.4812C9.4196 21.5288 9.57116 21.6452 9.66316 21.8046C9.75517 21.964 9.78009 22.1534 9.73243 22.3312C9.68478 22.5089 9.56846 22.6605 9.40906 22.7525C9.40906 22.7525 9.40906 22.7525 9.40905 22.7525L6.83022 24.2414C6.83018 24.2414 6.83013 24.2414 6.83008 24.2414L6.83005 24.2415L6.76755 24.1332C6.68114 24.1833 6.583 24.2095 6.48313 24.2093L8.71522 21.5505ZM8.71522 21.5505L6.13626 23.0394L8.71522 21.5505Z" fill="url(#paint12_linear_5530_9033)" stroke="url(#paint13_linear_5530_9033)" stroke-width="0.25"/>
<path d="M24.5926 22.753L27.17 24.241L27.864 23.0391L25.2864 21.5517C25.2078 21.5037 25.1205 21.4719 25.0294 21.4581C24.9378 21.4442 24.8444 21.4487 24.7546 21.4715C24.6648 21.4943 24.5804 21.5348 24.5065 21.5907C24.4326 21.6466 24.3707 21.7168 24.3243 21.797C24.278 21.8772 24.2482 21.9659 24.2367 22.0579C24.2252 22.1498 24.2322 22.2431 24.2574 22.3323C24.2825 22.4215 24.3252 22.5047 24.3831 22.5771C24.4405 22.6491 24.5118 22.7088 24.5926 22.753Z" fill="url(#paint14_linear_5530_9033)" stroke="url(#paint15_linear_5530_9033)" stroke-width="0.25"/>
<path d="M26.1667 18.2617H29.1447C29.3287 18.2617 29.5052 18.1886 29.6353 18.0585C29.7654 17.9284 29.8385 17.7519 29.8385 17.5679C29.8385 17.3839 29.7654 17.2074 29.6353 17.0772C29.5052 16.9471 29.3287 16.874 29.1447 16.874H26.1667C25.9827 16.874 25.8062 16.9471 25.6761 17.0772C25.546 17.2074 25.4729 17.3839 25.4729 17.5679C25.4729 17.7519 25.546 17.9284 25.6761 18.0585C25.8062 18.1886 25.9827 18.2617 26.1667 18.2617Z" fill="url(#paint16_linear_5530_9033)" stroke="url(#paint17_linear_5530_9033)" stroke-width="0.25"/>
<path d="M27.1716 10.8947L27.1716 10.8947C27.2506 10.8491 27.3377 10.8196 27.4281 10.8077C27.5184 10.7958 27.6102 10.8018 27.6982 10.8254C27.7863 10.849 27.8688 10.8897 27.9411 10.9452C28.0134 11.0007 28.074 11.0699 28.1196 11.1488M27.1716 10.8947L28.1196 11.1488M27.1716 10.8947L24.5927 12.3836C24.5927 12.3836 24.5926 12.3836 24.5926 12.3837C24.4603 12.46 24.3569 12.5779 24.2984 12.719C24.2399 12.8601 24.2296 13.0166 24.2691 13.1642C24.3087 13.3118 24.3958 13.4422 24.517 13.5352C24.6383 13.6282 24.7868 13.6786 24.9396 13.6785M27.1716 10.8947L25.2865 13.5857M28.1196 11.1488C28.1651 11.2277 28.1947 11.3149 28.2066 11.4052C28.2185 11.4956 28.2125 11.5874 28.1889 11.6754C28.1653 11.7634 28.1246 11.8459 28.0691 11.9182C28.0136 11.9905 27.9444 12.0512 27.8655 12.0967C27.8655 12.0967 27.8655 12.0967 27.8655 12.0967L25.2865 13.5857M28.1196 11.1488L25.2865 13.5857M25.2865 13.5857L25.2864 13.5857C25.1809 13.6466 25.0613 13.6786 24.9396 13.6785M24.9396 13.6785C24.9395 13.6785 24.9395 13.6785 24.9395 13.6785L24.9396 13.5535L24.9396 13.6785C24.9396 13.6785 24.9396 13.6785 24.9396 13.6785Z" fill="url(#paint18_linear_5530_9033)" stroke="url(#paint19_linear_5530_9033)" stroke-width="0.25"/>
<path d="M23.6734 7.39683L23.6734 7.39684L22.1844 9.97585L22.0761 9.91335L22.1844 9.97585C22.1235 10.0813 22.0359 10.169 21.9304 10.2299C21.8249 10.2907 21.7052 10.3228 21.5834 10.3228L23.6734 7.39683ZM23.6734 7.39683C23.7189 7.3179 23.7485 7.23077 23.7604 7.14042C23.7723 7.05006 23.7662 6.95825 23.7426 6.87023C23.719 6.78221 23.6783 6.69969 23.6228 6.6274C23.5674 6.5551 23.4982 6.49445 23.4192 6.44889C23.3403 6.40333 23.2532 6.37377 23.1628 6.36188C23.0725 6.35 22.9807 6.35603 22.8927 6.37962C22.8046 6.40322 22.7221 6.44392 22.6498 6.49941C22.5775 6.55489 22.5169 6.62407 22.4713 6.70299C22.4713 6.703 22.4713 6.703 22.4713 6.703L20.9824 9.282C20.9215 9.38749 20.8894 9.50715 20.8894 9.62896C20.8894 9.75077 20.9215 9.87043 20.9824 9.97591C21.0433 10.0814 21.1309 10.169 21.2364 10.2299C21.3419 10.2907 21.4616 10.3228 21.5834 10.3228L23.6734 7.39683Z" fill="url(#paint20_linear_5530_9033)" stroke="url(#paint21_linear_5530_9033)" stroke-width="0.25"/>
<path d="M17.0001 11.4487C16.8507 11.4487 16.7053 11.4968 16.5854 11.586C16.4656 11.6753 16.3777 11.8008 16.335 11.944L16.3349 11.944C16.214 12.3492 15.9773 13.0643 15.7018 13.8958L15.7018 13.8959C15.2226 15.3444 14.7812 16.69 14.4507 17.7896C14.1248 18.8742 13.9023 19.7333 13.8624 20.2162L13.8577 20.2319L13.8576 20.232C13.8177 20.3655 13.8189 20.5077 13.8608 20.6403C13.9146 21.4333 14.2663 22.177 14.8456 22.7218C15.429 23.2703 16.1993 23.5761 17 23.577H17.0002C17.8009 23.5761 18.5712 23.2703 19.1546 22.7218C19.7339 22.177 20.0856 21.4334 20.1394 20.6404C20.1815 20.5082 20.1827 20.3661 20.1426 20.233C20.1426 20.2328 20.1425 20.2326 20.1425 20.2324L20.1378 20.2164C20.0963 19.7343 19.8741 18.8752 19.5484 17.7901C19.2185 16.6903 18.778 15.3449 18.2984 13.8966C18.0229 13.0643 17.7862 12.3492 17.6653 11.944L17.6653 11.944C17.6225 11.8008 17.5346 11.6753 17.4148 11.586C17.2949 11.4968 17.1495 11.4487 17.0001 11.4487ZM17.0001 11.4487C17.0001 11.4487 17.0001 11.4487 17 11.4487L17.0001 11.5737L17.0002 11.4487C17.0002 11.4487 17.0001 11.4487 17.0001 11.4487ZM15.2408 20.4014V20.4014C15.2413 20.3944 15.2423 20.3858 15.2439 20.3736L15.2445 20.3737L15.245 20.3614C15.2515 20.1854 15.3215 19.8473 15.4393 19.3953C15.5558 18.9479 15.7156 18.4013 15.8954 17.8154C16.248 16.6665 16.6761 15.3713 17.0021 14.3867C17.3281 15.3714 17.7564 16.6669 18.109 17.816C18.2889 18.4018 18.4487 18.9484 18.5652 19.3957C18.6824 19.8457 18.7524 20.1828 18.7594 20.3591V20.3592V20.3592V20.3593V20.3594V20.3595V20.3595V20.3596V20.3597V20.3597V20.3598V20.3599V20.36V20.36V20.3601V20.3602V20.3603V20.3603V20.3604V20.3605V20.3605V20.3606V20.3607V20.3608V20.3608V20.3609V20.361V20.3611V20.3611V20.3612V20.3613V20.3613V20.3614V20.3615V20.3616V20.3616V20.3617V20.3618V20.3619V20.3619V20.362V20.3621V20.3622V20.3622V20.3623V20.3624V20.3625V20.3625V20.3626V20.3627V20.3627V20.3628V20.3629V20.363V20.363V20.3631V20.3632V20.3633V20.3633V20.3634V20.3635V20.3636V20.3636V20.3637V20.3638V20.3639V20.3639V20.364V20.3641V20.3642V20.3642V20.3643V20.3644V20.3645V20.3645V20.3646V20.3647V20.3648V20.3648V20.3649V20.365V20.3651V20.3651V20.3652V20.3653V20.3654V20.3654V20.3655V20.3656V20.3657V20.3657V20.3658V20.3659V20.366V20.366V20.3661V20.3662V20.3663V20.3663V20.3664V20.3665V20.3666V20.3666V20.3667V20.3668V20.3669V20.3669V20.367V20.3671V20.3672V20.3672V20.3673V20.3674V20.3675V20.3675V20.3676V20.3677V20.3678V20.3678V20.3679V20.368V20.3681V20.3681V20.3682V20.3683V20.3684V20.3684V20.3685V20.3686V20.3687V20.3687V20.3688V20.3689V20.369V20.369V20.3691V20.3692V20.3693V20.3693V20.3694V20.3695V20.3696V20.3696V20.3697V20.3698V20.3699V20.3699V20.37V20.3701V20.3702V20.3702V20.3703V20.3704V20.3705V20.3705V20.3706V20.3707V20.3708V20.3708V20.3709V20.371V20.3711V20.3712V20.3712V20.3713V20.3714V20.3715V20.3715V20.3716V20.3717V20.3718V20.3718V20.3719V20.372V20.3721V20.3721V20.3722V20.3723V20.3724V20.3724V20.3725V20.3726V20.3727V20.3727V20.3728V20.3729V20.373V20.373V20.3731V20.3732V20.3733V20.3733V20.3734V20.3735V20.3736V20.3736V20.3737V20.3738V20.3739V20.3739V20.374V20.3741V20.3742V20.3742V20.3743V20.3744V20.3745V20.3745V20.3746V20.3747V20.3748V20.3748V20.3749V20.375V20.3751V20.3751V20.3752V20.3753V20.3754V20.3754V20.3755V20.3756V20.3757V20.3757V20.3758V20.3759V20.376V20.376V20.3761V20.3762V20.3763V20.3763V20.3764V20.3765V20.3766V20.3766V20.3767V20.3768V20.3769V20.3769V20.377V20.3771V20.3772V20.3772V20.3773V20.3774V20.3775V20.3775V20.3776V20.3777V20.3778V20.3778V20.3779V20.378V20.3781V20.3781V20.3782V20.3783V20.3784V20.3784V20.3785V20.3786V20.3787V20.3787V20.3788V20.3789V20.379V20.379V20.3791V20.3792V20.3792V20.3793V20.3794V20.3795V20.3795V20.3796V20.3797V20.3798V20.3798V20.3799V20.38V20.3801V20.3801V20.3802V20.3803V20.3804V20.3804V20.3805V20.3806V20.3806V20.3807V20.3808V20.3809V20.3809V20.381V20.3811V20.3812V20.3812V20.3813V20.3814V20.3815V20.3815V20.3816V20.3817V20.3817V20.3818V20.3819V20.382V20.382V20.3821V20.3822V20.3823V20.3823V20.3824V20.3825V20.3825V20.3826V20.3827V20.3828V20.3828V20.3829V20.383V20.383V20.3831V20.3832V20.3833V20.3833V20.3834V20.3835V20.3836V20.3836V20.3837V20.3838V20.3838V20.3839V20.384V20.3841V20.3841V20.3842V20.3843V20.3843V20.3844V20.3845V20.3846V20.3846V20.3847V20.3848V20.3848V20.3849V20.385V20.3851V20.3851V20.3852V20.3853V20.3853V20.3854V20.3855V20.3855V20.3856V20.3857V20.3858V20.3858V20.3859V20.386V20.386V20.3861V20.3862V20.3863V20.3863V20.3864V20.3865V20.3865V20.3866V20.3867V20.3867V20.3868V20.3869V20.3869V20.387V20.3871V20.3872V20.3872V20.3873V20.3874V20.3874V20.3875V20.3876V20.3876V20.3877V20.3878V20.3878V20.3879V20.388V20.3881V20.3881V20.3882V20.3883V20.3883V20.3884V20.3885V20.3885V20.3886V20.3887V20.3887V20.3888V20.3889V20.3889V20.389V20.3891V20.3891V20.3892V20.3893V20.3893V20.3894V20.3895V20.3895V20.3896V20.3897V20.3897V20.3898V20.3899V20.3899V20.39V20.3901V20.3901V20.3902V20.3903V20.3903V20.3904V20.3905V20.3905V20.3906V20.3907V20.3907V20.3908V20.3909V20.3909V20.391V20.3911V20.3911V20.3912V20.3913V20.3913V20.3914V20.3915V20.3915V20.3916V20.3917V20.3917V20.3918V20.3919V20.3919V20.392V20.392V20.3921V20.3922V20.3922V20.3923V20.3924V20.3924V20.3925V20.3926V20.3926V20.3927V20.3928V20.3928V20.3929V20.3929V20.393V20.3931V20.3931V20.3932V20.3933V20.3933V20.3934V20.3934V20.3935V20.3936V20.3936V20.3937V20.3938V20.3938V20.3939V20.394V20.394V20.3941V20.3941V20.3942V20.3943V20.3943V20.3944V20.3945V20.3945V20.3946V20.3946V20.3947V20.3948V20.3948V20.3949V20.395V20.395V20.3951V20.3951V20.3952V20.3953V20.3953V20.3954V20.3955V20.3955V20.3956V20.3956V20.3957V20.3958V20.3958V20.3959V20.396V20.396V20.3961V20.3962V20.3962V20.3963V20.3963V20.3964V20.3965V20.3965V20.3966V20.3967V20.3967V20.3968V20.3968V20.3969V20.397V20.397V20.3971V20.3972V20.3972V20.3973V20.3974V20.3974V20.3975V20.3975V20.3976V20.3977V20.3977V20.3978V20.3979V20.3979V20.398V20.3981V20.3981V20.3982V20.3982V20.3983V20.3984V20.3984V20.3985V20.3986V20.3986V20.3987V20.3988V20.3988V20.3989V20.3989V20.399V20.3991V20.3991V20.3992V20.3993V20.3993V20.3994V20.3995V20.3995V20.3996V20.3996V20.3997V20.3998V20.3998V20.3999V20.4V20.4V20.4001V20.4002V20.4002V20.4003V20.4004V20.4004V20.4005V20.4005V20.4006V20.4007V20.4007V20.4008V20.4009V20.4009V20.401V20.4011V20.4011V20.4012V20.4013V20.4013V20.4014V20.4014V20.4015V20.4016V20.4016V20.4017V20.4018V20.4018V20.4019V20.402V20.402V20.4021V20.4022V20.4022V20.4023V20.4024V20.4024V20.4025V20.4025V20.4026V20.4027V20.4027V20.4028V20.4029V20.4029V20.403V20.4031V20.4031V20.4032V20.4033V20.4033V20.4034V20.4035V20.4035V20.4036V20.4036V20.4037V20.4038V20.4038V20.4039V20.404V20.404V20.4041V20.4042V20.4042V20.4043V20.4044V20.4044V20.4045V20.4046V20.4046V20.4047V20.4048V20.4048V20.4049V20.405V20.405V20.4051V20.4051V20.4052V20.4053V20.4053V20.4054V20.4055V20.4055V20.4056V20.4057V20.4057V20.4058V20.4059V20.4059V20.406V20.4061V20.4061V20.4062V20.4063V20.4063V20.4064V20.4065V20.4065V20.4066V20.4067V20.4067V20.4068V20.4069V20.4069V20.407V20.4071V20.4071V20.4072V20.4072V20.4073V20.4074V20.4074V20.4075V20.4076V20.4076V20.4077V20.4078V20.4078V20.4079V20.408V20.408V20.4081V20.4082V20.4082V20.4083V20.4084V20.4084V20.4085V20.4086V20.4086V20.4087V20.4088V20.4088V20.4089V20.409V20.409V20.4091V20.4092V20.4092V20.4093V20.4094V20.4094V20.4095V20.4096V20.4096V20.4097V20.4098V20.4098V20.4099V20.41V20.41V20.4101V20.4102V20.4102V20.4103V20.4104V20.4104V20.4105V20.4106V20.4106V20.4107V20.4108V20.4108V20.4109V20.411V20.411V20.4111V20.4112V20.4112V20.4113V20.4114V20.4114V20.4115V20.4116V20.4116V20.4117V20.4118V20.4118V20.4119V20.412V20.412V20.4121V20.4122V20.4122V20.4123V20.4124V20.4124V20.4125V20.4126V20.4126V20.4127V20.4128V20.4128V20.4129V20.413V20.413V20.4131V20.4132V20.4132V20.4133V20.4134V20.4135V20.4135V20.4136V20.4137V20.4137V20.4138V20.4139V20.4139V20.414V20.4141V20.4141V20.4142V20.4143V20.4143V20.4144V20.4145V20.4145V20.4146V20.4147V20.4147V20.4148V20.4149V20.4149V20.415V20.4151V20.4151V20.4152V20.4153V20.4153V20.4154V20.4155V20.4156V20.4156V20.4157V20.4158V20.4158V20.4159V20.416V20.416V20.4161V20.4162V20.4162V20.4163V20.4164V20.4164V20.4165V20.4166V20.4166V20.4167V20.4168V20.4168V20.4169V20.417V20.417V20.4171V20.4172V20.4173V20.4173V20.4174V20.4175V20.4175V20.4176V20.4177V20.4177V20.4178V20.4179V20.4179V20.418V20.4181V20.4181V20.4182V20.4183V20.4184V20.4184V20.4185V20.4186V20.4186V20.4187V20.4188V20.4188V20.4189V20.419V20.419V20.4191V20.4192V20.4192V20.4193V20.4194V20.4195V20.4195V20.4196V20.4197V20.4197V20.4198V20.4199V20.4199V20.42V20.4201V20.4201V20.4202V20.4203V20.4203V20.4204V20.4205V20.4206V20.4206V20.4207V20.4208V20.4208V20.4209V20.421V20.421V20.4211V20.4212V20.4212V20.4213V20.4214V20.4215V20.4215V20.4216V20.4217V20.4217V20.4218V20.4219V20.4219V20.422V20.4221V20.4221V20.4222V20.4223V20.4224V20.4224V20.4225V20.4226V20.4226V20.4227V20.4228V20.4228V20.4229V20.423V20.4231V20.4231V20.4232V20.4233V20.4233V20.4234V20.4235V20.4235V20.4236V20.4237V20.4238V20.4238V20.4239V20.424V20.424V20.4241V20.4242V20.4242V20.4243V20.4244V20.4245V20.4245V20.4246V20.4247V20.4247V20.4248V20.4249V20.4249V20.425V20.4251V20.4252V20.4252V20.4253V20.4254V20.4254V20.4255V20.4256V20.4256V20.4257V20.4258V20.4259V20.4259V20.426V20.4261V20.4261V20.4262V20.4263V20.4263V20.4264V20.4265V20.4266V20.4266V20.4267V20.4268V20.4268V20.4269V20.427V20.4271V20.4271V20.4272V20.4273V20.4273V20.4274V20.4275V20.4275V20.4276V20.4277V20.4278V20.4278C18.7594 20.8944 18.5741 21.3419 18.2441 21.6719C17.9142 22.0018 17.4667 22.1871 17.0001 22.1871C16.5335 22.1871 16.086 22.0018 15.7561 21.6719C15.4262 21.3419 15.2408 20.8944 15.2408 20.4278V20.4278V20.4277V20.4276V20.4276V20.4275V20.4274V20.4274V20.4273V20.4272V20.4272V20.4271V20.427V20.427V20.4269V20.4268V20.4268V20.4267V20.4266V20.4266V20.4265V20.4264V20.4264V20.4263V20.4262V20.4262V20.4261V20.426V20.426V20.4259V20.4258V20.4258V20.4257V20.4256V20.4256V20.4255V20.4254V20.4254V20.4253V20.4252V20.4252V20.4251V20.425V20.425V20.4249V20.4248V20.4248V20.4247V20.4246V20.4246V20.4245V20.4244V20.4244V20.4243V20.4242V20.4242V20.4241V20.424V20.424V20.4239V20.4238V20.4238V20.4237V20.4236V20.4236V20.4235V20.4234V20.4234V20.4233V20.4232V20.4232V20.4231V20.423V20.423V20.4229V20.4228V20.4228V20.4227V20.4226V20.4226V20.4225V20.4224V20.4224V20.4223V20.4222V20.4222V20.4221V20.422V20.422V20.4219V20.4218V20.4218V20.4217V20.4216V20.4216V20.4215V20.4214V20.4214V20.4213V20.4212V20.4212V20.4211V20.421V20.421V20.4209V20.4208V20.4208V20.4207V20.4206V20.4206V20.4205V20.4204V20.4204V20.4203V20.4202V20.4202V20.4201V20.42V20.42V20.4199V20.4198V20.4198V20.4197V20.4196V20.4196V20.4195V20.4194V20.4194V20.4193V20.4192V20.4192V20.4191V20.419V20.419V20.4189V20.4188V20.4188V20.4187V20.4186V20.4186V20.4185V20.4184V20.4184V20.4183V20.4182V20.4182V20.4181V20.418V20.418V20.4179V20.4179V20.4178V20.4177V20.4177V20.4176V20.4175V20.4175V20.4174V20.4173V20.4173V20.4172V20.4171V20.4171V20.417V20.4169V20.4169V20.4168V20.4167V20.4167V20.4166V20.4165V20.4165V20.4164V20.4163V20.4163V20.4162V20.4161V20.4161V20.416V20.4159V20.4159V20.4158V20.4157V20.4157V20.4156V20.4155V20.4155V20.4154V20.4153V20.4153V20.4152V20.4151V20.4151V20.415V20.4149V20.4149V20.4148V20.4147V20.4147V20.4146V20.4145V20.4145V20.4144V20.4143V20.4143V20.4142V20.4141V20.4141V20.414V20.4139V20.4139V20.4138V20.4138V20.4137V20.4136V20.4136V20.4135V20.4134V20.4134V20.4133V20.4132V20.4132V20.4131V20.413V20.413V20.4129V20.4128V20.4128V20.4127V20.4126V20.4126V20.4125V20.4124V20.4124V20.4123V20.4122V20.4122V20.4121V20.412V20.412V20.4119V20.4118V20.4118V20.4117V20.4116V20.4116V20.4115V20.4114V20.4114V20.4113V20.4113V20.4112V20.4111V20.4111V20.411V20.4109V20.4109V20.4108V20.4107V20.4107V20.4106V20.4105V20.4105V20.4104V20.4103V20.4103V20.4102V20.4101V20.4101V20.41V20.4099V20.4099V20.4098V20.4097V20.4097V20.4096V20.4095V20.4095V20.4094V20.4093V20.4093V20.4092V20.4092V20.4091V20.409V20.409V20.4089V20.4088V20.4088V20.4087V20.4086V20.4086V20.4085V20.4084V20.4084V20.4083V20.4082V20.4082V20.4081V20.408V20.408V20.4079V20.4078V20.4078V20.4077V20.4077V20.4076V20.4075V20.4075V20.4074V20.4073V20.4073V20.4072V20.4071V20.4071V20.407V20.4069V20.4069V20.4068V20.4067V20.4067V20.4066V20.4065V20.4065V20.4064V20.4063V20.4063V20.4062V20.4062V20.4061V20.406V20.406V20.4059V20.4058V20.4058V20.4057V20.4056V20.4056V20.4055V20.4054V20.4054V20.4053V20.4052V20.4052V20.4051V20.4051V20.405V20.4049V20.4049V20.4048V20.4047V20.4047V20.4046V20.4045V20.4045V20.4044V20.4043V20.4043V20.4042V20.4041V20.4041V20.404V20.404V20.4039V20.4038V20.4038V20.4037V20.4036V20.4036V20.4035V20.4034V20.4034V20.4033V20.4032V20.4032V20.4031V20.403V20.403V20.4029V20.4029V20.4028V20.4027V20.4027V20.4026V20.4025V20.4025V20.4024V20.4023V20.4023V20.4022V20.4021V20.4021V20.402V20.402V20.4019V20.4018V20.4018V20.4017V20.4016V20.4016V20.4015V20.4014V20.4014Z" fill="url(#paint22_linear_5530_9033)" stroke="url(#paint23_linear_5530_9033)" stroke-width="0.25"/>
<path d="M16.9263 32.0024L16.9263 32.0024C15.7014 31.9759 14.3433 31.233 14.1147 29.6197C13.9654 28.5842 14.2829 26.862 16.4811 24.4097L16.9263 32.0024ZM16.9263 32.0024H16.9291M16.9263 32.0024H16.9291M16.9291 32.0024H17.0002M16.9291 32.0024H17.0002M17.0002 32.0024C18.435 32.0024 19.6124 31.0887 19.8606 29.7501L17.0002 32.0024ZM17.5149 24.4097C17.4499 24.337 17.3702 24.2789 17.2811 24.2391C17.192 24.1993 17.0956 24.1787 16.998 24.1787C16.9005 24.1787 16.804 24.1993 16.7149 24.2391C16.6259 24.2789 16.5462 24.337 16.4812 24.4097L19.8606 29.75C20.0565 28.6972 19.7819 26.9394 17.5149 24.4097ZM17.5149 24.4097L17.4218 24.4931L17.5149 24.4097C17.5149 24.4097 17.5149 24.4097 17.5149 24.4097ZM18.4964 29.4941L18.4964 29.4945C18.3527 30.2645 17.6612 30.6162 16.9966 30.6162H16.9553C16.3374 30.6022 15.6087 30.2744 15.4885 29.4248C15.4182 28.917 15.5162 27.7876 17.0002 25.9426C18.5284 27.8418 18.5931 28.9847 18.4964 29.4941Z" fill="url(#paint24_linear_5530_9033)" stroke="url(#paint25_linear_5530_9033)" stroke-width="0.25"/>
<path d="M13.1507 25.4236L13.1507 25.4236C13.2162 25.3505 13.2964 25.2922 13.3861 25.2524C13.4756 25.2127 13.5725 25.1924 13.6705 25.1929M13.1507 25.4236L13.0063 30.9118C13.2206 30.9747 13.4428 31.0065 13.6661 31.0063V31.1313C13.6662 31.1313 13.6662 31.1313 13.6662 31.1313C14.3397 31.1313 14.9938 30.8557 15.4256 30.3604L15.4262 30.3597C15.5045 30.2686 15.5578 30.1588 15.5809 30.041C15.604 29.9232 15.5961 29.8014 15.5581 29.6876C15.5296 29.6022 15.5089 29.5145 15.4964 29.4254L15.4964 29.4252C15.4454 29.0644 15.5034 28.6341 15.6786 28.1491L15.6787 28.149C15.7362 27.9893 15.7331 27.8141 15.6701 27.6565C15.3913 26.9572 14.8908 26.2061 14.1902 25.4244C14.1248 25.3512 14.0446 25.2927 13.9549 25.2528C13.8654 25.213 13.7684 25.1925 13.6705 25.1929M13.1507 25.4236C11.8706 26.8524 11.2696 28.1471 11.4284 29.2704L13.1507 25.4236ZM13.6705 25.1929C13.6703 25.1929 13.6701 25.1929 13.6699 25.1929L13.6704 25.3179L13.6711 25.1929C13.6709 25.1929 13.6707 25.1929 13.6705 25.1929ZM13.6684 26.9705C12.8115 28.0994 12.7583 28.7754 12.8008 29.0753L12.801 29.0769L12.801 29.0769C12.82 29.2243 12.8829 29.3625 12.9816 29.4734C13.0804 29.5844 13.2103 29.663 13.3544 29.699L13.3599 29.7004L13.3599 29.7005C13.4982 29.7419 13.6435 29.7545 13.7869 29.7378C13.9021 29.7244 14.0141 29.6922 14.1186 29.6427L13.6684 26.9705ZM13.6684 26.9705C13.9021 27.2763 14.1055 27.6041 14.2759 27.9494C14.0976 28.5422 14.0433 29.1013 14.1153 29.6187L13.6684 26.9705Z" fill="url(#paint26_linear_5530_9033)" stroke="url(#paint27_linear_5530_9033)" stroke-width="0.25"/>
<path d="M20.3437 31.1317L20.342 31.1317C19.6703 31.1317 19.0085 30.8575 18.5838 30.3635C18.504 30.2728 18.4492 30.1628 18.4249 30.0444C18.4006 29.9258 18.4077 29.8028 18.4456 29.6878C18.4667 29.6232 18.4836 29.5572 18.4963 29.4904C18.5656 29.1166 18.5123 28.665 18.3252 28.1443L20.3437 31.1317ZM20.3437 31.1317C20.5581 31.1287 20.7711 31.0978 20.9775 31.0397C21.8071 30.8165 22.402 30.1907 22.5533 29.3648C22.7014 28.5716 22.4987 27.2632 20.8475 25.419L20.8475 25.419M20.3437 31.1317L20.8475 25.419M20.8475 25.419C20.7825 25.3463 20.7028 25.2882 20.6137 25.2484C20.5247 25.2086 20.4282 25.188 20.3306 25.188C20.2331 25.188 20.1366 25.2086 20.0475 25.2484C19.9585 25.2881 19.8789 25.3462 19.8138 25.4189M20.8475 25.419L19.8138 25.4189M19.8138 25.4189C19.113 26.1993 18.6133 26.9519 18.3338 27.6517L19.8138 25.4189ZM20.622 29.707L20.6211 29.7072C20.4855 29.7444 20.3439 29.7544 20.2044 29.7366C20.0919 29.7222 19.9825 29.69 19.8804 29.6413C19.9589 29.1171 19.9045 28.5487 19.7258 27.9514C19.897 27.6064 20.1012 27.2788 20.3354 26.9733C21.2185 28.1365 21.2505 28.8213 21.1947 29.1178L21.1947 29.118C21.121 29.5136 20.8163 29.6552 20.622 29.707ZM18.3338 27.6517C18.2708 27.8093 18.2677 27.9846 18.3251 28.1443L18.3338 27.6517Z" fill="url(#paint28_linear_5530_9033)" stroke="url(#paint29_linear_5530_9033)" stroke-width="0.25"/>
<path d="M8.37076 27.7965L8.37103 27.7965C8.46224 27.7965 8.55254 27.7785 8.63677 27.7435C8.72097 27.7085 8.79746 27.6573 8.86186 27.5928C8.86188 27.5928 8.86191 27.5928 8.86193 27.5927L11.7195 24.7366C11.8497 24.6065 11.9229 24.43 11.923 24.246C11.9231 24.0619 11.85 23.8854 11.72 23.7552C11.5899 23.625 11.4134 23.5518 11.2294 23.5518C11.0453 23.5517 10.8688 23.6247 10.7386 23.7548L10.7386 23.7548L7.8816 26.6118C7.88158 26.6118 7.88156 26.6118 7.88155 26.6119C7.78453 26.7088 7.71842 26.8323 7.69155 26.9668C7.66468 27.1013 7.67827 27.2407 7.73062 27.3675C7.78296 27.4943 7.87171 27.6027 7.98565 27.6791C8.09958 27.7554 8.2336 27.7963 8.37076 27.7965ZM8.58884 27.6281C8.51978 27.6567 8.44575 27.6715 8.37097 27.6715L8.77343 27.5045C8.72062 27.5574 8.6579 27.5994 8.58884 27.6281Z" fill="url(#paint30_linear_5530_9033)" stroke="url(#paint31_linear_5530_9033)" stroke-width="0.25"/>
<path d="M25.3635 27.7435C25.4475 27.7784 25.5376 27.7964 25.6286 27.7965L26.1187 26.6118L23.2624 23.7548L23.2624 23.7548C23.1322 23.6247 22.9556 23.5517 22.7716 23.5518C22.5876 23.5518 22.4111 23.625 22.281 23.7552C22.151 23.8854 22.0779 24.0619 22.078 24.246C22.0781 24.43 22.1513 24.6065 22.2814 24.7365C22.2814 24.7365 22.2815 24.7365 22.2815 24.7366L25.1384 27.5927C25.1384 27.5928 25.1384 27.5928 25.1385 27.5928C25.2029 27.6574 25.2793 27.7086 25.3635 27.7435ZM25.6293 27.7965C25.7663 27.7964 25.9002 27.7556 26.0141 27.6794C26.1282 27.6031 26.217 27.4947 26.2695 27.3679C26.3219 27.2411 26.3356 27.1016 26.3088 26.967C26.2819 26.8324 26.2158 26.7088 26.1187 26.6119L25.6293 27.7965Z" fill="url(#paint32_linear_5530_9033)" stroke="url(#paint33_linear_5530_9033)" stroke-width="0.25"/>
<defs>
<linearGradient id="paint0_linear_5530_9033" x1="17" y1="1" x2="17" y2="34.1347" gradientUnits="userSpaceOnUse">
<stop stop-color="#34A1DB"/>
<stop offset="1" stop-color="#212595"/>
</linearGradient>
<linearGradient id="paint1_linear_5530_9033" x1="17" y1="1" x2="17" y2="34.1347" gradientUnits="userSpaceOnUse">
<stop stop-color="#34A1DB"/>
<stop offset="1" stop-color="#212595"/>
</linearGradient>
<linearGradient id="paint2_linear_5530_9033" x1="16.9979" y1="4.85449" x2="16.9979" y2="24.209" gradientUnits="userSpaceOnUse">
<stop stop-color="#34A1DB"/>
<stop offset="1" stop-color="#212595"/>
</linearGradient>
<linearGradient id="paint3_linear_5530_9033" x1="16.9979" y1="4.85449" x2="16.9979" y2="24.209" gradientUnits="userSpaceOnUse">
<stop stop-color="#34A1DB"/>
<stop offset="1" stop-color="#212595"/>
</linearGradient>
<linearGradient id="paint4_linear_5530_9033" x1="17" y1="4.85449" x2="17" y2="8.9701" gradientUnits="userSpaceOnUse">
<stop stop-color="#34A1DB"/>
<stop offset="1" stop-color="#212595"/>
</linearGradient>
<linearGradient id="paint5_linear_5530_9033" x1="17" y1="4.85449" x2="17" y2="8.9701" gradientUnits="userSpaceOnUse">
<stop stop-color="#34A1DB"/>
<stop offset="1" stop-color="#212595"/>
</linearGradient>
<linearGradient id="paint6_linear_5530_9033" x1="11.6723" y1="6.48096" x2="11.6723" y2="10.1978" gradientUnits="userSpaceOnUse">
<stop stop-color="#34A1DB"/>
<stop offset="1" stop-color="#212595"/>
</linearGradient>
<linearGradient id="paint7_linear_5530_9033" x1="11.6723" y1="6.48096" x2="11.6723" y2="10.1978" gradientUnits="userSpaceOnUse">
<stop stop-color="#34A1DB"/>
<stop offset="1" stop-color="#212595"/>
</linearGradient>
<linearGradient id="paint8_linear_5530_9033" x1="7.77124" y1="10.9268" x2="7.77124" y2="13.5535" gradientUnits="userSpaceOnUse">
<stop stop-color="#34A1DB"/>
<stop offset="1" stop-color="#212595"/>
</linearGradient>
<linearGradient id="paint9_linear_5530_9033" x1="7.77124" y1="10.9268" x2="7.77124" y2="13.5535" gradientUnits="userSpaceOnUse">
<stop stop-color="#34A1DB"/>
<stop offset="1" stop-color="#212595"/>
</linearGradient>
<linearGradient id="paint10_linear_5530_9033" x1="6.34455" y1="16.999" x2="6.34455" y2="18.1367" gradientUnits="userSpaceOnUse">
<stop stop-color="#34A1DB"/>
<stop offset="1" stop-color="#212595"/>
</linearGradient>
<linearGradient id="paint11_linear_5530_9033" x1="6.34455" y1="16.999" x2="6.34455" y2="18.1367" gradientUnits="userSpaceOnUse">
<stop stop-color="#34A1DB"/>
<stop offset="1" stop-color="#212595"/>
</linearGradient>
<linearGradient id="paint12_linear_5530_9033" x1="7.77258" y1="21.5825" x2="7.77258" y2="24.2093" gradientUnits="userSpaceOnUse">
<stop stop-color="#34A1DB"/>
<stop offset="1" stop-color="#212595"/>
</linearGradient>
<linearGradient id="paint13_linear_5530_9033" x1="7.77258" y1="21.5825" x2="7.77258" y2="24.2093" gradientUnits="userSpaceOnUse">
<stop stop-color="#34A1DB"/>
<stop offset="1" stop-color="#212595"/>
</linearGradient>
<linearGradient id="paint14_linear_5530_9033" x1="26.2213" y1="21.5752" x2="26.2213" y2="24.209" gradientUnits="userSpaceOnUse">
<stop stop-color="#34A1DB"/>
<stop offset="1" stop-color="#212595"/>
</linearGradient>
<linearGradient id="paint15_linear_5530_9033" x1="26.2213" y1="21.5752" x2="26.2213" y2="24.209" gradientUnits="userSpaceOnUse">
<stop stop-color="#34A1DB"/>
<stop offset="1" stop-color="#212595"/>
</linearGradient>
<linearGradient id="paint16_linear_5530_9033" x1="27.6557" y1="16.999" x2="27.6557" y2="18.1367" gradientUnits="userSpaceOnUse">
<stop stop-color="#34A1DB"/>
<stop offset="1" stop-color="#212595"/>
</linearGradient>
<linearGradient id="paint17_linear_5530_9033" x1="27.6557" y1="16.999" x2="27.6557" y2="18.1367" gradientUnits="userSpaceOnUse">
<stop stop-color="#34A1DB"/>
<stop offset="1" stop-color="#212595"/>
</linearGradient>
<linearGradient id="paint18_linear_5530_9033" x1="26.229" y1="10.9268" x2="26.229" y2="13.5535" gradientUnits="userSpaceOnUse">
<stop stop-color="#34A1DB"/>
<stop offset="1" stop-color="#212595"/>
</linearGradient>
<linearGradient id="paint19_linear_5530_9033" x1="26.229" y1="10.9268" x2="26.229" y2="13.5535" gradientUnits="userSpaceOnUse">
<stop stop-color="#34A1DB"/>
<stop offset="1" stop-color="#212595"/>
</linearGradient>
<linearGradient id="paint20_linear_5530_9033" x1="22.3278" y1="6.48096" x2="22.3278" y2="10.1978" gradientUnits="userSpaceOnUse">
<stop stop-color="#34A1DB"/>
<stop offset="1" stop-color="#212595"/>
</linearGradient>
<linearGradient id="paint21_linear_5530_9033" x1="22.3278" y1="6.48096" x2="22.3278" y2="10.1978" gradientUnits="userSpaceOnUse">
<stop stop-color="#34A1DB"/>
<stop offset="1" stop-color="#212595"/>
</linearGradient>
<linearGradient id="paint22_linear_5530_9033" x1="17.0002" y1="11.5737" x2="17.0002" y2="23.452" gradientUnits="userSpaceOnUse">
<stop stop-color="#34A1DB"/>
<stop offset="1" stop-color="#212595"/>
</linearGradient>
<linearGradient id="paint23_linear_5530_9033" x1="17.0002" y1="11.5737" x2="17.0002" y2="23.452" gradientUnits="userSpaceOnUse">
<stop stop-color="#34A1DB"/>
<stop offset="1" stop-color="#212595"/>
</linearGradient>
<linearGradient id="paint24_linear_5530_9033" x1="16.9978" y1="24.3037" x2="16.9978" y2="31.8774" gradientUnits="userSpaceOnUse">
<stop stop-color="#34A1DB"/>
<stop offset="1" stop-color="#212595"/>
</linearGradient>
<linearGradient id="paint25_linear_5530_9033" x1="16.9978" y1="24.3037" x2="16.9978" y2="31.8774" gradientUnits="userSpaceOnUse">
<stop stop-color="#34A1DB"/>
<stop offset="1" stop-color="#212595"/>
</linearGradient>
<linearGradient id="paint26_linear_5530_9033" x1="13.5616" y1="25.3179" x2="13.5616" y2="31.0063" gradientUnits="userSpaceOnUse">
<stop stop-color="#34A1DB"/>
<stop offset="1" stop-color="#212595"/>
</linearGradient>
<linearGradient id="paint27_linear_5530_9033" x1="13.5616" y1="25.3179" x2="13.5616" y2="31.0063" gradientUnits="userSpaceOnUse">
<stop stop-color="#34A1DB"/>
<stop offset="1" stop-color="#212595"/>
</linearGradient>
<linearGradient id="paint28_linear_5530_9033" x1="20.4386" y1="25.313" x2="20.4386" y2="31.0067" gradientUnits="userSpaceOnUse">
<stop stop-color="#34A1DB"/>
<stop offset="1" stop-color="#212595"/>
</linearGradient>
<linearGradient id="paint29_linear_5530_9033" x1="20.4386" y1="25.313" x2="20.4386" y2="31.0067" gradientUnits="userSpaceOnUse">
<stop stop-color="#34A1DB"/>
<stop offset="1" stop-color="#212595"/>
</linearGradient>
<linearGradient id="paint30_linear_5530_9033" x1="9.80054" y1="23.6768" x2="9.80054" y2="27.6715" gradientUnits="userSpaceOnUse">
<stop stop-color="#34A1DB"/>
<stop offset="1" stop-color="#212595"/>
</linearGradient>
<linearGradient id="paint31_linear_5530_9033" x1="9.80054" y1="23.6768" x2="9.80054" y2="27.6715" gradientUnits="userSpaceOnUse">
<stop stop-color="#34A1DB"/>
<stop offset="1" stop-color="#212595"/>
</linearGradient>
<linearGradient id="paint32_linear_5530_9033" x1="24.2001" y1="23.6768" x2="24.2001" y2="27.6715" gradientUnits="userSpaceOnUse">
<stop stop-color="#34A1DB"/>
<stop offset="1" stop-color="#212595"/>
</linearGradient>
<linearGradient id="paint33_linear_5530_9033" x1="24.2001" y1="23.6768" x2="24.2001" y2="27.6715" gradientUnits="userSpaceOnUse">
<stop stop-color="#34A1DB"/>
<stop offset="1" stop-color="#212595"/>
</linearGradient>
</defs>
</svg>
