<svg width="21" height="21" viewBox="0 0 21 21" fill="none" xmlns="http://www.w3.org/2000/svg">
<path d="M20.7051 19.2296L16.812 15.365C18.3232 13.4793 19.055 11.0858 18.857 8.67674C18.659 6.26765 17.5462 4.02603 15.7474 2.41282C13.9486 0.799609 11.6005 -0.0625793 9.18605 0.0035401C6.77156 0.0696594 4.47414 1.05906 2.7662 2.7683C1.05826 4.47754 0.0696066 6.7767 0.00353741 9.19303C-0.0625317 11.6094 0.799002 13.9592 2.41099 15.7593C4.02298 17.5595 6.26289 18.6732 8.67016 18.8713C11.0774 19.0695 13.4691 18.3371 15.3533 16.8247L19.215 20.6894C19.3126 20.7878 19.4286 20.8659 19.5565 20.9192C19.6844 20.9726 19.8215 21 19.9601 21C20.0986 21 20.2358 20.9726 20.3636 20.9192C20.4915 20.8659 20.6076 20.7878 20.7051 20.6894C20.8943 20.4935 21 20.2318 21 19.9595C21 19.6871 20.8943 19.4254 20.7051 19.2296ZM2.12068 9.47351C2.12068 8.01958 2.5515 6.5983 3.35865 5.38939C4.1658 4.18049 5.31303 3.23827 6.65527 2.68187C7.9975 2.12548 9.47447 1.9799 10.8994 2.26355C12.3243 2.5472 13.6332 3.24733 14.6605 4.27542C15.6878 5.3035 16.3874 6.61336 16.6708 8.03936C16.9542 9.46535 16.8088 10.9434 16.2528 12.2867C15.6968 13.63 14.7553 14.7781 13.5473 15.5858C12.3393 16.3936 10.9191 16.8247 9.46632 16.8247C7.51814 16.8247 5.64974 16.0502 4.27217 14.6716C2.8946 13.293 2.12068 11.4232 2.12068 9.47351Z" fill="#0062B6"/>
</svg>
