<svg width="24" height="26" viewBox="0 0 24 26" fill="none" xmlns="http://www.w3.org/2000/svg">
<g clip-path="url(#clip0_5946_27260)">
<path d="M2.14683 25.5399L2.14667 25.54C1.99067 25.657 1.80518 25.7282 1.61097 25.7458C1.41676 25.7633 1.22151 25.7264 1.0471 25.6391C0.872687 25.5519 0.726007 25.4179 0.623492 25.252L0.411156 25.3832L0.623491 25.252C0.520975 25.0861 0.466675 24.895 0.466675 24.7V1.3C0.466675 1.02152 0.577299 0.754451 0.774213 0.557538C0.971126 0.360625 1.2382 0.25 1.51667 0.25H22.3167C22.5952 0.25 22.8622 0.360625 23.0591 0.557538C23.2561 0.754451 23.3667 1.02152 23.3667 1.3L23.3667 24.6992C23.3667 24.6994 23.3667 24.6996 23.3667 24.6998C23.366 24.8935 23.3117 25.0833 23.2099 25.248C23.108 25.413 22.9623 25.5465 22.7892 25.6337L22.7886 25.634C22.6142 25.7225 22.4186 25.7605 22.2239 25.7438C22.0291 25.7271 21.8428 25.6564 21.6861 25.5395L18.9955 23.5249L18.8453 23.4124L18.6954 23.5252L16.0177 25.54C16.0176 25.54 16.0175 25.5401 16.0175 25.5401C15.8358 25.6764 15.6148 25.75 15.3877 25.75C15.1605 25.75 14.9394 25.6763 14.7577 25.54L14.7575 25.5399L12.0665 23.5249L11.9167 23.4127L11.7668 23.5249L9.07583 25.5399L9.07568 25.54C8.89393 25.6763 8.67286 25.75 8.44567 25.75C8.21851 25.75 7.99747 25.6763 7.81574 25.54C7.81572 25.54 7.8157 25.54 7.81567 25.54L5.13798 23.5252L4.98804 23.4124L4.83783 23.5249L2.14683 25.5399ZM20.867 22.3002L21.2667 22.5991V22.1V2.6V2.35H21.0167H2.81667H2.56667V2.6V22.1V22.5991L2.96638 22.3002L4.35738 21.2602L4.35767 21.26C4.53943 21.1237 4.76049 21.05 4.98767 21.05C5.21486 21.05 5.43592 21.1237 5.61767 21.26L8.29536 23.2748L8.44531 23.3876L8.59552 23.2751L11.2865 21.2601L11.2867 21.26C11.4684 21.1237 11.6895 21.05 11.9167 21.05C12.1439 21.05 12.3649 21.1237 12.5467 21.26L12.5468 21.2601L15.2378 23.2751L15.388 23.3876L15.538 23.2748L18.2157 21.26C18.3974 21.1237 18.6185 21.05 18.8457 21.05C19.0729 21.05 19.2939 21.1237 19.4757 21.26L19.476 21.2602L20.867 22.3002ZM17.1167 7.55H9.31668C9.0382 7.55 8.77113 7.43937 8.57421 7.24246C8.3773 7.04555 8.26667 6.77848 8.26667 6.5C8.26667 6.22152 8.3773 5.95445 8.57421 5.75754C8.77113 5.56062 9.0382 5.45 9.31668 5.45H17.1167C17.3952 5.45 17.6622 5.56062 17.8591 5.75754C18.0561 5.95445 18.1667 6.22152 18.1667 6.5C18.1667 6.77848 18.0561 7.04555 17.8591 7.24246C17.6622 7.43937 17.3952 7.55 17.1167 7.55ZM17.1167 12.75H6.71667C6.4382 12.75 6.17113 12.6394 5.97421 12.4425C5.7773 12.2455 5.66667 11.9785 5.66667 11.7C5.66667 11.4215 5.7773 11.1544 5.97421 10.9575C6.17113 10.7606 6.4382 10.65 6.71667 10.65H17.1167C17.3952 10.65 17.6622 10.7606 17.8591 10.9575C18.0561 11.1544 18.1667 11.4215 18.1667 11.7C18.1667 11.9785 18.0561 12.2455 17.8591 12.4425C17.6622 12.6394 17.3952 12.75 17.1167 12.75ZM17.1167 17.95H6.71667C6.4382 17.95 6.17113 17.8394 5.97421 17.6425C5.7773 17.4455 5.66667 17.1785 5.66667 16.9C5.66667 16.6215 5.7773 16.3545 5.97421 16.1575C6.17113 15.9606 6.4382 15.85 6.71667 15.85H17.1167C17.3952 15.85 17.6622 15.9606 17.8591 16.1575C18.0561 16.3545 18.1667 16.6215 18.1667 16.9C18.1667 17.1785 18.0561 17.4455 17.8591 17.6425C17.6622 17.8394 17.3952 17.95 17.1167 17.95Z" fill="url(#paint0_linear_5946_27260)" stroke="white" stroke-width="0.5"/>
</g>
<defs>
<linearGradient id="paint0_linear_5946_27260" x1="11.9167" y1="0" x2="11.9167" y2="26" gradientUnits="userSpaceOnUse">
<stop stop-color="#34A1DB"/>
<stop offset="1" stop-color="#212595"/>
</linearGradient>
<clipPath id="clip0_5946_27260">
<rect width="23.8333" height="26" fill="white"/>
</clipPath>
</defs>
</svg>
