<svg width="18" height="18" viewBox="0 0 18 18" fill="none" xmlns="http://www.w3.org/2000/svg">
<path d="M9 1.6875C4.96793 1.6875 1.6875 4.96793 1.6875 9C1.6875 13.0321 4.96793 16.3125 9 16.3125C13.0321 16.3125 16.3125 13.0321 16.3125 9C16.3125 4.96793 13.0321 1.6875 9 1.6875ZM11.6476 10.8524C11.702 10.9041 11.7456 10.9662 11.7756 11.035C11.8057 11.1038 11.8217 11.1779 11.8226 11.253C11.8236 11.3281 11.8095 11.4026 11.7812 11.4721C11.7529 11.5417 11.711 11.6048 11.6579 11.6579C11.6048 11.711 11.5417 11.7529 11.4721 11.7812C11.4026 11.8095 11.3281 11.8236 11.253 11.8226C11.1779 11.8217 11.1038 11.8057 11.035 11.7756C10.9662 11.7456 10.9041 11.702 10.8524 11.6476L9 9.79559L7.14762 11.6476C7.04127 11.7487 6.89966 11.8041 6.75298 11.8023C6.6063 11.8004 6.46616 11.7413 6.36244 11.6376C6.25871 11.5338 6.19961 11.3937 6.19773 11.247C6.19585 11.1003 6.25135 10.9587 6.35238 10.8524L8.20441 9L6.35238 7.14762C6.25135 7.04127 6.19585 6.89966 6.19773 6.75298C6.19961 6.6063 6.25871 6.46616 6.36244 6.36244C6.46616 6.25871 6.6063 6.19961 6.75298 6.19773C6.89966 6.19585 7.04127 6.25135 7.14762 6.35238L9 8.20441L10.8524 6.35238C10.9587 6.25135 11.1003 6.19585 11.247 6.19773C11.3937 6.19961 11.5338 6.25871 11.6376 6.36244C11.7413 6.46616 11.8004 6.6063 11.8023 6.75298C11.8041 6.89966 11.7487 7.04127 11.6476 7.14762L9.79559 9L11.6476 10.8524Z" fill="#FF706B"/>
</svg>
