<svg width="35" height="32" viewBox="0 0 35 32" fill="none" xmlns="http://www.w3.org/2000/svg">
<path d="M25.2594 20.2382V19.6589C25.2594 19.4583 25.0968 19.2958 24.8963 19.2958H14.3571C14.1566 19.2958 13.994 19.4583 13.994 19.6589V20.2382C13.994 20.4387 14.1566 20.6012 14.3571 20.6012H24.8963C25.0968 20.6012 25.2594 20.4387 25.2594 20.2382ZM24.905 22.4624C24.8155 22.4164 24.714 22.3903 24.6067 22.3903H14.6467C14.4664 22.3903 14.3034 22.4633 14.185 22.5813C14.067 22.6993 13.994 22.8627 13.994 23.0431C13.994 23.4032 14.286 23.6958 14.6467 23.6958H24.3944L24.905 22.4624ZM18.4905 26.1374C18.4905 26.3178 18.5635 26.4807 18.6815 26.5987C18.7999 26.7171 18.9629 26.7901 19.1432 26.7901H24.1942C24.1923 26.7403 24.1933 26.69 24.1967 26.6393L24.2721 25.4847H19.1432C18.7825 25.4847 18.4905 25.7767 18.4905 26.1374ZM1.51072 2.71463L18.6089 0.0220465C19.5851 -0.131695 20.5009 0.535037 20.6546 1.51072L21.1618 4.73175H28.2812C29.269 4.73175 30.0701 5.5329 30.0701 6.52066V9.98926L27.9428 15.1268V6.85912H21.4969H19.3429H11.3106V26.6228V28.7763V29.8734H27.9428V26.6286L28.872 25.5693L30.0701 22.6761V30.2118C30.0701 31.1996 29.269 32.0007 28.2812 32.0007H10.9722C9.98439 32.0007 9.18327 31.1996 9.18327 30.2118V29.1114L5.75289 29.6514C4.77672 29.8052 3.86098 29.1384 3.70723 28.1628L0.0220465 4.75981C-0.131695 3.78412 0.535037 2.86837 1.51072 2.71463ZM2.17601 4.76317L5.75628 27.4975L9.18327 26.9579V6.52066C9.18327 5.5329 9.98439 4.73175 10.9722 4.73175H19.0079L18.6055 2.17601L2.17601 4.76317ZM31.4537 10.0605L25.6885 23.983L25.6762 24.0125L25.4994 26.7238C25.4921 26.8356 25.5568 26.9394 25.6602 26.9822C25.6926 26.9956 25.7265 27.0021 25.7601 27.0021C25.8338 27.0021 25.9059 26.9709 25.9566 26.9131L27.7483 24.8706L33.5262 10.9187C33.605 10.7286 33.5144 10.5097 33.3241 10.4309L31.9416 9.85834C31.7514 9.77956 31.5325 9.87028 31.4537 10.0605ZM34.5122 7.70373L33.1742 7.14955C33.0761 7.10904 32.9682 7.10898 32.8701 7.1496C32.7721 7.19025 32.6957 7.26663 32.6551 7.36467L32.1012 8.70264C32.0175 8.90495 32.1139 9.13778 32.3163 9.22162L33.6541 9.77566C33.7031 9.79591 33.7545 9.80607 33.8061 9.80607C33.8576 9.80607 33.9091 9.79591 33.9581 9.7756C34.0561 9.73501 34.1325 9.65861 34.1731 9.56065L34.7272 8.22277C34.7679 8.12475 34.7679 8.01672 34.7273 7.91871C34.6866 7.82064 34.6102 7.74429 34.5122 7.70373Z" fill="url(#paint0_linear_5946_27047)"/>
<path d="M18.2358 10.7861V16H16.8203V12.0896H16.7897L15.6492 12.7719V11.5702L16.9323 10.7861H18.2358ZM19.378 16V14.9817L21.323 13.3727C21.452 13.2657 21.5624 13.1656 21.654 13.0723C21.7473 12.9772 21.8186 12.8796 21.8679 12.7795C21.9188 12.6794 21.9442 12.5682 21.9442 12.446C21.9442 12.3119 21.9154 12.1973 21.8577 12.1023C21.8017 12.0072 21.7236 11.9343 21.6235 11.8833C21.5233 11.8307 21.4079 11.8044 21.2772 11.8044C21.1465 11.8044 21.0311 11.8307 20.931 11.8833C20.8325 11.936 20.7562 12.0132 20.7018 12.115C20.6475 12.2169 20.6204 12.3408 20.6204 12.4867H19.2762C19.2762 12.1201 19.3585 11.8044 19.5231 11.5397C19.6877 11.2749 19.9203 11.0712 20.2207 10.9286C20.5211 10.7861 20.8733 10.7148 21.2772 10.7148C21.6947 10.7148 22.0562 10.7818 22.3618 10.9159C22.669 11.0483 22.9057 11.235 23.072 11.476C23.2401 11.717 23.3241 11.9996 23.3241 12.3238C23.3241 12.5241 23.2825 12.7235 23.1993 12.9221C23.1162 13.1189 22.9668 13.337 22.7513 13.5763C22.5357 13.8157 22.2294 14.1008 21.8322 14.4318L21.3434 14.8391V14.8696H23.3801V16H19.378Z" fill="url(#paint1_linear_5946_27047)"/>
<defs>
<linearGradient id="paint0_linear_5946_27047" x1="17.3789" y1="0" x2="17.3789" y2="32.0007" gradientUnits="userSpaceOnUse">
<stop stop-color="#34A1DB"/>
<stop offset="1" stop-color="#212595"/>
</linearGradient>
<linearGradient id="paint1_linear_5946_27047" x1="19.5" y1="9" x2="19.5" y2="18" gradientUnits="userSpaceOnUse">
<stop stop-color="#34A1DB"/>
<stop offset="1" stop-color="#212595"/>
</linearGradient>
</defs>
</svg>
