<svg width="25" height="29" viewBox="0 0 25 29" fill="none" xmlns="http://www.w3.org/2000/svg">
<g clip-path="url(#clip0_7041_8272)">
<path fill-rule="evenodd" clip-rule="evenodd" d="M14.2469 14.3057C11.7058 16.085 11.0872 19.5929 12.8667 22.1343C14.646 24.6754 18.1539 25.294 20.6953 23.5147C23.2367 21.7352 23.8551 18.2273 22.0758 15.6861C20.2962 13.1447 16.7883 12.5261 14.2469 14.3057ZM14.9139 15.2582C16.9297 13.8466 19.7118 14.3373 21.1232 16.3529C22.5346 18.3684 22.0441 21.1508 20.0283 22.5622C18.0127 23.9736 15.2307 23.4829 13.819 21.4673C12.4079 19.4517 12.8983 16.6698 14.9139 15.2582Z" fill="url(#paint0_linear_7041_8272)"/>
<path fill-rule="evenodd" clip-rule="evenodd" d="M20.0223 23.5613L20.6182 24.4124C20.7084 24.5343 20.8426 24.6161 20.9922 24.6405C21.1418 24.6648 21.2951 24.6298 21.4193 24.5428C21.5434 24.4559 21.6288 24.3239 21.6571 24.1749C21.6854 24.026 21.6544 23.8719 21.5707 23.7454L20.9749 22.8943C20.8847 22.7724 20.7505 22.6906 20.6009 22.6662C20.4512 22.6419 20.298 22.6769 20.1738 22.7639C20.0496 22.8508 19.9643 22.9828 19.936 23.1318C19.9077 23.2807 19.9387 23.4348 20.0223 23.5613Z" fill="black"/>
<path fill-rule="evenodd" clip-rule="evenodd" d="M23.234 24.3966C23.0054 24.07 22.6839 23.8197 22.3113 23.678C21.9387 23.5363 21.5321 23.5098 21.1442 23.6019C20.9309 23.6526 20.7449 23.7828 20.6242 23.9659C20.405 24.2989 20.2909 24.69 20.2966 25.0886C20.3023 25.4872 20.4276 25.8749 20.6563 26.2015L21.928 28.0178C22.1682 28.3573 22.5332 28.5879 22.943 28.6591C23.3528 28.7303 23.7741 28.6363 24.1148 28.3978C24.4555 28.1592 24.6879 27.7955 24.7612 27.386C24.8345 26.9766 24.7427 26.5548 24.5059 26.2129L23.234 24.3966ZM22.2814 25.0636C22.1985 24.9451 22.0859 24.8505 21.955 24.7891C21.824 24.7277 21.6793 24.7018 21.5352 24.7138C21.4746 24.8451 21.4495 24.99 21.4624 25.1341C21.4753 25.2781 21.5257 25.4163 21.6087 25.5347L22.8807 27.351C22.9432 27.44 23.0384 27.5006 23.1455 27.5195C23.2526 27.5384 23.3628 27.514 23.4519 27.4517L23.4526 27.4512C23.4968 27.4204 23.5344 27.3811 23.5634 27.3356C23.5923 27.2902 23.612 27.2395 23.6214 27.1864C23.6308 27.1334 23.6296 27.079 23.6179 27.0264C23.6062 26.9738 23.5842 26.924 23.5533 26.8799L22.2814 25.0636ZM0.590512 7.90544C0.584233 7.76451 0.530745 5.89637 2.08981 4.05311C2.94888 3.03753 4.35423 1.95311 6.77354 1.37544C9.97586 0.610319 12.5859 1.47358 14.2852 2.94264C17.1656 5.43264 17.7119 9.74706 14.4652 12.8408C13.5759 13.6885 12.4163 14.181 11.1877 14.5606C10.7777 14.6873 10.3607 14.8031 9.96749 14.9557C9.74516 15.0422 9.51005 15.1059 9.36307 15.3003C9.14447 15.5903 9.14586 16.0352 9.18028 16.6847C9.25563 18.1106 8.15935 19.3294 6.73354 19.405C5.30749 19.4803 4.08888 18.384 4.0133 16.958C3.90702 14.9487 4.33586 13.5868 4.94795 12.5999C5.64168 11.4812 6.6147 10.7678 7.74586 10.2757C8.35284 10.0117 9.01098 9.81753 9.66051 9.61683C10.1054 9.47939 10.5735 9.40241 10.8956 9.0952C11.6298 8.39567 11.5526 7.41985 10.9014 6.85683C10.2403 6.2852 9.20749 6.1759 7.94842 6.41358C6.49656 6.68753 6.00354 7.55404 5.82168 8.07497C5.25028 9.71148 4.54749 10.4215 3.21516 10.4408C1.79191 10.4617 0.618419 9.32683 0.590512 7.90544ZM4.724 7.69171C4.36656 8.71497 4.03098 9.26613 3.19795 9.27823C2.82028 9.28357 2.45593 9.13874 2.185 8.87556C1.91406 8.61239 1.7587 8.25241 1.75307 7.87474L1.75237 7.85264C1.75237 7.85264 1.69144 6.3252 2.97795 4.80427C3.72144 3.92497 4.94935 3.0066 7.04354 2.50637C9.80377 1.84706 12.0603 2.55613 13.5249 3.82241C15.9042 5.87916 16.3452 9.44334 13.6631 11.9992C12.9014 12.7252 11.8968 13.1247 10.8445 13.4496C10.4082 13.5843 9.96493 13.7094 9.54679 13.8717C9.12191 14.0366 8.71563 14.2282 8.43516 14.6001C8.09284 15.0536 7.9654 15.7292 8.01912 16.7461C8.03895 17.1234 7.90818 17.493 7.65555 17.7739C7.40293 18.0547 7.04912 18.2237 6.67191 18.2438C6.29472 18.2636 5.92512 18.1328 5.64433 17.8802C5.36354 17.6275 5.19454 17.2738 5.17447 16.8966C5.08493 15.201 5.41958 14.0459 5.93609 13.2129C6.49772 12.3073 7.29423 11.7403 8.20981 11.3419C8.77819 11.0947 9.39563 10.9157 10.0035 10.728C10.6245 10.5361 11.2487 10.3652 11.698 9.93706C12.9966 8.69939 12.8142 6.97334 11.6619 5.9773C10.7777 5.21311 9.41586 4.95334 7.73261 5.27102C5.65516 5.66311 4.98423 6.94613 4.724 7.69171ZM4.04447 22.8696V23.3464C4.04447 24.7743 5.20377 25.9336 6.63168 25.9336C8.05958 25.9336 9.21842 24.7743 9.21842 23.3464V22.8696C9.21842 21.4417 8.05935 20.2826 6.63144 20.2826C5.20354 20.2826 4.04447 21.4417 4.04447 22.8696ZM5.20726 22.8696C5.20744 22.4919 5.35757 22.1297 5.62466 21.8626C5.89175 21.5955 6.25395 21.4454 6.63168 21.4452C7.00936 21.4454 7.3715 21.5956 7.63854 21.8627C7.90558 22.1298 8.05568 22.4919 8.05586 22.8696V23.3464C8.05568 23.724 7.90558 24.0862 7.63854 24.3533C7.3715 24.6204 7.00936 24.7705 6.63168 24.7708C6.25399 24.7705 5.89185 24.6204 5.62481 24.3533C5.35777 24.0862 5.20767 23.724 5.20749 23.3464L5.20726 22.8696Z" fill="url(#paint1_linear_7041_8272)"/>
</g>
<defs>
<linearGradient id="paint0_linear_7041_8272" x1="17.4712" y1="13.2896" x2="17.4712" y2="24.5307" gradientUnits="userSpaceOnUse">
<stop stop-color="#34A1DB"/>
<stop offset="1" stop-color="#212595"/>
</linearGradient>
<linearGradient id="paint1_linear_7041_8272" x1="12.6874" y1="1.09082" x2="12.6874" y2="28.6823" gradientUnits="userSpaceOnUse">
<stop stop-color="#34A1DB"/>
<stop offset="1" stop-color="#212595"/>
</linearGradient>
<clipPath id="clip0_7041_8272">
<rect width="25" height="29" fill="white"/>
</clipPath>
</defs>
</svg>
