<svg width="29" height="29" viewBox="0 0 29 29" fill="none" xmlns="http://www.w3.org/2000/svg">
<path d="M28.947 19.0577C28.8179 18.5347 28.4718 18.0979 27.9968 17.8591C27.5292 17.6248 26.9841 17.607 26.5014 17.8095L19.9114 20.5633C19.6734 19.922 19.0605 19.4614 18.3374 19.4614H13.4464L9.63858 17.0813C9.19211 16.8023 8.67766 16.6548 8.15115 16.6548H5.32363C5.09117 16.0029 4.47391 15.5322 3.74311 15.5322H2.62047C1.69189 15.5322 0.936523 16.2876 0.936523 17.2161V20.0227C0.936523 20.3327 1.18785 20.584 1.49784 20.584C1.80783 20.584 2.05916 20.3327 2.05916 20.0227V17.2161C2.05916 16.9067 2.31104 16.6548 2.62047 16.6548H3.74311C4.05255 16.6548 4.30443 16.9067 4.30443 17.2161V25.6359C4.30443 25.9453 4.05255 26.1972 3.74311 26.1972H2.62047C2.31104 26.1972 2.05916 25.9453 2.05916 25.6359V24.5133C2.05916 24.2033 1.80783 23.9519 1.49784 23.9519C1.18785 23.9519 0.936523 24.2033 0.936523 24.5133V25.6359C0.936523 26.5645 1.69189 27.3198 2.62047 27.3198H3.74311C4.40464 27.3198 4.9726 26.933 5.24781 26.3767H7.29629C7.49499 26.3767 7.68904 26.4107 7.87377 26.4779L14.3632 28.8355C14.6693 28.9462 14.9903 29.0008 15.3104 29.0008C15.8531 29.0008 16.3936 28.8443 16.857 28.5398L28.1875 21.0272C28.825 20.5986 29.1309 19.8024 28.947 19.0577ZM27.564 20.0937C27.5525 20.1013 16.2387 27.6027 16.2387 27.6027C15.7917 27.8965 15.2476 27.9617 14.7455 27.78L8.25722 25.4227C7.94942 25.3108 7.62628 25.2541 7.29629 25.2541H5.42706V17.7775H8.15115C8.46716 17.7775 8.7755 17.866 9.04355 18.0334L12.9881 20.4988C13.0772 20.5544 13.1803 20.584 13.2855 20.584H18.3374C18.6468 20.584 18.8987 20.8359 18.8987 21.1454C18.8987 21.4548 18.6468 21.7067 18.3374 21.7067H13.2855C12.9755 21.7067 12.7242 21.958 12.7242 22.268C12.7242 22.578 12.9755 22.8293 13.2855 22.8293H18.3374C19.0383 22.8293 19.6395 22.3984 19.8926 21.7879L26.9355 18.845C27.3375 18.677 27.7508 18.9427 27.8609 19.3417C27.9374 19.6191 27.7993 19.9377 27.564 20.0937ZM28.2671 4.463C28.093 4.29461 27.8292 4.25531 27.6103 4.3732L21.9466 7.46606L20.9306 5.42848L21.6435 3.99713C21.7558 3.77821 21.7109 3.51998 21.5425 3.34598L19.2972 1.10071C19.0783 0.881794 18.7247 0.881794 18.5057 1.10071L16.2156 3.34598C16.036 3.51999 15.9967 3.78941 16.1089 4.00833L16.8667 5.4341L15.8507 7.46607C15.8507 7.46607 10.2097 4.38561 10.1871 4.37324C9.71562 4.11578 9.17216 4.64035 9.41801 5.11977L12.9543 12.198C12.1853 12.3495 11.6015 13.0343 11.6015 13.8482C11.6015 14.7744 12.3593 15.5322 13.2855 15.5322H24.5118C25.438 15.5322 26.1958 14.7744 26.1958 13.8482C26.1958 13.0343 25.612 12.3495 24.843 12.198L28.3793 5.11976C28.4916 4.90084 28.4467 4.63139 28.2671 4.463ZM25.0732 13.8482C25.0732 14.157 24.8206 14.4096 24.5118 14.4096H13.2855C12.9768 14.4096 12.7242 14.157 12.7242 13.8482C12.7242 13.5395 12.9768 13.2869 13.2855 13.2869H24.5118C24.8206 13.2869 25.0732 13.5395 25.0732 13.8482ZM23.6025 12.1643H14.1948L11.2199 6.2143C11.2199 6.2143 15.8084 8.72122 15.8226 8.72901C16.0971 8.87894 16.4524 8.76623 16.5917 8.48766L17.995 5.68108C18.0791 5.51827 18.0735 5.32745 17.9893 5.16464L17.2989 3.85118L18.8931 2.2907L20.4591 3.8568L19.8024 5.17588C19.7182 5.33303 19.7182 5.5239 19.8024 5.68108C19.8024 5.68108 21.1985 8.47327 21.2057 8.48761C21.3385 8.75327 21.6995 8.87807 21.9747 8.72902L26.5775 6.2143L23.6025 12.1643Z" fill="#399AD8"/>
<path d="M1.49784 22.8297C1.80785 22.8297 2.05916 22.5784 2.05916 22.2683C2.05916 21.9583 1.80785 21.707 1.49784 21.707C1.18783 21.707 0.936523 21.9583 0.936523 22.2683C0.936523 22.5784 1.18783 22.8297 1.49784 22.8297Z" fill="#399AD8"/>
</svg>
