<svg width="15" height="15" viewBox="0 0 15 15" fill="none" xmlns="http://www.w3.org/2000/svg">
<path d="M7.5 0C3.36279 0 0 3.36279 0 7.5C0 11.6372 3.36279 15 7.5 15C11.6372 15 15 11.6372 15 7.5C15 3.36279 11.6372 0 7.5 0ZM7.5 13.9535C3.94186 13.9535 1.04651 11.0581 1.04651 7.5C1.04651 3.94186 3.94186 1.04651 7.5 1.04651C11.0581 1.04651 13.9535 3.94186 13.9535 7.5C13.9535 11.0581 11.0581 13.9535 7.5 13.9535Z" fill="#0062B6"/>
<path d="M7.91201 3.18908C7.8936 3.17033 7.87519 3.15158 7.8531 3.13659C7.84574 3.13284 7.84206 3.12534 7.8347 3.11784C7.7942 3.08785 7.75371 3.0616 7.70585 3.04285C7.70217 3.0391 7.69849 3.03536 7.69113 3.03536C7.68376 3.03161 7.68008 3.03536 7.67272 3.03161C7.577 2.99786 7.47393 2.99036 7.37453 3.01286C7.36717 3.01286 7.35981 3.01661 7.35244 3.01661C7.30459 3.02786 7.25673 3.0466 7.21255 3.0766C7.20887 3.0766 7.20887 3.08035 7.20519 3.08035C7.17942 3.09909 7.14997 3.11784 7.12788 3.13659C7.11684 3.14783 7.10948 3.15908 7.09843 3.17033C7.09475 3.17408 7.08739 3.17783 7.08371 3.18158L4.13865 6.55597C3.93618 6.78843 3.95827 7.14462 4.18651 7.35083C4.41475 7.55705 4.76448 7.5383 4.96695 7.30209L6.9475 5.03375V11.4376C6.9475 11.7488 7.19415 12 7.4997 12C7.80525 12 8.05189 11.7488 8.05189 11.4376V5.04125L10.0324 7.31334C10.1429 7.43707 10.2938 7.50081 10.4448 7.50081C10.5515 7.50119 10.6561 7.4701 10.7459 7.4113C10.8357 7.35249 10.9069 7.26848 10.9509 7.16939C10.9949 7.0703 11.0098 6.96037 10.9938 6.85286C10.9778 6.74535 10.9316 6.64484 10.8607 6.56347L7.91201 3.18908Z" fill="#0062B6"/>
</svg>
