<svg width="25" height="28" viewBox="0 0 25 28" fill="none" xmlns="http://www.w3.org/2000/svg">
<path d="M8.55788 22.0003V23.0002C8.55788 24.061 8.97321 25.0784 9.7125 25.8285C10.4518 26.5786 11.4545 27 12.5 27C13.5455 27 14.5482 26.5786 15.2875 25.8285C16.0268 25.0784 16.4421 24.061 16.4421 23.0002V22.0003M19.3288 1C21.3342 2.2845 22.9507 4.10626 24 6.26416M1 6.26416C2.04929 4.10626 3.66584 2.2845 5.67122 1M3.65526 12.0008C3.65201 10.8202 3.8784 9.65045 4.32146 8.55871C4.76451 7.46696 5.41553 6.47464 6.23721 5.63861C7.05889 4.80259 8.03508 4.13928 9.10985 3.68669C10.1846 3.2341 11.3368 3.00113 12.5005 3.00113C13.6641 3.00113 14.8164 3.2341 15.8911 3.68669C16.9659 4.13928 17.9421 4.80259 18.7638 5.63861C19.5854 6.47464 20.2365 7.46696 20.6795 8.55871C21.1226 9.65045 21.349 10.8202 21.3457 12.0008C21.3457 16.4775 22.2688 19.0753 23.0819 20.4951C23.1694 20.6468 23.216 20.8193 23.217 20.9951C23.2179 21.1709 23.1731 21.3439 23.0871 21.4965C23.0012 21.6492 22.877 21.7761 22.7273 21.8646C22.5775 21.953 22.4074 21.9998 22.2341 22.0003H2.76589C2.59259 21.9998 2.42246 21.953 2.27269 21.8645C2.12291 21.7761 1.99877 21.6491 1.9128 21.4964C1.82683 21.3438 1.78207 21.1708 1.78303 20.9949C1.78398 20.8191 1.83063 20.6466 1.91826 20.4949C2.73172 19.075 3.65526 16.4773 3.65526 12.0008Z" stroke="url(#paint0_linear_7041_8267)" stroke-width="2" stroke-linecap="round" stroke-linejoin="round"/>
<defs>
<linearGradient id="paint0_linear_7041_8267" x1="12.5" y1="1" x2="12.5" y2="27" gradientUnits="userSpaceOnUse">
<stop stop-color="#34A1DB"/>
<stop offset="1" stop-color="#212595"/>
</linearGradient>
</defs>
</svg>
