<svg width="30" height="25" viewBox="0 0 30 25" fill="none" xmlns="http://www.w3.org/2000/svg">
<g clip-path="url(#clip0_5530_8847)">
<path d="M27.5 0.570801C28.1875 0.570801 28.776 0.815594 29.2656 1.30518C29.7552 1.79476 30 2.3833 30 3.0708V22.0708C30 22.7583 29.7552 23.3468 29.2656 23.8364C28.776 24.326 28.1875 24.5708 27.5 24.5708H2.49999C1.81249 24.5708 1.22396 24.326 0.734381 23.8364C0.244794 23.3468 0 22.7583 0 22.0708V3.0708C0 2.3833 0.244794 1.79476 0.734381 1.30518C1.22396 0.815594 1.81249 0.570801 2.49999 0.570801H27.5ZM2.49999 2.57081C2.36458 2.57081 2.24739 2.62028 2.14843 2.71923C2.04948 2.8182 2.00001 2.93538 2.00001 3.0708V6.5708H28V3.0708C28 2.93538 27.9505 2.8182 27.8516 2.71923C27.7526 2.62028 27.6354 2.57081 27.5 2.57081H2.49999ZM27.5 22.5708C27.6354 22.5708 27.7526 22.5213 27.8516 22.4224C27.9505 22.3234 28 22.2062 28 22.0708V12.5708H2.00001V22.0708C2.00001 22.2062 2.04948 22.3234 2.14843 22.4224C2.24739 22.5213 2.36458 22.5708 2.49999 22.5708H27.5ZM3.99999 20.5708V18.5708H8.00001V20.5708H3.99999ZM9.99999 20.5708V18.5708H16V20.5708H9.99999Z" fill="url(#paint0_linear_5530_8847)"/>
</g>
<defs>
<linearGradient id="paint0_linear_5530_8847" x1="15" y1="0.570801" x2="15" y2="24.5708" gradientUnits="userSpaceOnUse">
<stop stop-color="#34A1DB"/>
<stop offset="1" stop-color="#212595"/>
</linearGradient>
<clipPath id="clip0_5530_8847">
<rect width="30" height="24" fill="white" transform="translate(0 0.583984)"/>
</clipPath>
</defs>
</svg>
