<svg width="30" height="30" viewBox="0 0 30 30" fill="none" xmlns="http://www.w3.org/2000/svg">
<g clip-path="url(#clip0_5946_27401)">
<path d="M23.7391 8.11976L17.413 21.7502C16.8587 23.1524 15.8804 23.9676 14.8043 23.9676C13.9239 23.9676 13.1739 23.5111 12.75 22.7937C12.2935 21.9459 12.3261 20.9024 12.8804 20.0219L21.163 6.7502C21.587 6.09802 22.4348 5.86976 23.1196 6.22846C23.8043 6.58716 24.0652 7.40237 23.7391 8.11976ZM25.9565 12.0654C25.4674 11.5437 24.6522 11.5111 24.0978 12.0002C23.5761 12.4893 23.5435 13.3045 24.0326 13.8589C26.1848 16.2067 27.3913 19.2719 27.3913 22.5002C27.3913 23.2176 27.9783 23.8045 28.6957 23.8045C29.413 23.8045 30 23.2176 30 22.5002C30 18.6198 28.5652 14.9024 25.9565 12.0654ZM16.0435 9.91324C16.7609 9.97846 17.3804 9.45672 17.4457 8.73933C17.5109 8.02194 16.9891 7.40237 16.2717 7.33716C15.8478 7.30455 15.4239 7.27194 15 7.27194C6.71739 7.27194 0 14.1198 0 22.5328C0 23.2502 0.586957 23.8372 1.30435 23.8372C2.02174 23.8372 2.6087 23.2502 2.6087 22.5328C2.6087 15.5545 8.15217 9.88063 15 9.88063C15.3587 9.84802 15.7174 9.88063 16.0435 9.91324Z" fill="url(#paint0_linear_5946_27401)"/>
</g>
<defs>
<linearGradient id="paint0_linear_5946_27401" x1="15" y1="6.05908" x2="15" y2="23.9676" gradientUnits="userSpaceOnUse">
<stop stop-color="#34A1DB"/>
<stop offset="1" stop-color="#212595"/>
</linearGradient>
<clipPath id="clip0_5946_27401">
<rect width="30" height="30" fill="white"/>
</clipPath>
</defs>
</svg>
