<svg width="30" height="30" viewBox="0 0 30 30" fill="none" xmlns="http://www.w3.org/2000/svg">
<g clip-path="url(#clip0_5946_27077)">
<path d="M5.15625 15C5.15625 17.6107 6.19336 20.1145 8.03942 21.9606C9.88548 23.8066 12.3893 24.8438 15 24.8438V5.15625C12.3893 5.15625 9.88548 6.19336 8.03942 8.03942C6.19336 9.88548 5.15625 12.3893 5.15625 15Z" fill="white"/>
<path d="M15 5.15625V24.8438C17.6107 24.8438 20.1145 23.8066 21.9606 21.9606C23.8066 20.1145 24.8438 17.6107 24.8438 15C24.8438 12.3893 23.8066 9.88548 21.9606 8.03942C20.1145 6.19336 17.6107 5.15625 15 5.15625Z" fill="#29CCFD"/>
<path opacity="0.1" d="M11.25 10.2974H8.4375C8.18886 10.2974 7.9504 10.3961 7.77459 10.572C7.59877 10.7478 7.5 10.9862 7.5 11.2349C7.5 11.4835 7.59877 11.722 7.77459 11.8978C7.9504 12.0736 8.18886 12.1724 8.4375 12.1724H11.25V14.0474H9.375C8.87788 14.0479 8.40128 14.2456 8.04976 14.5971C7.69824 14.9486 7.50053 15.4252 7.5 15.9224V17.7974C7.50053 18.2945 7.69825 18.7711 8.04976 19.1226C8.40128 19.4741 8.87788 19.6718 9.375 19.6724H12.1875C12.4361 19.6724 12.6746 19.5736 12.8504 19.3978C13.0262 19.222 13.125 18.9835 13.125 18.7349C13.125 18.4862 13.0262 18.2478 12.8504 18.0719C12.6746 17.8961 12.4361 17.7974 12.1875 17.7974H9.375V15.9224H11.25C11.7471 15.9218 12.2237 15.7241 12.5752 15.3726C12.9268 15.0211 13.1245 14.5445 13.125 14.0474V12.1724C13.1245 11.6752 12.9268 11.1986 12.5752 10.8471C12.2237 10.4956 11.7471 10.2979 11.25 10.2974ZM19.6875 12.1724C19.4389 12.1724 19.2004 12.2712 19.0246 12.447C18.8488 12.6228 18.75 12.8612 18.75 13.1099V14.0474H16.875V11.2349C16.875 10.9862 16.7762 10.7478 16.6004 10.572C16.4246 10.3961 16.1861 10.2974 15.9375 10.2974C15.6889 10.2974 15.4504 10.3961 15.2746 10.572C15.0988 10.7478 15 10.9862 15 11.2349V14.0474C15.0005 14.5445 15.1982 15.0211 15.5498 15.3726C15.9013 15.7241 16.3779 15.9218 16.875 15.9224H18.75V18.7349C18.75 18.9835 18.8488 19.222 19.0246 19.3978C19.2004 19.5736 19.4389 19.6724 19.6875 19.6724C19.9361 19.6724 20.1746 19.5736 20.3504 19.3978C20.5262 19.222 20.625 18.9835 20.625 18.7349V13.1099C20.625 12.8612 20.5262 12.6228 20.3504 12.447C20.1746 12.2712 19.9361 12.1724 19.6875 12.1724Z" fill="url(#paint0_linear_5946_27077)"/>
<path opacity="0.1" d="M24.8297 14.4937C24.6991 11.9745 23.6067 9.60135 21.7777 7.86393C19.9487 6.12651 17.5226 5.15731 15 5.15625C14.6812 5.15625 9.60466 6.07969 14.0625 6.07969C16.4246 6.07969 18.6899 7.01802 20.3601 8.68827C22.0304 10.3585 22.9687 12.6239 22.9687 14.9859C22.9687 17.348 22.0304 19.6134 20.3601 21.2836C18.6899 22.9539 16.4246 23.8922 14.0625 23.8922C9.32341 23.8922 9.73123 24.8438 15 24.8438C16.3345 24.841 17.6545 24.5675 18.8802 24.0397C20.1059 23.5119 21.2117 22.7409 22.1307 21.7732C23.0497 20.8056 23.7627 19.6615 24.2267 18.4103C24.6906 17.159 24.8957 15.8266 24.8297 14.4937Z" fill="url(#paint1_linear_5946_27077)"/>
<path d="M29.2966 4.96289C29.1774 4.93192 29.0532 4.92478 28.9313 4.94188C28.8093 4.95898 28.6919 4.99999 28.5858 5.06254C28.4797 5.12509 28.387 5.20797 28.313 5.30642C28.2389 5.40486 28.1851 5.51695 28.1545 5.63625L27.8789 6.70376C26.6058 4.77669 24.9041 3.17032 22.9069 2.01032C20.9098 0.850319 18.6713 0.168159 16.3666 0.0172079C16.1185 0.000696314 15.874 0.083416 15.6869 0.24717C15.4998 0.410923 15.3854 0.642297 15.3689 0.890391C15.3524 1.13848 15.4351 1.38298 15.5989 1.57008C15.7626 1.75719 15.994 1.87158 16.2421 1.88809C18.6231 2.04804 20.9156 2.85343 22.8735 4.21779C24.8314 5.58215 26.3807 7.45397 27.3552 9.63231C27.6961 10.387 28.9129 10.4668 29.1547 9.26059L29.97 6.105C30.0321 5.86425 29.9961 5.60868 29.8698 5.3945C29.7435 5.18032 29.5373 5.02506 29.2966 4.96289ZM13.7579 28.1119C11.3769 27.952 9.08438 27.1466 7.12649 25.7822C5.1686 24.4179 3.61925 22.546 2.64476 20.3677C2.30388 19.613 1.08711 19.5332 0.845294 20.7394L0.0300162 23.895C-0.0321439 24.1357 0.00387788 24.3913 0.130157 24.6055C0.256437 24.8197 0.462629 24.9749 0.703376 25.0371C0.944122 25.0993 1.1997 25.0632 1.41389 24.937C1.62807 24.8107 1.78332 24.6045 1.84548 24.3638L2.12108 23.2962C3.39415 25.2233 5.09585 26.8297 7.09303 27.9897C9.0902 29.1497 11.3287 29.8318 13.6334 29.9828C13.8815 29.9993 14.126 29.9166 14.3131 29.7528C14.5002 29.5891 14.6146 29.3577 14.6311 29.1096C14.6476 28.8615 14.5649 28.617 14.4011 28.4299C14.2374 28.2428 14.006 28.1284 13.7579 28.1119ZM12.1875 10.2972H9.37499C9.12635 10.2972 8.88789 10.396 8.71208 10.5718C8.53626 10.7476 8.43749 10.9861 8.43749 11.2347C8.43749 11.4833 8.53626 11.7218 8.71208 11.8976C8.88789 12.0734 9.12635 12.1722 9.37499 12.1722H12.1875V14.0472H10.3125C9.81537 14.0477 9.33876 14.2455 8.98725 14.597C8.63573 14.9485 8.43802 15.4251 8.43749 15.9222V17.7972C8.43802 18.2943 8.63573 18.7709 8.98725 19.1224C9.33877 19.474 9.81537 19.6717 10.3125 19.6722H13.125C13.3736 19.6722 13.6121 19.5734 13.7879 19.3976C13.9637 19.2218 14.0625 18.9834 14.0625 18.7347C14.0625 18.4861 13.9637 18.2476 13.7879 18.0718C13.6121 17.896 13.3736 17.7972 13.125 17.7972H10.3125V15.9222H12.1875C12.6846 15.9217 13.1612 15.724 13.5127 15.3724C13.8642 15.0209 14.062 14.5443 14.0625 14.0472V12.1722C14.062 11.6751 13.8642 11.1985 13.5127 10.847C13.1612 10.4955 12.6846 10.2977 12.1875 10.2972ZM20.625 12.1722C20.3764 12.1722 20.1379 12.271 19.9621 12.4468C19.7863 12.6226 19.6875 12.8611 19.6875 13.1097V14.0472H17.8125V11.2347C17.8125 10.9861 17.7137 10.7476 17.5379 10.5718C17.3621 10.396 17.1236 10.2972 16.875 10.2972C16.6263 10.2972 16.3879 10.396 16.2121 10.5718C16.0363 10.7476 15.9375 10.9861 15.9375 11.2347V14.0472C15.938 14.5443 16.1357 15.0209 16.4872 15.3724C16.8388 15.724 17.3154 15.9217 17.8125 15.9222H19.6875V18.7347C19.6875 18.9834 19.7863 19.2218 19.9621 19.3976C20.1379 19.5734 20.3763 19.6722 20.625 19.6722C20.8736 19.6722 21.1121 19.5734 21.2879 19.3976C21.4637 19.2218 21.5625 18.9834 21.5625 18.7347V13.1097C21.5625 12.8611 21.4637 12.6226 21.2879 12.4468C21.1121 12.271 20.8736 12.1722 20.625 12.1722Z" fill="url(#paint2_linear_5946_27077)"/>
<path d="M15 4.20361C12.8677 4.20361 10.7832 4.83592 9.01026 6.02058C7.2373 7.20524 5.85544 8.88904 5.03943 10.8591C4.22342 12.8291 4.00992 14.9968 4.42591 17.0882C4.84191 19.1795 5.86872 21.1006 7.37651 22.6084C8.88429 24.1161 10.8053 25.143 12.8967 25.559C14.988 25.975 17.1558 25.7614 19.1258 24.9454C21.0958 24.1294 22.7796 22.7476 23.9643 20.9746C25.1489 19.2016 25.7813 17.1172 25.7813 14.9849C25.778 12.1265 24.6411 9.3861 22.62 7.36491C20.5988 5.34373 17.8584 4.20682 15 4.20361ZM15 23.8911C13.2385 23.8911 11.5166 23.3688 10.052 22.3901C8.58733 21.4115 7.4458 20.0205 6.7717 18.3931C6.09761 16.7657 5.92124 14.975 6.26489 13.2473C6.60854 11.5197 7.45677 9.93275 8.70234 8.68719C9.9479 7.44163 11.5348 6.59339 13.2625 6.24974C14.9901 5.90609 16.7809 6.08247 18.4083 6.75656C20.0357 7.43065 21.4267 8.57219 22.4053 10.0368C23.3839 11.5014 23.9063 13.2234 23.9063 14.9849C23.9036 17.3461 22.9644 19.6099 21.2947 21.2796C19.625 22.9492 17.3613 23.8884 15 23.8911Z" fill="url(#paint3_linear_5946_27077)"/>
<path d="M20.9625 28.6626C21.4803 28.6626 21.9 28.2429 21.9 27.7251C21.9 27.2073 21.4803 26.7876 20.9625 26.7876C20.4448 26.7876 20.025 27.2073 20.025 27.7251C20.025 28.2429 20.4448 28.6626 20.9625 28.6626Z" fill="url(#paint4_linear_5946_27077)"/>
<path d="M12.6 2.06152C13.1177 2.06152 13.5375 1.64179 13.5375 1.12402C13.5375 0.606256 13.1177 0.186523 12.6 0.186523C12.0822 0.186523 11.6625 0.606256 11.6625 1.12402C11.6625 1.64179 12.0822 2.06152 12.6 2.06152Z" fill="url(#paint5_linear_5946_27077)"/>
<path d="M9.03748 3.18164C9.55524 3.18164 9.97498 2.76191 9.97498 2.24414C9.97498 1.72637 9.55524 1.30664 9.03748 1.30664C8.51971 1.30664 8.09998 1.72637 8.09998 2.24414C8.09998 2.76191 8.51971 3.18164 9.03748 3.18164Z" fill="url(#paint6_linear_5946_27077)"/>
<path d="M17.3953 29.7832C17.913 29.7832 18.3328 29.3635 18.3328 28.8457C18.3328 28.3279 17.913 27.9082 17.3953 27.9082C16.8775 27.9082 16.4578 28.3279 16.4578 28.8457C16.4578 29.3635 16.8775 29.7832 17.3953 29.7832Z" fill="url(#paint7_linear_5946_27077)"/>
</g>
<defs>
<linearGradient id="paint0_linear_5946_27077" x1="14.0625" y1="10.2974" x2="14.0625" y2="19.6724" gradientUnits="userSpaceOnUse">
<stop stop-color="#34A1DB"/>
<stop offset="1" stop-color="#212595"/>
</linearGradient>
<linearGradient id="paint1_linear_5946_27077" x1="17.8016" y1="5.15625" x2="17.8016" y2="24.8438" gradientUnits="userSpaceOnUse">
<stop stop-color="#34A1DB"/>
<stop offset="1" stop-color="#212595"/>
</linearGradient>
<linearGradient id="paint2_linear_5946_27077" x1="15" y1="0.0151367" x2="15" y2="29.9849" gradientUnits="userSpaceOnUse">
<stop stop-color="#34A1DB"/>
<stop offset="1" stop-color="#212595"/>
</linearGradient>
<linearGradient id="paint3_linear_5946_27077" x1="15" y1="4.20361" x2="15" y2="25.7661" gradientUnits="userSpaceOnUse">
<stop stop-color="#34A1DB"/>
<stop offset="1" stop-color="#212595"/>
</linearGradient>
<linearGradient id="paint4_linear_5946_27077" x1="20.9625" y1="26.7876" x2="20.9625" y2="28.6626" gradientUnits="userSpaceOnUse">
<stop stop-color="#34A1DB"/>
<stop offset="1" stop-color="#212595"/>
</linearGradient>
<linearGradient id="paint5_linear_5946_27077" x1="12.6" y1="0.186523" x2="12.6" y2="2.06152" gradientUnits="userSpaceOnUse">
<stop stop-color="#34A1DB"/>
<stop offset="1" stop-color="#212595"/>
</linearGradient>
<linearGradient id="paint6_linear_5946_27077" x1="9.03748" y1="1.30664" x2="9.03748" y2="3.18164" gradientUnits="userSpaceOnUse">
<stop stop-color="#34A1DB"/>
<stop offset="1" stop-color="#212595"/>
</linearGradient>
<linearGradient id="paint7_linear_5946_27077" x1="17.3953" y1="27.9082" x2="17.3953" y2="29.7832" gradientUnits="userSpaceOnUse">
<stop stop-color="#34A1DB"/>
<stop offset="1" stop-color="#212595"/>
</linearGradient>
<clipPath id="clip0_5946_27077">
<rect width="30" height="30" fill="white"/>
</clipPath>
</defs>
</svg>
