<svg width="25" height="30" viewBox="0 0 25 30" fill="none" xmlns="http://www.w3.org/2000/svg">
<path d="M16.3636 23.1818H1.36364V5.45455H16.3636V7.44545H17.7273V2.72727C17.7273 2.00396 17.4399 1.31026 16.9285 0.7988C16.417 0.287337 15.7233 0 15 0H2.72727C2.00396 0 1.31026 0.287337 0.7988 0.7988C0.287337 1.31026 0 2.00396 0 2.72727V27.2727C0 27.996 0.287337 28.6897 0.7988 29.2012C1.31026 29.7127 2.00396 30 2.72727 30H15C15.7233 30 16.417 29.7127 16.9285 29.2012C17.4399 28.6897 17.7273 27.996 17.7273 27.2727V21.0818H16.3636V23.1818ZM2.72727 1.36364H15C15.3617 1.36364 15.7085 1.5073 15.9642 1.76304C16.22 2.01877 16.3636 2.36561 16.3636 2.72727V4.09091H1.36364V2.72727C1.36364 2.36561 1.50731 2.01877 1.76304 1.76304C2.01877 1.5073 2.36561 1.36364 2.72727 1.36364ZM15 28.6364H2.72727C2.36561 28.6364 2.01877 28.4927 1.76304 28.237C1.50731 27.9812 1.36364 27.6344 1.36364 27.2727V24.5455H16.3636V27.2727C16.3636 27.6344 16.22 27.9812 15.9642 28.237C15.7085 28.4927 15.3617 28.6364 15 28.6364ZM10.9091 3.40909H6.81818V2.04545H10.9091V3.40909ZM6.81818 25.9091H10.9091V27.2727H6.81818V25.9091ZM22.5 8.86364H9.54545V8.18182H8.18182V20.4545H9.54545V19.7727H22.5C23.0425 19.7727 23.5628 19.5572 23.9464 19.1736C24.33 18.79 24.5455 18.2698 24.5455 17.7273V10.9091C24.5455 10.3666 24.33 9.84633 23.9464 9.46274C23.5628 9.07914 23.0425 8.86364 22.5 8.86364ZM22.5 10.2273C22.6808 10.2273 22.8543 10.2991 22.9821 10.427C23.11 10.5548 23.1818 10.7283 23.1818 10.9091V11.5909H9.54545V10.2273H22.5ZM22.5 18.4091H9.54545V12.9545H23.1818V17.7273C23.1818 17.9081 23.11 18.0815 22.9821 18.2094C22.8543 18.3373 22.6808 18.4091 22.5 18.4091ZM17.7273 15.6818H21.8182V17.0455H17.7273V15.6818ZM10.9091 15.6818H15V17.0455H10.9091V15.6818Z" fill="url(#paint0_linear_5946_27037)"/>
<defs>
<linearGradient id="paint0_linear_5946_27037" x1="3.76904" y1="-7.22838e-07" x2="29.6035" y2="3.35238" gradientUnits="userSpaceOnUse">
<stop offset="0.06" stop-color="#003191"/>
<stop offset="1" stop-color="#00AEEF"/>
</linearGradient>
</defs>
</svg>
