<svg width="35" height="35" viewBox="0 0 35 35" fill="none" xmlns="http://www.w3.org/2000/svg">
<path d="M20.4167 0H11.6667C11.0865 0 10.5301 0.230468 10.1199 0.640704C9.70963 1.05094 9.47917 1.60734 9.47917 2.1875V8.02083C9.47917 8.60099 9.70963 9.15739 10.1199 9.56763C10.5301 9.97787 11.0865 10.2083 11.6667 10.2083H20.4167C20.9968 10.2083 21.5532 9.97787 21.9635 9.56763C22.3737 9.15739 22.6042 8.60099 22.6042 8.02083V2.1875C22.6042 1.60734 22.3737 1.05094 21.9635 0.640704C21.5532 0.230468 20.9968 0 20.4167 0ZM21.1458 8.02083C21.1458 8.21422 21.069 8.39969 20.9323 8.53643C20.7955 8.67318 20.6101 8.75 20.4167 8.75H11.6667C11.4733 8.75 11.2878 8.67318 11.1511 8.53643C11.0143 8.39969 10.9375 8.21422 10.9375 8.02083V2.1875C10.9375 1.99411 11.0143 1.80865 11.1511 1.6719C11.2878 1.53516 11.4733 1.45833 11.6667 1.45833H20.4167C20.6101 1.45833 20.7955 1.53516 20.9323 1.6719C21.069 1.80865 21.1458 1.99411 21.1458 2.1875V8.02083ZM20.4167 12.3958H11.6667C11.0865 12.3958 10.5301 12.6263 10.1199 13.0365C9.70963 13.4468 9.47917 14.0032 9.47917 14.5833V20.4167C9.47917 20.9968 9.70963 21.5532 10.1199 21.9635C10.5301 22.3737 11.0865 22.6042 11.6667 22.6042H20.4167C20.9968 22.6042 21.5532 22.3737 21.9635 21.9635C22.3737 21.5532 22.6042 20.9968 22.6042 20.4167V14.5833C22.6042 14.0032 22.3737 13.4468 21.9635 13.0365C21.5532 12.6263 20.9968 12.3958 20.4167 12.3958ZM21.1458 20.4167C21.1458 20.6101 21.069 20.7955 20.9323 20.9323C20.7955 21.069 20.6101 21.1458 20.4167 21.1458H11.6667C11.4733 21.1458 11.2878 21.069 11.1511 20.9323C11.0143 20.7955 10.9375 20.6101 10.9375 20.4167V14.5833C10.9375 14.3899 11.0143 14.2045 11.1511 14.0677C11.2878 13.931 11.4733 13.8542 11.6667 13.8542H20.4167C20.6101 13.8542 20.7955 13.931 20.9323 14.0677C21.069 14.2045 21.1458 14.3899 21.1458 14.5833V20.4167ZM20.4167 24.7917H11.6667C11.0865 24.7917 10.5301 25.0221 10.1199 25.4324C9.70963 25.8426 9.47917 26.399 9.47917 26.9792V32.8125C9.47917 33.3927 9.70963 33.9491 10.1199 34.3593C10.5301 34.7695 11.0865 35 11.6667 35H20.4167C20.9968 35 21.5532 34.7695 21.9635 34.3593C22.3737 33.9491 22.6042 33.3927 22.6042 32.8125V26.9792C22.6042 26.399 22.3737 25.8426 21.9635 25.4324C21.5532 25.0221 20.9968 24.7917 20.4167 24.7917ZM21.1458 32.8125C21.1458 33.0059 21.069 33.1914 20.9323 33.3281C20.7955 33.4648 20.6101 33.5417 20.4167 33.5417H11.6667C11.4733 33.5417 11.2878 33.4648 11.1511 33.3281C11.0143 33.1914 10.9375 33.0059 10.9375 32.8125V26.9792C10.9375 26.7858 11.0143 26.6003 11.1511 26.4636C11.2878 26.3268 11.4733 26.25 11.6667 26.25H20.4167C20.6101 26.25 20.7955 26.3268 20.9323 26.4636C21.069 26.6003 21.1458 26.7858 21.1458 26.9792V32.8125ZM24.7917 4.375C24.5983 4.375 24.4128 4.45182 24.2761 4.58857C24.1393 4.72531 24.0625 4.91078 24.0625 5.10417C24.0625 5.29755 24.1393 5.48302 24.2761 5.61977C24.4128 5.75651 24.5983 5.83333 24.7917 5.83333C31.7042 5.83333 32.5792 14.7073 26.7896 16.5229C26.9062 16.3802 26.9645 16.1986 26.9527 16.0146C26.9408 15.8307 26.8598 15.6581 26.7258 15.5315C26.5918 15.4049 26.4148 15.3337 26.2305 15.3323C26.0462 15.3309 25.8682 15.3994 25.7323 15.524C24.3323 16.9313 24.201 17.026 24.1208 17.2229C24.065 17.3557 24.0497 17.5021 24.077 17.6435C24.1042 17.785 24.1728 17.9152 24.274 18.0177C25.8635 19.6073 25.8563 19.6875 26.25 19.6875C26.3948 19.6883 26.5366 19.646 26.6573 19.566C26.778 19.4859 26.8721 19.3717 26.9277 19.238C26.9832 19.1042 26.9977 18.9569 26.9692 18.8149C26.9407 18.6729 26.8705 18.5426 26.7677 18.4406L26.4323 18.1125C28.0195 17.8122 29.4523 16.9677 30.4838 15.7246C31.5153 14.4814 32.081 12.9174 32.0833 11.3021C32.0833 7.75833 29.3708 4.375 24.7917 4.375ZM7.29167 18.2292C7.48505 18.2292 7.67052 18.1523 7.80727 18.0156C7.94401 17.8789 8.02083 17.6934 8.02083 17.5C8.02083 17.3066 7.94401 17.1211 7.80727 16.9844C7.67052 16.8477 7.48505 16.7708 7.29167 16.7708C2.66875 16.7708 0 20.1979 0 23.6979C0.00237754 25.3133 0.568046 26.8772 1.59956 28.1204C2.63107 29.3635 4.06384 30.208 5.65104 30.5083L5.31563 30.8365C5.17832 30.9738 5.10118 31.16 5.10118 31.3542C5.10118 31.5483 5.17832 31.7346 5.31563 31.8719C5.45293 32.0092 5.63916 32.0863 5.83333 32.0863C6.02751 32.0863 6.21374 32.0092 6.35104 31.8719C8.59688 29.6187 8.59688 30.1656 6.35104 27.9198C6.21516 27.7952 6.03715 27.7268 5.85283 27.7282C5.6685 27.7296 5.49155 27.8007 5.35756 27.9273C5.22358 28.0539 5.14251 28.2265 5.13067 28.4105C5.11883 28.5944 5.1771 28.776 5.29375 28.9188C4.01527 28.518 2.92806 27.6625 2.2379 26.5142C1.54774 25.3658 1.30252 24.0043 1.54868 22.6873C1.79483 21.3703 2.51526 20.1892 3.5736 19.3677C4.63195 18.5461 5.95477 18.141 7.29167 18.2292ZM6.35104 2.39896C6.21374 2.26165 6.02751 2.18452 5.83333 2.18452C5.63916 2.18452 5.45293 2.26165 5.31563 2.39896C5.17832 2.53626 5.10118 2.72249 5.10118 2.91667C5.10118 3.11085 5.17832 3.29707 5.31563 3.43438C5.60729 3.71875 6.20521 3.64583 2.1875 3.64583C1.99411 3.64583 1.80865 3.72266 1.6719 3.8594C1.53516 3.99615 1.45833 4.18161 1.45833 4.375C1.45833 4.56839 1.53516 4.75385 1.6719 4.8906C1.80865 5.02734 1.99411 5.10417 2.1875 5.10417C6.04479 5.10417 5.62188 5.00937 5.31563 5.31562C5.17832 5.45293 5.10118 5.63916 5.10118 5.83333C5.10118 6.02751 5.17832 6.21374 5.31563 6.35104C5.45293 6.48835 5.63916 6.56548 5.83333 6.56548C6.02751 6.56548 6.21374 6.48835 6.35104 6.35104C8.58958 4.10521 8.58229 4.6375 6.35104 2.39896Z" fill="url(#paint0_linear_7041_8231)"/>
<path d="M31.9901 31.0235C31.5445 31.0265 31.1114 31.1715 30.7538 31.4374C30.4783 30.6118 29.9181 29.9111 29.1734 29.4606C28.4287 29.0101 27.5481 28.8392 26.6889 28.9784C25.8298 29.1176 25.0481 29.5579 24.4838 30.2204C23.9194 30.883 23.6091 31.7247 23.6084 32.5951V34.6905H34.0855V33.1189C34.0855 32.5632 33.8648 32.0302 33.4718 31.6373C33.0788 31.2443 32.5459 31.0235 31.9901 31.0235ZM29.8947 33.6428H24.6561V32.5951C24.6561 31.9004 24.9321 31.2342 25.4233 30.743C25.9145 30.2518 26.5807 29.9758 27.2754 29.9758C27.9701 29.9758 28.6363 30.2518 29.1275 30.743C29.6187 31.2342 29.8947 31.9004 29.8947 32.5951V33.6428ZM33.0378 33.6428H30.9424V33.1189C30.9424 32.8411 31.0528 32.5746 31.2493 32.3781C31.4457 32.1816 31.7122 32.0712 31.9901 32.0712C32.268 32.0712 32.5345 32.1816 32.731 32.3781C32.9274 32.5746 33.0378 32.8411 33.0378 33.1189V33.6428ZM25.18 26.3088C25.18 26.7232 25.3029 27.1284 25.5331 27.473C25.7634 27.8176 26.0906 28.0861 26.4735 28.2447C26.8564 28.4033 27.2777 28.4448 27.6842 28.364C28.0907 28.2831 28.464 28.0835 28.7571 27.7905C29.0501 27.4974 29.2497 27.1241 29.3306 26.7176C29.4114 26.3111 29.3699 25.8898 29.2113 25.5069C29.0527 25.124 28.7841 24.7968 28.4396 24.5665C28.095 24.3363 27.6898 24.2134 27.2754 24.2134C26.7197 24.2134 26.1867 24.4341 25.7937 24.8271C25.4007 25.2201 25.18 25.7531 25.18 26.3088ZM28.3231 26.3088C28.3231 26.516 28.2617 26.7186 28.1465 26.8909C28.0314 27.0632 27.8678 27.1975 27.6763 27.2768C27.4849 27.3561 27.2742 27.3768 27.071 27.3364C26.8678 27.296 26.6811 27.1962 26.5346 27.0497C26.388 26.9031 26.2882 26.7164 26.2478 26.5132C26.2074 26.31 26.2281 26.0993 26.3074 25.9079C26.3867 25.7164 26.521 25.5528 26.6933 25.4377C26.8656 25.3225 27.0682 25.2611 27.2754 25.2611C27.5533 25.2611 27.8198 25.3715 28.0162 25.568C28.2127 25.7644 28.3231 26.0309 28.3231 26.3088Z" fill="url(#paint1_linear_7041_8231)"/>
<path d="M30.4189 28.9285C30.4189 29.2393 30.5111 29.5432 30.6838 29.8016C30.8565 30.0601 31.1019 30.2615 31.3891 30.3804C31.6763 30.4994 31.9923 30.5305 32.2971 30.4699C32.602 30.4092 32.882 30.2596 33.1018 30.0398C33.3216 29.82 33.4713 29.54 33.5319 29.2351C33.5925 28.9302 33.5614 28.6143 33.4425 28.3271C33.3235 28.0399 33.1221 27.7945 32.8636 27.6218C32.6052 27.4491 32.3013 27.3569 31.9905 27.3569C31.5737 27.3569 31.174 27.5225 30.8792 27.8172C30.5845 28.112 30.4189 28.5117 30.4189 28.9285ZM32.5144 28.9285C32.5144 29.0321 32.4837 29.1334 32.4261 29.2195C32.3685 29.3057 32.2867 29.3728 32.191 29.4125C32.0953 29.4521 31.9899 29.4625 31.8883 29.4423C31.7867 29.4221 31.6934 29.3722 31.6201 29.2989C31.5468 29.2257 31.4969 29.1323 31.4767 29.0307C31.4565 28.9291 31.4669 28.8238 31.5065 28.728C31.5462 28.6323 31.6133 28.5505 31.6995 28.4929C31.7856 28.4354 31.8869 28.4046 31.9905 28.4046C32.1295 28.4046 32.2627 28.4598 32.3609 28.5581C32.4592 28.6563 32.5144 28.7896 32.5144 28.9285Z" fill="url(#paint2_linear_7041_8231)"/>
<path d="M18.958 2.9165H13.1247C12.9313 2.9165 12.7458 2.99333 12.6091 3.13007C12.4723 3.26682 12.3955 3.45228 12.3955 3.64567C12.3955 3.83906 12.4723 4.02452 12.6091 4.16127C12.7458 4.29801 12.9313 4.37484 13.1247 4.37484H18.958C19.1514 4.37484 19.3369 4.29801 19.4736 4.16127C19.6104 4.02452 19.6872 3.83906 19.6872 3.64567C19.6872 3.45228 19.6104 3.26682 19.4736 3.13007C19.3369 2.99333 19.1514 2.9165 18.958 2.9165ZM17.4997 5.83317H13.1247C12.9313 5.83317 12.7458 5.90999 12.6091 6.04674C12.4723 6.18348 12.3955 6.36895 12.3955 6.56234C12.3955 6.75572 12.4723 6.94119 12.6091 7.07794C12.7458 7.21468 12.9313 7.2915 13.1247 7.2915H17.4997C17.6931 7.2915 17.8785 7.21468 18.0153 7.07794C18.152 6.94119 18.2288 6.75572 18.2288 6.56234C18.2288 6.36895 18.152 6.18348 18.0153 6.04674C17.8785 5.90999 17.6931 5.83317 17.4997 5.83317ZM18.958 15.3123H13.1247C12.9313 15.3123 12.7458 15.3892 12.6091 15.5259C12.4723 15.6627 12.3955 15.8481 12.3955 16.0415C12.3955 16.2349 12.4723 16.4204 12.6091 16.5571C12.7458 16.6938 12.9313 16.7707 13.1247 16.7707H18.958C19.1514 16.7707 19.3369 16.6938 19.4736 16.5571C19.6104 16.4204 19.6872 16.2349 19.6872 16.0415C19.6872 15.8481 19.6104 15.6627 19.4736 15.5259C19.3369 15.3892 19.1514 15.3123 18.958 15.3123ZM17.4997 18.229H13.1247C12.9313 18.229 12.7458 18.3058 12.6091 18.4426C12.4723 18.5793 12.3955 18.7648 12.3955 18.9582C12.3955 19.1516 12.4723 19.337 12.6091 19.4738C12.7458 19.6105 12.9313 19.6873 13.1247 19.6873H17.4997C17.6931 19.6873 17.8785 19.6105 18.0153 19.4738C18.152 19.337 18.2288 19.1516 18.2288 18.9582C18.2288 18.7648 18.152 18.5793 18.0153 18.4426C17.8785 18.3058 17.6931 18.229 17.4997 18.229ZM18.958 27.7082H13.1247C12.9313 27.7082 12.7458 27.785 12.6091 27.9217C12.4723 28.0585 12.3955 28.244 12.3955 28.4373C12.3955 28.6307 12.4723 28.8162 12.6091 28.9529C12.7458 29.0897 12.9313 29.1665 13.1247 29.1665H18.958C19.1514 29.1665 19.3369 29.0897 19.4736 28.9529C19.6104 28.8162 19.6872 28.6307 19.6872 28.4373C19.6872 28.244 19.6104 28.0585 19.4736 27.9217C19.3369 27.785 19.1514 27.7082 18.958 27.7082ZM17.4997 30.6248H13.1247C12.9313 30.6248 12.7458 30.7017 12.6091 30.8384C12.4723 30.9752 12.3955 31.1606 12.3955 31.354C12.3955 31.5474 12.4723 31.7329 12.6091 31.8696C12.7458 32.0064 12.9313 32.0832 13.1247 32.0832H17.4997C17.6931 32.0832 17.8785 32.0064 18.0153 31.8696C18.152 31.7329 18.2288 31.5474 18.2288 31.354C18.2288 31.1606 18.152 30.9752 18.0153 30.8384C17.8785 30.7017 17.6931 30.6248 17.4997 30.6248Z" fill="url(#paint3_linear_7041_8231)"/>
<defs>
<linearGradient id="paint0_linear_7041_8231" x1="16.0417" y1="0" x2="16.0417" y2="35" gradientUnits="userSpaceOnUse">
<stop stop-color="#34A1DB"/>
<stop offset="1" stop-color="#212595"/>
</linearGradient>
<linearGradient id="paint1_linear_7041_8231" x1="28.847" y1="24.2134" x2="28.847" y2="34.6905" gradientUnits="userSpaceOnUse">
<stop stop-color="#34A1DB"/>
<stop offset="1" stop-color="#212595"/>
</linearGradient>
<linearGradient id="paint2_linear_7041_8231" x1="31.9905" y1="27.3569" x2="31.9905" y2="30.5001" gradientUnits="userSpaceOnUse">
<stop stop-color="#34A1DB"/>
<stop offset="1" stop-color="#212595"/>
</linearGradient>
<linearGradient id="paint3_linear_7041_8231" x1="16.0413" y1="2.9165" x2="16.0413" y2="32.0832" gradientUnits="userSpaceOnUse">
<stop stop-color="#34A1DB"/>
<stop offset="1" stop-color="#212595"/>
</linearGradient>
</defs>
</svg>
