<svg width="18" height="17" viewBox="0 0 18 17" fill="none" xmlns="http://www.w3.org/2000/svg">
<circle cx="9.13237" cy="8.53032" r="8.30473" fill="#0062B6"/>
<path fill-rule="evenodd" clip-rule="evenodd" d="M8.43201 13.4331C8.43201 13.6188 8.5058 13.797 8.63715 13.9284C8.76851 14.0597 8.94666 14.1335 9.13243 14.1335C9.31819 14.1335 9.49635 14.0597 9.6277 13.9284C9.75906 13.797 9.83285 13.6188 9.83285 13.4331V9.23055H14.0354C14.2211 9.23055 14.3993 9.15676 14.5307 9.02541C14.662 8.89405 14.7358 8.7159 14.7358 8.53013C14.7358 8.34437 14.662 8.16621 14.5307 8.03486C14.3993 7.90351 14.2211 7.82971 14.0354 7.82971H9.83285V3.62718C9.83285 3.44142 9.75906 3.26326 9.6277 3.13191C9.49635 3.00055 9.31819 2.92676 9.13243 2.92676C8.94666 2.92676 8.76851 3.00055 8.63715 3.13191C8.5058 3.26326 8.43201 3.44142 8.43201 3.62718V7.82971H4.22947C4.04371 7.82971 3.86556 7.90351 3.7342 8.03486C3.60285 8.16621 3.52905 8.34437 3.52905 8.53013C3.52905 8.7159 3.60285 8.89405 3.7342 9.02541C3.86556 9.15676 4.04371 9.23055 4.22947 9.23055H8.43201V13.4331Z" fill="white"/>
</svg>
