<svg width="27" height="26" viewBox="0 0 27 26" fill="none" xmlns="http://www.w3.org/2000/svg">
<path d="M13.7387 16.8454C15.8494 16.8454 17.5603 15.1344 17.5603 13.0238C17.5603 10.9131 15.8494 9.20215 13.7387 9.20215C11.628 9.20215 9.91711 10.9131 9.91711 13.0238C9.91711 15.1344 11.628 16.8454 13.7387 16.8454Z" stroke="#2A8FD3" stroke-width="0.95301" stroke-miterlimit="10" stroke-linecap="round" stroke-linejoin="round"/>
<path d="M1 14.1449V11.9029C1 10.5781 2.08279 9.48258 3.42035 9.48258C5.72606 9.48258 6.66872 7.85202 5.5095 5.85205C4.84709 4.70556 5.24199 3.21513 6.40121 2.55272L8.60501 1.29159C9.61136 0.692872 10.9107 1.04956 11.5094 2.05591L11.6496 2.29795C12.796 4.29792 14.6814 4.29792 15.8406 2.29795L15.9807 2.05591C16.5794 1.04956 17.8788 0.692872 18.8851 1.29159L21.0889 2.55272C22.2482 3.21513 22.6431 4.70556 21.9806 5.85205C20.8214 7.85202 21.7641 9.48258 24.0698 9.48258C25.3946 9.48258 26.4901 10.5653 26.4901 11.9029V14.1449C26.4901 15.4697 25.4074 16.5652 24.0698 16.5652C21.7641 16.5652 20.8214 18.1958 21.9806 20.1958C22.6431 21.355 22.2482 22.8327 21.0889 23.4951L18.8851 24.7562C17.8788 25.355 16.5794 24.9983 15.9807 23.9919L15.8406 23.7499C14.6941 21.7499 12.8088 21.7499 11.6496 23.7499L11.5094 23.9919C10.9107 24.9983 9.61136 25.355 8.60501 24.7562L6.40121 23.4951C5.24199 22.8327 4.84709 21.3423 5.5095 20.1958C6.66872 18.1958 5.72606 16.5652 3.42035 16.5652C2.08279 16.5652 1 15.4697 1 14.1449Z" stroke="#2A8FD3" stroke-width="0.95301" stroke-miterlimit="10" stroke-linecap="round" stroke-linejoin="round"/>
</svg>
