<svg width="28" height="28" viewBox="0 0 28 28" fill="none" xmlns="http://www.w3.org/2000/svg">
<g clip-path="url(#clip0_5946_27040)">
<path d="M14.5276 13.9073L14.5276 13.9074L14.5355 13.9102C14.7069 13.9697 14.8631 14.0523 14.998 14.1532C15.1215 14.2577 15.2164 14.3787 15.28 14.508C15.3443 14.6388 15.376 14.7767 15.375 14.9143L15.375 14.9178C15.376 15.0553 15.3443 15.1932 15.28 15.324C15.2158 15.4547 15.1195 15.5769 14.994 15.6822C14.8671 15.7866 14.7143 15.8711 14.5435 15.9291C14.3724 15.9871 14.188 16.0169 14.0012 16.016V16.0159L13.9946 16.0161C13.8135 16.02 13.6349 15.9884 13.4737 15.9253L13.4665 15.9224L13.4592 15.9201C13.2877 15.8648 13.1334 15.7829 13.0043 15.6808C12.8797 15.5759 12.784 15.4542 12.72 15.324C12.6557 15.1932 12.624 15.0553 12.625 14.9178L12.6252 14.9178L12.6249 14.9084C12.6206 14.7673 12.6505 14.6255 12.7148 14.4911C12.7776 14.3598 12.8724 14.2369 12.9966 14.1307L13.2082 13.9901L13.4641 13.8838L13.7246 13.8117C13.999 13.7776 14.2786 13.8114 14.5276 13.9073ZM26.6525 10.4205V10.4692L26.6708 10.5143C26.7089 10.6086 26.7354 10.7052 26.75 10.8028V10.803V10.8034V10.8038V10.8042V10.8046V10.8049V10.8053V10.8057V10.8061V10.8065V10.8069V10.8073V10.8077V10.808V10.8084V10.8088V10.8092V10.8095V10.8099V10.8103V10.8107V10.811V10.8114V10.8118V10.8121V10.8125V10.8128V10.8132V10.8135V10.8139V10.8143V10.8146V10.815V10.8153V10.8157V10.816V10.8163V10.8167V10.817V10.8174V10.8177V10.818V10.8184V10.8187V10.819V10.8194V10.8197V10.82V10.8203V10.8207V10.821V10.8213V10.8216V10.8219V10.8223V10.8226V10.8229V10.8232V10.8235V10.8238V10.8241V10.8244V10.8247V10.825V10.8253V10.8256V10.8259V10.8262V10.8265V10.8268V10.8271V10.8274V10.8277V10.828V10.8283V10.8285V10.8288V10.8291V10.8294V10.8297V10.8299V10.8302V10.8305V10.8308V10.831V10.8313V10.8316V10.8318V10.8321V10.8324V10.8326V10.8329V10.8332V10.8334V10.8337V10.8339V10.8342V10.8344V10.8347V10.8349V10.8352V10.8354V10.8357V10.8359V10.8362V10.8364V10.8367V10.8369V10.8371V10.8374V10.8376V10.8379V10.8381V10.8383V10.8386V10.8388V10.839V10.8392V10.8395V10.8397V10.8399V10.8401V10.8404V10.8406V10.8408V10.841V10.8412V10.8414V10.8417V10.8419V10.8421V10.8423V10.8425V10.8427V10.8429V10.8431V10.8433V10.8435V10.8437V10.8439V10.8441V10.8443V10.8445V10.8447V10.8449V10.8451V10.8453V10.8455V10.8457V10.8459V10.8461V10.8462V10.8464V10.8466V10.8468V10.847V10.8472V10.8473V10.8475V10.8477V10.8479V10.848V10.8482V10.8484V10.8486V10.8487V10.8489V10.8491V10.8492V10.8494V10.8496V10.8497V10.8499V10.85V10.8502V10.8504V10.8505V10.8507V10.8508V10.851V10.8511V10.8513V10.8514V10.8516V10.8517V10.8519V10.852V10.8522V10.8523V10.8525V10.8526V10.8528V10.8529V10.853V10.8532V10.8533V10.8535V10.8536V10.8537V10.8539V10.854V10.8541V10.8543V10.8544V10.8545V10.8547V10.8548V10.8549V10.855V10.8552V10.8553V10.8554V10.8555V10.8557V10.8558V10.8559V10.856V10.8561V10.8562V10.8564V10.8565V10.8566V10.8567V10.8568V10.8569V10.857V10.8571V10.8572V10.8574V10.8575V10.8576V10.8577V10.8578V10.8579V10.858V10.8581V10.8582V10.8583V10.8584V10.8585V10.8586V10.8587V10.8588V10.8589V10.859V10.859V10.8591V10.8592V10.8593V10.8594V10.8595V10.8596V10.8597V10.8598V10.8598V10.8599V10.86V10.8601V10.8602V10.8603V10.8603V10.8604V10.8605V10.8606V10.8607V10.8607V10.8608V10.8609V10.861V10.861V10.8611V10.8612V10.8613V10.8613V10.8614V10.8615V10.8615V10.8616V10.8617V10.8617V10.8618V10.8619V10.8619V10.862V10.8621V10.8621V10.8622V10.8623V10.8623V10.8624V10.8624V10.8625V10.8626V10.8626V10.8627V10.8627V10.8628V10.8628V10.8629V10.8629V10.863V10.8631V10.8631V10.8632V10.8632V10.8633V10.8633V10.8634V10.8634V10.8635V10.8635V10.8635V10.8636V10.8636V10.8637V10.8637V10.8638V10.8638V10.8639V10.8639V10.8639V10.864V10.864V10.8641V10.8641V10.8641V10.8642V10.8642V10.8643V10.8643V10.8643V10.8644V10.8644V10.8644V10.8645V10.8645V10.8645V10.8646V10.8646V10.8646V10.8647V10.8647V10.8647V10.8648V10.8648V10.8648V10.8648V10.8649V10.8649V10.8649V10.8649V10.865V10.865V10.865V10.865V10.8651V10.8651V10.8651V10.8651V10.8652V10.8652V10.8652V10.8652V10.8653V10.8653V10.8653V10.8653V10.8653V10.8654V10.8654V10.8654V10.8654V10.8654V10.8654V10.8655V10.8655V10.8655V10.8655V10.8655V10.8655V10.8656V10.8656V10.8656V10.8656V10.8656V10.8657V10.8657V10.8657V10.8657V10.8658V10.8658V10.8658V10.8658V10.8658V10.8658V10.8659V10.8659V10.8659V10.8659V10.8659V10.8659V10.866V10.866V10.866V10.866V10.866V24.366C26.75 25.3573 26.2764 26.3198 25.4124 27.0375C24.5471 27.7564 23.3651 28.166 22.125 28.166H5.875C4.63493 28.166 3.45291 27.7564 2.58761 27.0375C1.72365 26.3198 1.25 25.3573 1.25 24.366V5.46602C1.25 4.47473 1.72365 3.51228 2.58761 2.79453C3.45291 2.07567 4.63493 1.66602 5.875 1.66602H15.7019C15.8503 1.69142 15.9927 1.73433 16.1248 1.79298L16.1732 1.81452H16.2263H16.3402C16.468 1.86821 16.5846 1.9362 16.687 2.01579L26.431 10.1108C26.5195 10.1894 26.5936 10.276 26.6525 10.3681V10.4205ZM17.4098 5.82722L17 5.48681V6.01952V8.16602C17 8.6069 17.2112 9.01796 17.5662 9.31291C17.9199 9.60674 18.3912 9.76602 18.875 9.76602H21.4588H22.1509L21.6185 9.32372L17.4098 5.82722ZM14.25 4.11602V3.86602H14H5.875C5.39116 3.86602 4.91988 4.02529 4.5662 4.31912C4.21117 4.61407 4 5.02513 4 5.46602V24.366C4 24.8069 4.21117 25.218 4.5662 25.5129C4.91988 25.8067 5.39117 25.966 5.875 25.966H22.125C22.6088 25.966 23.0801 25.8067 23.4338 25.5129C23.7888 25.218 24 24.8069 24 24.366V12.216V11.966H23.75H18.875C17.6349 11.966 16.4529 11.5564 15.5876 10.8375C14.7237 10.1198 14.25 9.1573 14.25 8.16602V4.11602ZM13.0107 18.2037C13.2665 17.9912 13.6219 17.866 14 17.866C14.3781 17.866 14.7335 17.9912 14.9893 18.2037C15.2438 18.4151 15.375 18.6908 15.375 18.966V21.666C15.375 21.9412 15.2438 22.2169 14.9893 22.4283C14.7335 22.6408 14.3781 22.766 14 22.766C13.6219 22.766 13.2665 22.6408 13.0107 22.4283C12.7562 22.2169 12.625 21.9412 12.625 21.666V18.966C12.625 18.6908 12.7562 18.4151 13.0107 18.2037Z" fill="url(#paint0_linear_5946_27040)" stroke="#CDCDCD" stroke-width="0.5"/>
</g>
<defs>
<linearGradient id="paint0_linear_5946_27040" x1="4.99239" y1="1.41601" x2="32.1843" y2="5.56893" gradientUnits="userSpaceOnUse">
<stop offset="0.06" stop-color="#003191"/>
<stop offset="1" stop-color="#00AEEF"/>
</linearGradient>
<clipPath id="clip0_5946_27040">
<rect width="28" height="28" fill="white"/>
</clipPath>
</defs>
</svg>
