<svg width="31" height="31" viewBox="0 0 31 31" fill="none" xmlns="http://www.w3.org/2000/svg">
<path d="M24.1638 10.466H22.9339V6.77619C22.9339 5.79761 22.5452 4.8591 21.8532 4.16713C21.1612 3.47517 20.2227 3.08643 19.2441 3.08643H6.9449C5.96631 3.08643 5.0278 3.47517 4.33584 4.16713C3.64387 4.8591 3.25513 5.79761 3.25513 6.77619V21.5353C3.25634 21.7781 3.3294 22.0151 3.4651 22.2165C3.6008 22.4178 3.79307 22.5745 4.01768 22.6668C4.16365 22.7357 4.32371 22.7694 4.48505 22.7652C4.64692 22.7661 4.80737 22.7351 4.95723 22.6739C5.10708 22.6127 5.24337 22.5225 5.3583 22.4085L8.81438 18.9401H10.6347V20.7112C10.6347 21.6898 11.0234 22.6283 11.7154 23.3203C12.4073 24.0122 13.3458 24.401 14.3244 24.401H22.8355L25.7504 27.3282C25.8653 27.4422 26.0016 27.5324 26.1515 27.5936C26.3013 27.6548 26.4618 27.6858 26.6237 27.6849C26.785 27.689 26.9451 27.6553 27.091 27.5865C27.3156 27.4942 27.5079 27.3375 27.6436 27.1362C27.7793 26.9348 27.8524 26.6978 27.8536 26.455V14.1557C27.8536 13.1771 27.4648 12.2386 26.7729 11.5467C26.0809 10.8547 25.1424 10.466 24.1638 10.466ZM10.6347 14.1557V16.4803H8.31011C8.14824 16.4794 7.98779 16.5104 7.83793 16.5716C7.68808 16.6328 7.55179 16.723 7.43687 16.837L5.71497 18.5712V6.77619C5.71497 6.45 5.84455 6.13716 6.07521 5.90651C6.30586 5.67585 6.6187 5.54627 6.9449 5.54627H19.2441C19.5703 5.54627 19.8832 5.67585 20.1138 5.90651C20.3445 6.13716 20.474 6.45 20.474 6.77619V10.466H14.3244C13.3458 10.466 12.4073 10.8547 11.7154 11.5467C11.0234 12.2386 10.6347 13.1771 10.6347 14.1557ZM25.3937 23.4908L24.1638 22.2609C24.0499 22.1447 23.9141 22.0523 23.7642 21.9889C23.6143 21.9256 23.4533 21.8926 23.2906 21.8919H14.3244C13.9982 21.8919 13.6854 21.7624 13.4547 21.5317C13.2241 21.3011 13.0945 20.9882 13.0945 20.662V14.1557C13.0945 13.8295 13.2241 13.5167 13.4547 13.286C13.6854 13.0554 13.9982 12.9258 14.3244 12.9258H24.1638C24.49 12.9258 24.8029 13.0554 25.0335 13.286C25.2642 13.5167 25.3937 13.8295 25.3937 14.1557V23.4908Z" fill="url(#paint0_linear_3838_4323)"/>
<defs>
<linearGradient id="paint0_linear_3838_4323" x1="7.0323" y1="3.08643" x2="32.7126" y2="7.15926" gradientUnits="userSpaceOnUse">
<stop offset="0.06" stop-color="#003191"/>
<stop offset="1" stop-color="#00AEEF"/>
</linearGradient>
</defs>
</svg>
