<svg width="30" height="24" viewBox="0 0 30 24" fill="none" xmlns="http://www.w3.org/2000/svg">
<g clip-path="url(#clip0_5946_27407)">
<path d="M27.5 -0.0131836C28.1875 -0.0131836 28.776 0.23161 29.2656 0.721197C29.7552 1.21077 30 1.79931 30 2.48681V21.4868C30 22.1743 29.7552 22.7629 29.2656 23.2524C28.776 23.742 28.1875 23.9868 27.5 23.9868H2.49999C1.81249 23.9868 1.22396 23.742 0.734381 23.2524C0.244794 22.7629 0 22.1743 0 21.4868V2.48681C0 1.79931 0.244794 1.21077 0.734381 0.721197C1.22396 0.23161 1.81249 -0.0131836 2.49999 -0.0131836H27.5ZM2.49999 1.98682C2.36458 1.98682 2.24739 2.0363 2.14843 2.13525C2.04948 2.23421 2.00001 2.3514 2.00001 2.48681V5.98682H28V2.48681C28 2.3514 27.9505 2.23421 27.8516 2.13525C27.7526 2.0363 27.6354 1.98682 27.5 1.98682H2.49999ZM27.5 21.9868C27.6354 21.9868 27.7526 21.9373 27.8516 21.8384C27.9505 21.7394 28 21.6222 28 21.4868V11.9868H2.00001V21.4868C2.00001 21.6222 2.04948 21.7394 2.14843 21.8384C2.24739 21.9373 2.36458 21.9868 2.49999 21.9868H27.5ZM3.99999 19.9868V17.9868H8.00001V19.9868H3.99999ZM9.99999 19.9868V17.9868H16V19.9868H9.99999Z" fill="url(#paint0_linear_5946_27407)"/>
</g>
<defs>
<linearGradient id="paint0_linear_5946_27407" x1="15" y1="-0.0131836" x2="15" y2="23.9868" gradientUnits="userSpaceOnUse">
<stop stop-color="#34A1DB"/>
<stop offset="1" stop-color="#212595"/>
</linearGradient>
<clipPath id="clip0_5946_27407">
<rect width="30" height="24" fill="white"/>
</clipPath>
</defs>
</svg>
