<svg width="26" height="26" viewBox="0 0 26 26" fill="none" xmlns="http://www.w3.org/2000/svg">
<g clip-path="url(#clip0_5946_27355)">
<path d="M25.375 21.75V25.375H0.625V20.5001C0.626748 18.453 1.35656 16.4732 2.68394 14.9148C4.01133 13.3564 5.84977 12.3209 7.87053 11.9934C9.8913 11.666 11.9626 12.0681 13.7142 13.1276C15.4658 14.1872 16.7834 15.8352 17.4314 17.7771L17.4861 17.9408L17.6246 17.8378C18.4565 17.2192 19.4639 16.882 20.5005 16.875C21.7933 16.8751 23.033 17.3887 23.9471 18.3029C24.8614 19.2171 25.375 20.4571 25.375 21.75ZM15.5 23.125H15.625V23V20.5C15.625 18.8092 14.9534 17.1877 13.7578 15.9922C12.5623 14.7966 10.9408 14.125 9.25 14.125C7.55924 14.125 5.93774 14.7966 4.74219 15.9922C3.54665 17.1877 2.875 18.8092 2.875 20.5V23V23.125H3H15.5ZM23 23.125H23.125V23V21.75C23.125 21.0538 22.8484 20.3861 22.3562 19.8938C21.8639 19.4016 21.1962 19.125 20.5 19.125C19.8038 19.125 19.1361 19.4016 18.6438 19.8938C18.1516 20.3861 17.875 21.0538 17.875 21.75V23V23.125H18H23ZM5.19659 8.2084C4.66091 7.40671 4.375 6.46418 4.375 5.5C4.375 4.20707 4.88861 2.96709 5.80285 2.05285C6.71709 1.13861 7.95707 0.625 9.25 0.625C10.2142 0.625 11.1567 0.910914 11.9584 1.44659C12.7601 1.98226 13.3849 2.74363 13.7539 3.63442C14.1229 4.52521 14.2194 5.50541 14.0313 6.45107C13.8432 7.39672 13.3789 8.26537 12.6971 8.94715C12.0154 9.62893 11.1467 10.0932 10.2011 10.2813C9.25541 10.4694 8.27521 10.3729 7.38442 10.0039C6.49363 9.63494 5.73226 9.01009 5.19659 8.2084ZM11.4326 6.95837C11.721 6.52669 11.875 6.01918 11.875 5.5C11.875 4.80381 11.5984 4.13613 11.1062 3.64384C10.6139 3.15156 9.94619 2.875 9.25 2.875C8.73082 2.875 8.22331 3.02895 7.79163 3.31739C7.35995 3.60583 7.0235 4.0158 6.82482 4.49546C6.62614 4.97511 6.57415 5.50291 6.67544 6.01211C6.77672 6.52131 7.02673 6.98904 7.39384 7.35616C7.76096 7.72327 8.22869 7.97328 8.73789 8.07456C9.24709 8.17585 9.77489 8.12386 10.2545 7.92518C10.7342 7.7265 11.1442 7.39005 11.4326 6.95837Z" fill="url(#paint0_linear_5946_27355)" stroke="white" stroke-width="0.25"/>
<path d="M17.4859 13.7639C17.0876 13.1678 16.875 12.467 16.875 11.75C16.875 10.7886 17.2569 9.86656 17.9367 9.18674C18.6166 8.50692 19.5386 8.125 20.5 8.125C21.217 8.125 21.9178 8.3376 22.5139 8.73592C23.1101 9.13424 23.5747 9.70039 23.8491 10.3628C24.1234 11.0252 24.1952 11.754 24.0553 12.4572C23.9155 13.1604 23.5702 13.8063 23.0633 14.3133C22.5563 14.8202 21.9104 15.1655 21.2072 15.3053C20.504 15.4452 19.7752 15.3734 19.1128 15.0991C18.4504 14.8247 17.8842 14.3601 17.4859 13.7639ZM21.6433 12.5139C21.7944 12.2878 21.875 12.0219 21.875 11.75C21.875 11.3853 21.7301 11.0356 21.4723 10.7777C21.2144 10.5199 20.8647 10.375 20.5 10.375C20.2281 10.375 19.9622 10.4556 19.7361 10.6067C19.51 10.7578 19.3337 10.9726 19.2297 11.2238C19.1256 11.4751 19.0984 11.7515 19.1514 12.0182C19.2045 12.285 19.3354 12.53 19.5277 12.7223C19.72 12.9146 19.965 13.0455 20.2317 13.0986C20.4985 13.1516 20.7749 13.1244 21.0262 13.0203C21.2774 12.9163 21.4922 12.74 21.6433 12.5139Z" fill="url(#paint1_linear_5946_27355)" stroke="white" stroke-width="0.25"/>
</g>
<defs>
<linearGradient id="paint0_linear_5946_27355" x1="13" y1="0.5" x2="13" y2="25.5" gradientUnits="userSpaceOnUse">
<stop stop-color="#34A1DB"/>
<stop offset="1" stop-color="#212595"/>
</linearGradient>
<linearGradient id="paint1_linear_5946_27355" x1="20.5" y1="8" x2="20.5" y2="15.5" gradientUnits="userSpaceOnUse">
<stop stop-color="#34A1DB"/>
<stop offset="1" stop-color="#212595"/>
</linearGradient>
<clipPath id="clip0_5946_27355">
<rect width="26" height="26" fill="white"/>
</clipPath>
</defs>
</svg>
