<svg width="38" height="35" viewBox="0 0 38 35" fill="none" xmlns="http://www.w3.org/2000/svg">
<path d="M16.5406 31.2502H16.0756L15.5925 29.8027C15.5511 29.6783 15.4716 29.5701 15.3652 29.4934C15.2589 29.4166 15.1311 29.3753 15 29.3752H13.75C13.6339 29.3751 13.52 29.4075 13.4212 29.4685C13.3224 29.5296 13.2425 29.6169 13.1906 29.7208L13.0475 30.0077L12.395 29.0283C12.3277 28.928 12.2328 28.8493 12.1217 28.8018C12.0107 28.7543 11.8882 28.74 11.7692 28.7607C11.6502 28.7813 11.5397 28.836 11.4511 28.9181C11.3625 29.0002 11.2996 29.1062 11.27 29.2233L10.7619 31.2502H10V32.5002H11.25C11.3893 32.5002 11.5247 32.4536 11.6345 32.3679C11.7443 32.2822 11.8224 32.1622 11.8562 32.0271L12.1388 30.8977L12.605 31.5971C12.6648 31.689 12.7482 31.7632 12.8465 31.8119C12.9448 31.8606 13.0544 31.8821 13.1638 31.8739C13.2731 31.8672 13.3788 31.8318 13.4701 31.7714C13.5615 31.711 13.6354 31.6276 13.6844 31.5296L14.1363 30.6252H14.5494L15.0325 32.0727C15.0739 32.1971 15.1534 32.3053 15.2598 32.382C15.3661 32.4588 15.4939 32.5001 15.625 32.5002H16.875C16.9779 32.5002 17.0792 32.4748 17.1699 32.4263C17.2606 32.3778 17.3379 32.3076 17.395 32.2221L19.895 28.4721L18.855 27.7783L16.5406 31.2502Z" fill="url(#paint0_linear_7041_8349)"/>
<path d="M37.8312 11.7062C37.7863 11.5476 37.6808 11.4129 37.5375 11.3312L35.9125 10.3937C36.2441 9.81921 36.3342 9.13661 36.1631 8.49571C35.9921 7.8548 35.5738 7.30791 35 6.975C34.4244 6.64431 33.7415 6.55446 33.1 6.725C32.7829 6.80969 32.4859 6.95664 32.2262 7.1573C31.9666 7.35796 31.7494 7.60831 31.5875 7.89375L25 19.3V10.625H28.125C28.2908 10.625 28.4497 10.5592 28.5669 10.4419C28.6842 10.3247 28.75 10.1658 28.75 10V3.125C28.75 2.71462 28.6692 2.30826 28.5121 1.92911C28.3551 1.54997 28.1249 1.20547 27.8347 0.915291C27.5445 0.625108 27.2 0.394922 26.8209 0.237876C26.4417 0.0808305 26.0354 0 25.625 0H3.125C2.2962 0 1.50134 0.32924 0.915291 0.915291C0.32924 1.50134 0 2.2962 0 3.125V34.375C0 34.5408 0.065848 34.6997 0.183058 34.8169C0.300268 34.9342 0.45924 35 0.625 35H21.875C22.7038 35 23.4987 34.6708 24.0847 34.0847C24.6708 33.4987 25 32.7038 25 31.875V29.3L34.0375 13.6375L35.125 14.2625L32.9375 18.0562L34.0188 18.6812L36.5188 14.35L37.7688 12.1812C37.8514 12.0373 37.8739 11.8666 37.8312 11.7062ZM25 1.25H25.625C26.1218 1.25148 26.5979 1.4495 26.9492 1.80081C27.3005 2.15212 27.4985 2.62818 27.5 3.125V9.375H25V1.25ZM23.75 31.875C23.7485 32.3718 23.5505 32.8479 23.1992 33.1992C22.8479 33.5505 22.3718 33.7485 21.875 33.75H1.25V3.125C1.25148 2.62818 1.4495 2.15212 1.80081 1.80081C2.15212 1.4495 2.62818 1.25148 3.125 1.25H23.75V21.4625L20.65 26.8375C20.6082 26.9108 20.5806 26.9914 20.5687 27.075L20.0062 31.8C19.9903 31.9219 20.0109 32.0457 20.0654 32.1559C20.1199 32.266 20.2059 32.3575 20.3125 32.4187C20.4079 32.4725 20.5155 32.5005 20.625 32.5C20.76 32.4987 20.8912 32.455 21 32.375L23.75 30.3187V31.875ZM21.7 28.1625L23.3 29.0937L21.4188 30.5L21.7 28.1625ZM24.2062 28.1687L22.0438 26.9187L29.8563 13.3875L32.0187 14.6375L24.2062 28.1687ZM32.6437 13.5563L30.4813 12.3063L32.6688 8.51875C32.75 8.37592 32.8586 8.25052 32.9884 8.14971C33.1181 8.0489 33.2665 7.97466 33.425 7.93125C33.746 7.84914 34.0862 7.89391 34.375 8.05625C34.662 8.22347 34.871 8.49767 34.9563 8.81875C34.9998 8.97743 35.0112 9.14323 34.9897 9.30638C34.9683 9.46953 34.9144 9.62674 34.8312 9.76875L32.6437 13.5563ZM35.75 13.1813L34.6625 12.5563L35.2875 11.475L36.375 12.1L35.75 13.1813Z" fill="url(#paint1_linear_7041_8349)"/>
<path d="M5.625 7.5H20C20.1658 7.5 20.3247 7.43415 20.4419 7.31694C20.5592 7.19973 20.625 7.04076 20.625 6.875V3.125C20.625 2.95924 20.5592 2.80027 20.4419 2.68306C20.3247 2.56585 20.1658 2.5 20 2.5H5.625C5.45924 2.5 5.30027 2.56585 5.18306 2.68306C5.06585 2.80027 5 2.95924 5 3.125V6.875C5 7.04076 5.06585 7.19973 5.18306 7.31694C5.30027 7.43415 5.45924 7.5 5.625 7.5ZM6.25 3.75H19.375V6.25H6.25V3.75Z" fill="url(#paint2_linear_7041_8349)"/>
<path d="M6.25 10H3.75V11.25H6.25V10Z" fill="url(#paint3_linear_7041_8349)"/>
<path d="M21.25 10H8.125V11.25H21.25V10Z" fill="url(#paint4_linear_7041_8349)"/>
<path d="M6.25 13.75H3.75V15H6.25V13.75Z" fill="url(#paint5_linear_7041_8349)"/>
<path d="M21.25 13.75H8.125V15H21.25V13.75Z" fill="url(#paint6_linear_7041_8349)"/>
<path d="M7.35914 19.4108C7.26989 19.3088 7.13846 19.25 7 19.25C6.86154 19.25 6.73011 19.3088 6.64086 19.4108C6.51249 19.5573 3.5 23.0243 3.5 25.2165C3.5 27.073 5.07012 28.5833 7 28.5833C8.92988 28.5833 10.5 27.073 10.5 25.2165C10.5 23.0261 7.48751 19.5575 7.35914 19.4108ZM7 27.6801C5.5879 27.6801 4.43896 26.5749 4.43896 25.2165C4.43896 23.8634 6.05248 21.5901 7 20.4208C7.94782 21.5901 9.56104 23.8629 9.56104 25.2165C9.56104 26.5749 8.4121 27.6801 7 27.6801Z" fill="url(#paint7_linear_7041_8349)"/>
<defs>
<linearGradient id="paint0_linear_7041_8349" x1="14.9475" y1="27.7783" x2="14.9475" y2="32.5002" gradientUnits="userSpaceOnUse">
<stop stop-color="#34A1DB"/>
<stop offset="1" stop-color="#212595"/>
</linearGradient>
<linearGradient id="paint1_linear_7041_8349" x1="18.9262" y1="0" x2="18.9262" y2="35" gradientUnits="userSpaceOnUse">
<stop stop-color="#34A1DB"/>
<stop offset="1" stop-color="#212595"/>
</linearGradient>
<linearGradient id="paint2_linear_7041_8349" x1="12.8125" y1="2.5" x2="12.8125" y2="7.5" gradientUnits="userSpaceOnUse">
<stop stop-color="#34A1DB"/>
<stop offset="1" stop-color="#212595"/>
</linearGradient>
<linearGradient id="paint3_linear_7041_8349" x1="5" y1="10" x2="5" y2="11.25" gradientUnits="userSpaceOnUse">
<stop stop-color="#34A1DB"/>
<stop offset="1" stop-color="#212595"/>
</linearGradient>
<linearGradient id="paint4_linear_7041_8349" x1="14.6875" y1="10" x2="14.6875" y2="11.25" gradientUnits="userSpaceOnUse">
<stop stop-color="#34A1DB"/>
<stop offset="1" stop-color="#212595"/>
</linearGradient>
<linearGradient id="paint5_linear_7041_8349" x1="5" y1="13.75" x2="5" y2="15" gradientUnits="userSpaceOnUse">
<stop stop-color="#34A1DB"/>
<stop offset="1" stop-color="#212595"/>
</linearGradient>
<linearGradient id="paint6_linear_7041_8349" x1="14.6875" y1="13.75" x2="14.6875" y2="15" gradientUnits="userSpaceOnUse">
<stop stop-color="#34A1DB"/>
<stop offset="1" stop-color="#212595"/>
</linearGradient>
<linearGradient id="paint7_linear_7041_8349" x1="7" y1="19.25" x2="7" y2="28.5833" gradientUnits="userSpaceOnUse">
<stop stop-color="#34A1DB"/>
<stop offset="1" stop-color="#212595"/>
</linearGradient>
</defs>
</svg>
