<svg width="30" height="30" viewBox="0 0 30 30" fill="none" xmlns="http://www.w3.org/2000/svg">
<path d="M17.3074 2.5C17.3074 2.04052 16.9369 1.66504 16.4724 1.66504H2.5C2.04052 1.66504 1.66504 2.03556 1.66504 2.5V27.5C1.66504 27.9595 2.03556 28.335 2.5 28.335H16.4773C16.9368 28.335 17.3123 27.9645 17.3123 27.5" fill="white"/>
<path d="M14.6047 10.9736H13.3103C12.8508 10.9736 12.4753 11.3441 12.4753 11.8086C12.4753 12.2681 12.8459 12.6436 13.3103 12.6436H14.6047C15.0642 12.6436 15.4397 12.273 15.4397 11.8086C15.4348 11.3441 15.0642 10.9736 14.6047 10.9736Z" fill="url(#paint0_linear_4371_10176)"/>
<path d="M19.6245 10.9736H18.3301C17.8706 10.9736 17.4951 11.3441 17.4951 11.8086C17.4951 12.2681 17.8656 12.6436 18.3301 12.6436H19.6245C20.084 12.6436 20.4595 12.273 20.4595 11.8086C20.4545 11.3441 20.084 10.9736 19.6245 10.9736Z" fill="url(#paint1_linear_4371_10176)"/>
<path d="M24.6443 10.9736H23.3499C22.8904 10.9736 22.5149 11.3441 22.5149 11.8086C22.5149 12.2681 22.8854 12.6436 23.3499 12.6436H24.6443C25.1038 12.6436 25.4793 12.273 25.4793 11.8086C25.4793 11.3441 25.1038 10.9736 24.6443 10.9736Z" fill="url(#paint2_linear_4371_10176)"/>
<path d="M26.665 5.89426H18.9823V2.49999C18.9823 1.12156 17.8607 0 16.4823 0H2.49999C1.11659 0 0 1.12156 0 2.49999V27.5C0 28.8784 1.12156 30 2.49999 30H16.4773C17.8557 30 18.9773 28.8784 18.9773 27.5V18.3251H26.6601C28.0385 18.3251 29.1601 17.2036 29.1601 15.8251V8.38936C29.1601 7.01582 28.0435 5.89426 26.665 5.89426ZM17.3074 27.5C17.3074 27.9595 16.9368 28.335 16.4724 28.335H2.49999C2.04052 28.335 1.66503 27.9645 1.66503 27.5V2.49999C1.66503 2.04052 2.03555 1.66503 2.49999 1.66503H16.4773C16.9368 1.66503 17.3123 2.03555 17.3123 2.49999V5.88929H11.2846C9.90613 5.88929 8.78456 7.01085 8.78456 8.38928V15.83C8.78456 17.2085 9.90613 18.33 11.2846 18.33H12.3073V21.7589C12.3073 22.0949 12.5099 22.4012 12.8211 22.5247C13.1472 22.6433 13.4486 22.6037 13.7302 22.3419L17.3073 18.7648L17.3074 27.5ZM27.4951 15.8251C27.4951 16.2846 27.1246 16.6601 26.6602 16.6601H17.4111C17.1937 16.6601 16.9813 16.7491 16.8182 16.9022L13.9772 19.7432V17.4951C13.9772 17.0357 13.6067 16.6602 13.1423 16.6602H11.2895C10.83 16.6602 10.4546 16.2897 10.4546 15.8252V8.38936C10.4546 7.92988 10.8251 7.5544 11.2895 7.5544H26.6699C27.1294 7.5544 27.5049 7.92491 27.5049 8.38936V15.8251H27.4951Z" fill="url(#paint3_linear_4371_10176)"/>
<path d="M5.80042 14.3329H4.16504V23.7005H14.8123V21.5217V21.2599L13.7352 22.3369C13.4536 22.5889 13.1522 22.6383 12.8261 22.5197C12.5148 22.3913 12.3123 22.0899 12.3123 21.754V18.3251H11.2895C9.9111 18.3251 8.78954 17.2035 8.78954 15.8251V8.38929C8.78954 7.50985 9.24405 6.74405 9.93082 6.29443H4.16504V8.56713H6.88247C7.34194 8.56713 7.71743 8.93765 7.71743 9.4021C7.71743 9.86157 7.34691 10.2371 6.88247 10.2371H4.16504V12.6679H5.80042C6.25989 12.6679 6.63538 13.0384 6.63538 13.5028C6.63049 13.9624 6.25989 14.3329 5.80042 14.3329Z" fill="#00B2F5"/>
<path d="M7.7915 4.59473H11.1858C11.6452 4.59473 12.0207 4.22421 12.0207 3.75977C12.0207 3.30029 11.6502 2.9248 11.1858 2.9248H7.7915C7.33203 2.9248 6.95654 3.29532 6.95654 3.75977C6.95654 4.22421 7.32714 4.59473 7.7915 4.59473Z" fill="#006CB5"/>
<path d="M11.1858 24.8862H7.7915C7.33203 24.8862 6.95654 25.2567 6.95654 25.7212C6.95654 26.1807 7.32706 26.5562 7.7915 26.5562H11.1858C11.6452 26.5562 12.0207 26.1856 12.0207 25.7212C12.0158 25.2568 11.6452 24.8862 11.1858 24.8862Z" fill="#006CB5"/>
<defs>
<linearGradient id="paint0_linear_4371_10176" x1="12.9305" y1="10.9736" x2="15.8701" y2="11.8012" gradientUnits="userSpaceOnUse">
<stop offset="0.06" stop-color="#003191"/>
<stop offset="1" stop-color="#00AEEF"/>
</linearGradient>
<linearGradient id="paint1_linear_4371_10176" x1="17.9503" y1="10.9736" x2="20.8899" y2="11.8012" gradientUnits="userSpaceOnUse">
<stop offset="0.06" stop-color="#003191"/>
<stop offset="1" stop-color="#00AEEF"/>
</linearGradient>
<linearGradient id="paint2_linear_4371_10176" x1="22.9701" y1="10.9736" x2="25.9097" y2="11.8012" gradientUnits="userSpaceOnUse">
<stop offset="0.06" stop-color="#003191"/>
<stop offset="1" stop-color="#00AEEF"/>
</linearGradient>
<linearGradient id="paint3_linear_4371_10176" x1="4.47763" y1="-7.22838e-07" x2="34.9614" y2="4.69937" gradientUnits="userSpaceOnUse">
<stop offset="0.06" stop-color="#003191"/>
<stop offset="1" stop-color="#00AEEF"/>
</linearGradient>
</defs>
</svg>
