<svg width="18" height="25" viewBox="0 0 18 25" fill="none" xmlns="http://www.w3.org/2000/svg">
<path d="M8.99998 11.4545C12.1631 11.4545 14.7273 8.89036 14.7273 5.72727C14.7273 2.56419 12.1631 0 8.99998 0C5.83689 0 3.27271 2.56419 3.27271 5.72727C3.27271 8.89036 5.83689 11.4545 8.99998 11.4545Z" fill="#0062B6"/>
<path fill-rule="evenodd" clip-rule="evenodd" d="M0 22.0908C0 22.742 0.259091 23.3658 0.719318 23.826C1.17955 24.2863 1.80341 24.5454 2.45455 24.5454C5.59091 24.5454 12.4091 24.5454 15.5455 24.5454C16.1966 24.5454 16.8205 24.2863 17.2807 23.826C17.7409 23.3658 18 22.742 18 22.0908C18 17.1204 13.9705 13.0908 9 13.0908C4.02955 13.0908 0 17.1204 0 22.0908Z" fill="#0062B6"/>
</svg>
