<svg width="21" height="21" viewBox="0 0 21 21" fill="none" xmlns="http://www.w3.org/2000/svg">
<path d="M15.7262 13.9203C15.5315 13.7249 15.3002 13.5699 15.0455 13.4642C14.7908 13.3584 14.5177 13.304 14.2419 13.304C13.9662 13.304 13.6931 13.3584 13.4384 13.4642C13.1837 13.5699 12.9524 13.7249 12.7577 13.9203L11.745 14.933C10.6047 14.2093 9.54819 13.3613 8.59492 12.4046C7.64023 11.4495 6.79242 10.3933 6.06651 9.25457L7.07927 8.24181C7.27462 8.04714 7.42961 7.81583 7.53537 7.56113C7.64113 7.30644 7.69557 7.03337 7.69557 6.75759C7.69557 6.48181 7.64113 6.20874 7.53537 5.95405C7.42961 5.69935 7.27462 5.46804 7.07927 5.27337L5.10264 3.30372C4.91072 3.10773 4.68136 2.95232 4.42819 2.84673C4.17502 2.74115 3.9032 2.68753 3.6289 2.68908C3.35264 2.6884 3.07899 2.74236 2.82366 2.84784C2.56834 2.95333 2.3364 3.10826 2.14118 3.30372L1.19128 4.24664C0.738522 4.73344 0.400609 5.31552 0.202383 5.95009C0.00415632 6.58465 -0.0493444 7.25558 0.0458133 7.91354C0.269319 10.5328 1.98752 13.6828 4.63468 16.3369C7.28183 18.9911 10.4668 20.7023 13.086 20.9537C13.2814 20.9642 13.4773 20.9642 13.6727 20.9537C14.2365 20.9774 14.7994 20.8883 15.3283 20.6916C15.8572 20.4949 16.3416 20.1946 16.7529 19.8083L17.6958 18.8584C17.8913 18.6631 18.0462 18.4312 18.1517 18.1759C18.2572 17.9206 18.3111 17.6469 18.3105 17.3706C18.312 17.0963 18.2584 16.8245 18.1528 16.5714C18.0472 16.3182 17.8918 16.0888 17.6958 15.8969L15.7262 13.9203ZM16.711 17.8735L15.7611 18.8164C15.4099 19.1092 14.9999 19.323 14.5588 19.4435C14.1178 19.564 13.656 19.5884 13.2047 19.5149C10.9348 19.3193 8.04314 17.7129 5.65442 15.3242C3.2657 12.9354 1.65925 10.0648 1.44273 7.7948C1.36741 7.34354 1.39084 6.88131 1.51143 6.43998C1.63201 5.99865 1.84686 5.58872 2.14118 5.23845L3.12601 4.28855C3.19127 4.22381 3.26867 4.1726 3.35377 4.13784C3.43887 4.10308 3.52999 4.08546 3.62191 4.08599C3.71383 4.08546 3.80496 4.10308 3.89005 4.13784C3.97515 4.1726 4.05255 4.22381 4.11782 4.28855L6.09445 6.28613C6.22454 6.417 6.29755 6.59402 6.29755 6.77854C6.29755 6.96307 6.22454 7.14009 6.09445 7.27096L4.69754 8.66787C4.58823 8.77664 4.51799 8.91853 4.49777 9.07141C4.47755 9.22429 4.5085 9.37956 4.58578 9.513C5.42211 10.9368 6.4386 12.2467 7.6101 13.4104C8.77378 14.5819 10.0837 15.5984 11.5075 16.4347C11.6409 16.512 11.7962 16.5429 11.9491 16.5227C12.102 16.5025 12.2439 16.4323 12.3526 16.323L13.7495 14.926C13.8804 14.796 14.0574 14.7229 14.2419 14.7229C14.4265 14.7229 14.6035 14.796 14.7344 14.926L16.711 16.9027C16.7757 16.9679 16.8269 17.0453 16.8617 17.1304C16.8965 17.2155 16.9141 17.3067 16.9135 17.3986C16.9092 17.577 16.8367 17.7469 16.711 17.8735ZM17.9263 3.06625C16.9556 2.09188 15.8017 1.31929 14.531 0.793036C13.2603 0.266779 11.898 -0.00273909 10.5227 2.09862e-05C10.3374 2.09862e-05 10.1598 0.0736082 10.0288 0.204594C9.8978 0.33558 9.82421 0.513236 9.82421 0.698478C9.82421 0.88372 9.8978 1.06138 10.0288 1.19236C10.1598 1.32335 10.3374 1.39693 10.5227 1.39693C11.7216 1.39689 12.9086 1.63427 14.0152 2.09538C15.1219 2.55649 16.1263 3.23219 16.9705 4.08349C17.8146 4.9348 18.4818 5.94485 18.9336 7.05536C19.3854 8.16588 19.6127 9.35486 19.6026 10.5537C19.6026 10.7389 19.6762 10.9166 19.8072 11.0476C19.9382 11.1786 20.1158 11.2522 20.3011 11.2522C20.4863 11.2522 20.664 11.1786 20.7949 11.0476C20.9259 10.9166 20.9995 10.7389 20.9995 10.5537C21.0129 9.16373 20.7479 7.78514 20.2201 6.49921C19.6922 5.21327 18.9123 4.04602 17.9263 3.06625Z" fill="#0062B6"/>
<path d="M13.9522 7.06121C14.3486 7.4552 14.6622 7.9245 14.8745 8.44149C15.0868 8.95847 15.1936 9.5127 15.1885 10.0716C15.1885 10.2568 15.2621 10.4345 15.3931 10.5654C15.5241 10.6964 15.7017 10.77 15.887 10.77C16.0722 10.77 16.2499 10.6964 16.3809 10.5654C16.5118 10.4345 16.5854 10.2568 16.5854 10.0716C16.5947 9.33193 16.457 8.59781 16.1803 7.9118C15.9036 7.2258 15.4935 6.60155 14.9737 6.07527C14.454 5.54898 13.8349 5.13114 13.1523 4.84598C12.4698 4.56082 11.7375 4.414 10.9978 4.41406C10.8125 4.41406 10.6349 4.48765 10.5039 4.61864C10.3729 4.74962 10.2993 4.92728 10.2993 5.11252C10.2993 5.29776 10.3729 5.47542 10.5039 5.6064C10.6349 5.73739 10.8125 5.81098 10.9978 5.81098C11.5482 5.81512 12.0924 5.92767 12.5994 6.14219C13.1063 6.35671 13.566 6.669 13.9522 7.06121Z" fill="#0062B6"/>
</svg>
