<svg width="16" height="16" viewBox="0 0 16 16" fill="none" xmlns="http://www.w3.org/2000/svg">
<path d="M7.99995 6.40039C7.51995 6.40039 7.19995 6.72039 7.19995 7.20039V11.2004C7.19995 11.6804 7.51995 12.0004 7.99995 12.0004C8.47995 12.0004 8.79995 11.6804 8.79995 11.2004V7.20039C8.79995 6.72039 8.47995 6.40039 7.99995 6.40039Z" fill="#0062B6"/>
<path d="M7.99995 5.6C8.44178 5.6 8.79995 5.24183 8.79995 4.8C8.79995 4.35817 8.44178 4 7.99995 4C7.55812 4 7.19995 4.35817 7.19995 4.8C7.19995 5.24183 7.55812 5.6 7.99995 5.6Z" fill="#0062B6"/>
<path d="M8 0C3.6 0 0 3.6 0 8C0 12.4 3.6 16 8 16C12.4 16 16 12.4 16 8C16 3.6 12.4 0 8 0ZM8 14.4C4.48 14.4 1.6 11.52 1.6 8C1.6 4.48 4.48 1.6 8 1.6C11.52 1.6 14.4 4.48 14.4 8C14.4 11.52 11.52 14.4 8 14.4Z" fill="#0062B6"/>
</svg>
