<svg width="363" height="126" viewBox="0 0 363 126" fill="none" xmlns="http://www.w3.org/2000/svg">
<g clip-path="url(#clip0_6168_8001)">
<g clip-path="url(#clip1_6168_8001)">
<path d="M364 89.8412V-36.1459H-7.33356V64.8048V127.758L364 125.263V89.8412Z" fill="url(#paint0_linear_6168_8001)"/>
<g opacity="0.2">
<path d="M194.95 -29.3027C174.596 6.44057 128.681 14.4909 91.7395 18.2745C70.5845 20.4481 50.3912 24.7147 31.7203 35.2606C15.213 44.5184 -2.65652 59.009 -6.58301 78.6517" stroke="#B9E5FC" stroke-miterlimit="10"/>
<path d="M192.546 -32.6035C172.193 3.05928 126.196 11.1901 89.2554 14.9737C68.1005 17.1473 47.9071 21.4139 29.2362 31.8793C12.729 41.2177 -5.06045 55.7082 -8.98694 75.3509" stroke="#AEDCF9" stroke-miterlimit="10"/>
<path d="M190.062 -35.9844C169.708 -0.241074 123.793 7.80922 86.7713 11.6734C65.6163 13.8469 45.423 18.1136 26.7521 28.579C10.325 37.9173 -7.54458 52.4078 -11.4711 72.0506" stroke="#A3D3F6" stroke-miterlimit="10"/>
<path d="M187.578 -39.2852C167.224 -3.54186 121.308 4.50844 84.2872 8.29207C63.1322 10.4657 42.9388 14.7323 24.3481 25.2782C7.84082 34.6165 -10.0287 49.0266 -13.9552 68.7498" stroke="#98CAF3" stroke-miterlimit="10"/>
<path d="M185.094 -42.5859C164.74 -6.84263 118.824 1.20766 81.8032 4.9913C60.6482 7.16488 40.535 11.4315 21.8641 21.9774C5.35682 31.2352 -12.5127 45.7258 -16.4392 65.449" stroke="#8DC1F0" stroke-miterlimit="10"/>
<path d="M182.61 -45.8862C162.256 -10.1429 116.34 -2.09264 79.319 1.691C58.2442 3.86458 38.0508 8.13123 19.38 18.6771C2.87269 27.935 -14.9968 42.4255 -18.9233 62.1487" stroke="#82B8ED" stroke-miterlimit="10"/>
<path d="M180.126 -49.187C159.772 -13.4437 113.856 -5.39342 76.915 -1.60978C55.7601 0.563796 35.5667 4.83045 16.8958 15.3763C0.388557 24.6342 -17.481 39.1247 -21.4075 58.7674" stroke="#77AFEA" stroke-miterlimit="10"/>
<path d="M177.722 -52.4878C157.368 -16.825 111.372 -8.6942 74.431 -4.91056C53.276 -2.73699 33.0826 1.52967 14.4118 11.9951C-2.09551 21.3334 -19.8849 35.8239 -23.8114 55.4666" stroke="#6CA6E7" stroke-miterlimit="10"/>
<path d="M175.238 -55.8687C154.884 -20.1253 108.968 -12.0751 71.9469 -8.21092C50.7919 -6.03734 30.5985 -1.77068 11.9276 8.6947C-4.49951 18.033 -22.369 32.5236 -26.2955 52.1663" stroke="#629DE4" stroke-miterlimit="10"/>
<path d="M172.753 -59.1694C152.4 -23.4261 106.484 -15.3758 69.4627 -11.5922C48.3078 -9.41863 28.1144 -5.15197 9.52365 5.39391C-6.98364 14.7323 -24.8532 29.1423 -28.7797 48.8655" stroke="#5794E1" stroke-miterlimit="10"/>
<path d="M170.269 -62.4702C149.916 -26.7269 104 -18.6766 66.9786 -14.893C45.8236 -12.7194 25.7104 -8.45275 7.03952 2.09313C-9.46777 11.351 -27.3373 25.8415 -31.2638 45.5647" stroke="#4C8BDE" stroke-miterlimit="10"/>
<path d="M167.785 -65.7705C147.432 -30.0272 101.516 -21.9769 64.4946 -18.1933C43.4197 -16.0197 23.2264 -11.753 4.55551 -1.20716C-11.9518 8.05067 -29.8213 22.5412 -33.7478 42.2644" stroke="#4182DB" stroke-miterlimit="10"/>
<path d="M165.301 -69.0713C144.948 -33.328 99.0316 -25.2777 62.0906 -21.4941C40.9356 -19.3205 20.7422 -15.0538 2.07138 -4.50794C-14.4359 4.7499 -32.3054 19.2404 -36.2319 38.8831" stroke="#3679D8" stroke-miterlimit="10"/>
<path d="M162.897 -72.3721C142.543 -36.7093 96.5475 -28.5785 59.6064 -24.7948C38.4514 -22.6213 18.258 -18.3546 -0.412811 -7.88923C-16.9201 1.44911 -34.7095 15.9396 -38.636 35.5824" stroke="#2B70D5" stroke-miterlimit="10"/>
<path d="M160.413 -75.6724C140.059 -40.0096 94.1436 -31.9593 57.1224 -28.0951C35.9674 -25.9216 15.774 -21.6549 -2.89682 -11.1895C-19.324 -1.85118 -37.1935 12.6394 -41.12 32.2821" stroke="#2067D2" stroke-miterlimit="10"/>
<path d="M157.929 -79.0537C137.575 -43.3104 91.6595 -35.2601 54.6383 -31.4765C33.4833 -29.3029 13.2899 -24.9557 -5.30082 -14.4904C-21.8081 -5.15203 -39.6776 9.3385 -43.6041 28.9812" stroke="#155ECF" stroke-miterlimit="10"/>
<path d="M155.445 -82.3545C135.091 -46.6112 89.1753 -38.5609 52.1541 -34.7773C30.9992 -32.6037 10.8859 -28.337 -7.78494 -17.7911C-24.2922 -8.5333 -42.1618 5.95722 -46.0883 25.6804" stroke="#0A55CC" stroke-miterlimit="10"/>
<path d="M153.682 -85.8159C133.328 -50.1531 87.4124 -42.0223 50.3912 -38.2387C29.2362 -36.0651 9.04284 -31.7985 -9.54789 -21.3331C-26.0552 -11.9947 -43.9247 2.4958 -47.8512 22.1385" stroke="#0A53C7" stroke-miterlimit="10"/>
<path d="M151.919 -89.3579C131.565 -53.6146 85.6494 -45.5643 48.6282 -41.7807C27.4733 -39.6071 7.2799 -35.3404 -11.391 -24.7946C-27.8181 -15.5367 -45.6876 -1.0462 -49.6141 18.677" stroke="#0951C2" stroke-miterlimit="10"/>
<path d="M150.156 -92.8198C129.803 -57.0765 83.8065 -49.0262 46.8654 -45.2426C25.7105 -43.069 5.51709 -38.8024 -13.1538 -28.2565C-29.6611 -18.9986 -47.4505 -4.50811 -51.377 15.1346" stroke="#094FBD" stroke-miterlimit="10"/>
<path d="M148.393 -96.3618C127.959 -60.6185 82.0435 -52.5682 45.1024 -48.7846C23.9475 -46.611 3.75408 -42.3444 -14.9168 -31.7985C-31.4241 -22.4601 -49.2936 -8.05011 -53.2201 11.6731" stroke="#094DB8" stroke-miterlimit="10"/>
<path d="M146.55 -99.8232C126.197 -64.0799 80.2807 -56.0297 43.3396 -52.246C22.1846 -50.0724 1.99126 -45.8058 -16.6796 -35.2599C-33.1869 -26.0021 -51.0564 -11.5115 -54.9829 8.13119" stroke="#084BB3" stroke-miterlimit="10"/>
<path d="M144.787 -103.366C124.434 -67.6224 78.5177 -59.5721 41.4965 -55.7885C20.3416 -53.6149 0.228317 -49.2678 -18.4425 -38.8024C-34.9498 -29.464 -52.8194 -15.054 -56.7458 4.6692" stroke="#0849AE" stroke-miterlimit="10"/>
<path d="M143.024 -106.827C122.671 -71.0838 76.7548 -63.0336 39.7336 -59.2499C18.5786 -57.0763 -1.53462 -52.8097 -20.2055 -42.2638C-36.7128 -33.006 -54.5823 -18.5154 -58.5088 1.12727" stroke="#0847A9" stroke-miterlimit="10"/>
</g>
<g opacity="0.5">
<path d="M397.926 123.894C376.21 158.832 330.053 165.112 292.872 167.446C271.717 168.815 251.363 172.276 232.292 182.098C215.464 190.711 197.114 204.477 192.386 224.04" stroke="#2B70D5" stroke-miterlimit="10"/>
<path d="M395.602 120.513C373.886 155.371 327.649 161.65 290.548 164.065C269.313 165.353 249.039 168.895 229.968 178.636C213.14 187.331 194.71 201.097 190.062 220.578" stroke="#2067D2" stroke-miterlimit="10"/>
<path d="M393.278 117.051C371.562 151.99 325.326 158.269 288.224 160.603C266.989 161.972 246.716 165.514 227.644 175.255C210.816 183.949 192.386 197.715 187.738 217.197" stroke="#155ECF" stroke-miterlimit="10"/>
<path d="M390.874 113.67C369.158 148.609 323.002 154.888 285.9 157.223C264.665 158.591 244.312 162.053 225.32 171.874C208.492 180.488 190.062 194.334 185.414 213.816" stroke="#0A55CC" stroke-miterlimit="10"/>
<path d="M389.271 110.128C367.555 144.986 321.319 151.265 284.218 153.68C263.063 155.049 242.709 158.511 223.638 168.252C206.81 176.946 188.379 190.712 183.732 210.274" stroke="#0A53C7" stroke-miterlimit="10"/>
<path d="M387.588 106.505C365.873 141.444 319.716 147.723 282.615 150.057C261.38 151.426 241.026 154.968 222.035 164.709C205.207 173.403 186.777 187.169 182.129 206.651" stroke="#0951C2" stroke-miterlimit="10"/>
<path d="M385.986 102.963C364.27 137.902 318.114 144.181 280.932 146.515C259.777 147.884 239.424 151.346 220.352 161.167C203.524 169.781 185.174 183.627 180.446 203.109" stroke="#094FBD" stroke-miterlimit="10"/>
<path d="M384.383 99.4214C362.667 134.279 316.431 140.639 279.329 142.973C258.094 144.342 237.821 147.804 218.749 157.625C201.922 166.239 183.491 180.005 178.843 199.567" stroke="#094DB8" stroke-miterlimit="10"/>
<path d="M382.7 95.7988C360.984 130.737 314.828 137.016 277.647 139.431C256.492 140.719 236.138 144.262 217.067 154.002C200.239 162.697 181.888 176.463 177.161 195.944" stroke="#084BB3" stroke-miterlimit="10"/>
<path d="M381.098 92.2563C359.382 127.195 313.145 133.474 276.044 135.808C254.809 137.177 234.535 140.639 215.464 150.46C198.636 159.074 180.206 172.92 175.558 192.402" stroke="#0849AE" stroke-miterlimit="10"/>
<path d="M379.415 88.7144C357.699 123.572 311.543 129.932 274.361 132.266C253.206 133.635 232.853 137.097 213.781 146.918C196.953 155.532 178.603 169.298 173.875 188.86" stroke="#0847A9" stroke-miterlimit="10"/>
<path d="M377.812 85.1724C356.096 120.03 309.86 126.309 272.759 128.724C251.524 130.012 231.25 133.555 212.179 143.295C195.351 151.99 176.92 165.756 172.273 185.238" stroke="#0846A4" stroke-miterlimit="10"/>
<path d="M376.13 81.5498C354.414 116.488 308.257 122.767 271.156 125.102C249.921 126.47 229.567 130.013 210.576 139.753C193.668 148.448 175.318 162.214 170.59 181.695" stroke="#07449F" stroke-miterlimit="10"/>
<path d="M374.527 78.0073C352.811 112.946 306.575 119.225 269.473 121.559C248.238 122.928 227.965 126.39 208.893 136.211C192.065 144.825 173.635 158.671 168.987 178.153" stroke="#07429A" stroke-miterlimit="10"/>
<path d="M372.844 74.4653C351.128 109.323 304.972 115.602 267.871 118.017C246.635 119.386 226.282 122.848 207.29 132.669C190.382 141.283 172.032 155.049 167.304 174.611" stroke="#074095" stroke-miterlimit="10"/>
<path d="M371.241 70.8428C349.525 105.781 303.289 112.06 266.188 114.475C244.953 115.763 224.679 119.306 205.608 129.046C188.78 137.741 170.349 151.507 165.702 170.988" stroke="#063E90" stroke-miterlimit="10"/>
<path d="M369.559 67.3008C347.843 102.239 301.686 108.518 264.585 110.853C243.35 112.221 222.996 115.683 204.005 125.504C187.097 134.118 168.747 147.965 164.099 167.446" stroke="#063C8B" stroke-miterlimit="10"/>
<path d="M367.956 63.7583C346.24 98.6161 300.004 104.976 262.902 107.31C241.667 108.679 221.394 112.141 202.322 121.962C185.494 130.576 167.064 144.342 162.416 163.904" stroke="#063A86" stroke-miterlimit="10"/>
<path d="M366.273 60.1357C344.557 95.074 298.401 101.353 261.3 103.768C240.065 105.056 219.711 108.599 200.72 118.339C183.892 127.034 165.461 140.8 160.814 160.281" stroke="#053881" stroke-miterlimit="10"/>
<path d="M364.671 56.5938C342.955 91.532 296.718 97.8112 259.617 100.146C238.462 101.514 218.108 105.057 199.037 114.797C182.209 123.492 163.779 137.258 159.131 156.739" stroke="#05367C" stroke-miterlimit="10"/>
</g>
<path d="M-6 96.3564H363V127.408H-6V96.3564Z" fill="#064C74" fill-opacity="0.55"/>
</g>
</g>
<defs>
<linearGradient id="paint0_linear_6168_8001" x1="365.633" y1="-41.3544" x2="46.8308" y2="149.94" gradientUnits="userSpaceOnUse">
<stop offset="0.01" stop-color="#F0F0F0"/>
<stop offset="0.0428668" stop-color="#EAEDEF"/>
<stop offset="0.0790908" stop-color="#B4CFE1"/>
<stop offset="0.184202" stop-color="#84B4D5"/>
<stop offset="0.36" stop-color="#5C9ECB"/>
<stop offset="0.48" stop-color="#3B8CC3"/>
<stop offset="0.6" stop-color="#217EBD"/>
<stop offset="0.72" stop-color="#0F74B9"/>
<stop offset="0.85" stop-color="#056EB6"/>
<stop offset="1" stop-color="#016CB5"/>
</linearGradient>
<clipPath id="clip0_6168_8001">
<rect width="363" height="126" rx="20" fill="white"/>
</clipPath>
<clipPath id="clip1_6168_8001">
<rect x="-0.0922852" width="363" height="144.905" rx="16" fill="white"/>
</clipPath>
</defs>
</svg>
