<svg width="22" height="16" viewBox="0 0 22 16" fill="none" xmlns="http://www.w3.org/2000/svg">
<path d="M11 7L21 0.476731C20.598 0.170522 20.1098 0.00341741 19.6072 0H2.3928C1.89025 0.00341741 1.40204 0.170522 1 0.476731L11 7Z" fill="#0062B6"/>
<path d="M11.4243 8.77114L11.2907 8.83427H11.2279C11.1555 8.86674 11.0787 8.88802 11 8.89741C10.9348 8.90566 10.8688 8.90566 10.8036 8.89741H10.7407L10.6071 8.83427L0.0785713 2C0.0282685 2.19062 0.0018737 2.3868 0 2.58399V13.6325C0 14.2604 0.248341 14.8626 0.690391 15.3066C1.13244 15.7506 1.73199 16 2.35714 16H19.6429C20.268 16 20.8676 15.7506 21.3096 15.3066C21.7517 14.8626 22 14.2604 22 13.6325V2.58399C21.9981 2.3868 21.9717 2.19062 21.9214 2L11.4243 8.77114Z" fill="#0062B6"/>
</svg>
