<svg width="26" height="26" viewBox="0 0 26 26" fill="none" xmlns="http://www.w3.org/2000/svg">
<path d="M14.0833 8.66667C14.9453 8.66667 15.7719 9.00908 16.3814 9.61857C16.9909 10.2281 17.3333 11.0547 17.3333 11.9167C17.3333 12.204 17.4475 12.4795 17.6506 12.6827C17.8538 12.8859 18.1293 13 18.4167 13C18.704 13 18.9795 12.8859 19.1827 12.6827C19.3859 12.4795 19.5 12.204 19.5 11.9167C19.5 10.4801 18.9293 9.10233 17.9135 8.0865C16.8977 7.07068 15.5199 6.5 14.0833 6.5C13.796 6.5 13.5205 6.61414 13.3173 6.8173C13.1141 7.02047 13 7.29602 13 7.58333C13 7.87065 13.1141 8.1462 13.3173 8.34937C13.5205 8.55253 13.796 8.66667 14.0833 8.66667Z" fill="url(#paint0_linear_5550_9160)"/>
<path d="M14.0834 4.33317C16.0946 4.33317 18.0234 5.13213 19.4456 6.55428C20.8677 7.97643 21.6667 9.90528 21.6667 11.9165C21.6667 12.2038 21.7808 12.4794 21.984 12.6825C22.1872 12.8857 22.4627 12.9998 22.75 12.9998C23.0373 12.9998 23.3129 12.8857 23.5161 12.6825C23.7192 12.4794 23.8334 12.2038 23.8334 11.9165C23.8334 9.33064 22.8061 6.85069 20.9776 5.02221C19.1492 3.19373 16.6692 2.1665 14.0834 2.1665C13.796 2.1665 13.5205 2.28064 13.3173 2.4838C13.1142 2.68697 13 2.96252 13 3.24984C13 3.53716 13.1142 3.81271 13.3173 4.01587C13.5205 4.21903 13.796 4.33317 14.0834 4.33317ZM23.5625 17.2357C23.5029 17.0618 23.4001 16.9059 23.2636 16.7827C23.1272 16.6595 22.9616 16.5731 22.7825 16.5315L16.2825 15.0473C16.1061 15.0073 15.9224 15.0122 15.7483 15.0614C15.5743 15.1106 15.4153 15.2026 15.2859 15.329C15.1342 15.4698 15.1234 15.4807 14.4192 16.824C12.0827 15.7473 10.2104 13.8674 9.14335 11.5265C10.5192 10.8332 10.53 10.8332 10.6709 10.6707C10.7973 10.5413 10.8893 10.3823 10.9385 10.2082C10.9877 10.0341 10.9925 9.85044 10.9525 9.67401L9.46835 3.24984C9.4268 3.07076 9.34037 2.9052 9.21718 2.76874C9.09399 2.63229 8.9381 2.52942 8.76419 2.46984C8.51119 2.37948 8.24994 2.31416 7.98419 2.27484C7.71038 2.21135 7.43097 2.17506 7.15002 2.1665C5.82836 2.1665 4.56083 2.69153 3.62627 3.62609C2.69172 4.56065 2.16669 5.82818 2.16669 7.14984C2.17242 11.5728 3.93196 15.8129 7.05945 18.9404C10.1869 22.0679 14.4271 23.8274 18.85 23.8332C19.5044 23.8332 20.1525 23.7043 20.7571 23.4538C21.3617 23.2034 21.911 22.8363 22.3738 22.3736C22.8365 21.9108 23.2036 21.3615 23.454 20.7569C23.7045 20.1523 23.8334 19.5043 23.8334 18.8498C23.8337 18.5741 23.812 18.2988 23.7684 18.0265C23.7228 17.7574 23.654 17.4928 23.5625 17.2357ZM18.85 21.6665C15.0008 21.6636 11.3101 20.1333 8.58836 17.4115C5.86658 14.6897 4.33622 10.999 4.33335 7.14984C4.33621 6.40369 4.63388 5.68892 5.16149 5.16131C5.6891 4.6337 6.40387 4.33602 7.15002 4.33317H7.50752L8.66669 9.35984L8.08169 9.66317C7.15002 10.1507 6.41335 10.5407 6.80335 11.3857C7.43843 13.1835 8.46602 14.8174 9.81148 16.1685C11.1569 17.5195 12.7865 18.5539 14.5817 19.1965C15.4917 19.5648 15.8492 18.8823 16.3367 17.9398L16.6509 17.344L21.6667 18.4923V18.8498C21.6638 19.596 21.3662 20.3108 20.8386 20.8384C20.3109 21.366 19.5962 21.6637 18.85 21.6665Z" fill="url(#paint1_linear_5550_9160)"/>
<defs>
<linearGradient id="paint0_linear_5550_9160" x1="13.9981" y1="6.5" x2="20.784" y2="7.57624" gradientUnits="userSpaceOnUse">
<stop offset="0.06" stop-color="#003191"/>
<stop offset="1" stop-color="#00AEEF"/>
</linearGradient>
<linearGradient id="paint1_linear_5550_9160" x1="5.49368" y1="2.1665" x2="28.1132" y2="5.75396" gradientUnits="userSpaceOnUse">
<stop offset="0.06" stop-color="#003191"/>
<stop offset="1" stop-color="#00AEEF"/>
</linearGradient>
</defs>
</svg>
