<svg width="27" height="26" viewBox="0 0 27 26" fill="none" xmlns="http://www.w3.org/2000/svg">
<g clip-path="url(#clip0_7041_8251)">
<path d="M15.0078 11.75V11.875H15.1328H18.8828C19.1812 11.875 19.4673 11.9935 19.6783 12.2045C19.8893 12.4155 20.0078 12.7016 20.0078 13C20.0078 13.2984 19.8893 13.5845 19.6783 13.7955C19.4673 14.0065 19.1812 14.125 18.8828 14.125H15.1328H15.0078V14.25V18C15.0078 18.2984 14.8893 18.5845 14.6783 18.7955C14.4673 19.0065 14.1812 19.125 13.8828 19.125C13.5844 19.125 13.2983 19.0065 13.0873 18.7955C12.8763 18.5845 12.7578 18.2984 12.7578 18V14.25V14.125H12.6328H8.88282C8.58445 14.125 8.2983 14.0065 8.08732 13.7955C7.87634 13.5845 7.75782 13.2984 7.75782 13C7.75782 12.7016 7.87634 12.4155 8.08732 12.2045C8.2983 11.9935 8.58445 11.875 8.88282 11.875H12.6328H12.7578V11.75V8C12.7578 7.70163 12.8763 7.41548 13.0873 7.2045C13.2983 6.99353 13.5844 6.875 13.8828 6.875C14.1812 6.875 14.4673 6.99353 14.6783 7.2045C14.8893 7.41548 15.0078 7.70163 15.0078 8V11.75ZM7.00764 2.71056C9.04269 1.35078 11.4353 0.625 13.8828 0.625C15.5079 0.625 17.1171 0.945089 18.6185 1.56699C20.1199 2.18889 21.4841 3.10043 22.6333 4.24955C23.7824 5.39868 24.6939 6.76289 25.3158 8.26429C25.9377 9.7657 26.2578 11.3749 26.2578 13C26.2578 15.4475 25.532 17.8401 24.1723 19.8752C22.8125 21.9102 20.8798 23.4964 18.6185 24.433C16.3573 25.3696 13.8691 25.6147 11.4686 25.1372C9.06806 24.6597 6.86305 23.4811 5.13237 21.7504C3.4017 20.0198 2.22309 17.8148 1.7456 15.4142C1.26811 13.0137 1.51317 10.5255 2.44981 8.26429C3.38644 6.00306 4.97258 4.07035 7.00764 2.71056ZM8.25767 21.4186C9.92272 22.5312 11.8803 23.125 13.8828 23.125C16.5681 23.125 19.1435 22.0583 21.0423 20.1595C22.9411 18.2607 24.0078 15.6853 24.0078 13C24.0078 10.9975 23.414 9.0399 22.3014 7.37485C21.1889 5.7098 19.6076 4.41206 17.7575 3.64572C15.9074 2.87938 13.8716 2.67887 11.9075 3.06955C9.94347 3.46022 8.13937 4.42454 6.72336 5.84054C5.30736 7.25655 4.34304 9.06065 3.95237 11.0247C3.56169 12.9888 3.7622 15.0246 4.52854 16.8747C5.29488 18.7248 6.59262 20.3061 8.25767 21.4186Z" fill="url(#paint0_linear_7041_8251)" stroke="white" stroke-width="0.25"/>
</g>
<defs>
<linearGradient id="paint0_linear_7041_8251" x1="13.8828" y1="0.5" x2="13.8828" y2="25.5" gradientUnits="userSpaceOnUse">
<stop stop-color="#34A1DB"/>
<stop offset="1" stop-color="#212595"/>
</linearGradient>
<clipPath id="clip0_7041_8251">
<rect width="26" height="26" fill="white" transform="translate(0.882812)"/>
</clipPath>
</defs>
</svg>
