<svg width="26" height="28" viewBox="0 0 26 28" fill="none" xmlns="http://www.w3.org/2000/svg">
<g clip-path="url(#clip0_5946_27264)">
<path d="M18.1062 -0.53977C18.6183 -0.50774 19.0134 -0.0688251 18.9998 0.452869V1.85213C23.0678 2.24679 25.1488 4.49518 25.1488 8.53749V19.7196C25.1488 24.2164 22.5857 26.5007 17.5419 26.5007H8.41822C3.37436 26.5007 0.811279 24.2164 0.811279 19.7196V8.53749C0.811279 5.84661 1.72835 3.92113 3.60951 2.79693L3.74146 2.72173C4.01416 2.59445 4.334 2.60611 4.59984 2.76045C4.91 2.94052 5.09315 3.28371 5.07263 3.64637C5.05212 4.00902 4.83147 4.32858 4.50306 4.47126C3.25679 5.21275 2.66893 6.50438 2.66893 8.53749V8.89628H19.8228C20.3357 8.89628 20.7516 9.31928 20.7516 9.84108C20.7516 10.3629 20.3357 10.7859 19.8228 10.7859H2.66893V19.7196C2.66893 23.152 4.33846 24.5752 8.41822 24.5991H17.5419C21.5628 24.5991 23.2794 23.1401 23.2794 19.7077V8.52554C23.2794 5.53566 21.9743 4.08856 18.9998 3.74173V4.65066C18.9312 5.13512 18.5142 5.48879 18.0333 5.47033C17.5525 5.45188 17.1629 5.06724 17.1304 4.5789V0.369152L17.1475 0.219608C17.1858 0.0236405 17.2846 -0.156353 17.4313 -0.293026C17.6147 -0.463867 17.8578 -0.552749 18.1062 -0.53977ZM18.6412 18.6545L18.7909 18.6642C19.0476 18.6964 19.2884 18.8141 19.4743 19.0013C19.6973 19.2259 19.8228 19.5319 19.8228 19.8512C19.8228 20.5117 19.2964 21.0471 18.647 21.0471C17.9977 21.0471 17.4713 20.5117 17.4713 19.8512C17.4713 19.1907 17.9977 18.6552 18.647 18.6552L18.6412 18.6545ZM13.0036 18.6552L13.151 18.6646C13.7308 18.7384 14.1793 19.2415 14.1793 19.8512C14.1793 20.5117 13.6529 21.0471 13.0036 21.0471C12.3542 21.0471 11.8278 20.5117 11.8278 19.8512C11.8278 19.1907 12.3542 18.6552 13.0036 18.6552ZM7.36619 18.6545L7.51571 18.6642C7.77242 18.6964 8.01318 18.8141 8.19905 19.0013C8.42209 19.2259 8.54755 19.5319 8.54755 19.8512C8.54755 20.5117 8.02116 21.0471 7.37183 21.0471C6.72249 21.0471 6.1961 20.5117 6.1961 19.8512C6.1961 19.1907 6.72249 18.6552 7.37183 18.6552L7.36619 18.6545ZM18.6412 13.8114L18.7909 13.8206C19.0476 13.8528 19.2884 13.9705 19.4743 14.1577C19.6973 14.3823 19.8228 14.6883 19.8228 15.0076C19.8228 15.6681 19.2964 16.2035 18.647 16.2035C17.9977 16.2035 17.4713 15.6681 17.4713 15.0076C17.4713 14.3471 17.9977 13.8116 18.647 13.8116L18.6412 13.8114ZM13.0036 13.8116L13.151 13.821C13.7308 13.8948 14.1793 14.3979 14.1793 15.0076C14.1793 15.6681 13.6529 16.2035 13.0036 16.2035C12.3542 16.2035 11.8278 15.6681 11.8278 15.0076C11.8278 14.3471 12.3542 13.8116 13.0036 13.8116ZM7.36619 13.8114L7.51571 13.8206C7.77242 13.8528 8.01318 13.9705 8.19905 14.1577C8.42209 14.3823 8.54755 14.6883 8.54755 15.0076C8.54755 15.6681 8.02116 16.2035 7.37183 16.2035C6.72249 16.2035 6.1961 15.6681 6.1961 15.0076C6.1961 14.3471 6.72249 13.8116 7.37183 13.8116L7.36619 13.8114ZM7.89503 -0.39709C8.37387 -0.39709 8.77628 -0.0311633 8.82973 0.452869V1.75645H14.144C14.657 1.75645 15.0728 2.17946 15.0728 2.70126C15.0728 3.22306 14.657 3.64606 14.144 3.64606H8.80621V4.59086C8.80623 4.84352 8.70676 5.08567 8.53002 5.2632C8.35328 5.44073 8.114 5.53886 7.86563 5.53566L7.72981 5.52209C7.28728 5.44432 6.95432 5.04912 6.96024 4.5789V0.452869L6.9865 0.31145C7.09502 -0.100689 7.46407 -0.39709 7.89503 -0.39709Z" fill="url(#paint0_linear_5946_27264)"/>
</g>
<defs>
<linearGradient id="paint0_linear_5946_27264" x1="12.98" y1="-0.541016" x2="12.98" y2="26.5007" gradientUnits="userSpaceOnUse">
<stop stop-color="#34A1DB"/>
<stop offset="1" stop-color="#212595"/>
</linearGradient>
<clipPath id="clip0_5946_27264">
<rect width="25.96" height="27.0417" fill="white"/>
</clipPath>
</defs>
</svg>
