<svg width="13" height="13" viewBox="0 0 13 13" fill="none" xmlns="http://www.w3.org/2000/svg">
<path d="M11.0285 6.08493C11.0285 3.35466 8.81495 1.14111 6.08468 1.14111C3.35441 1.14111 1.14087 3.35466 1.14087 6.08493C1.14087 8.81519 3.35441 11.0287 6.08468 11.0287C8.81495 11.0287 11.0285 8.81519 11.0285 6.08493ZM8.13898 5.66256L6.37703 7.78008C6.34134 7.82298 6.29665 7.8575 6.24613 7.88119C6.1956 7.90488 6.14048 7.91716 6.08468 7.91716C6.02888 7.91716 5.97376 7.90488 5.92324 7.88119C5.87271 7.8575 5.82802 7.82298 5.79233 7.78008L4.03038 5.66256C3.98421 5.60703 3.9548 5.5395 3.9456 5.46786C3.93639 5.39623 3.94778 5.32346 3.97842 5.25806C4.00907 5.19266 4.0577 5.13734 4.11863 5.09857C4.17956 5.05979 4.25028 5.03917 4.3225 5.03912H7.84687C7.91909 5.03917 7.9898 5.05979 8.05073 5.09857C8.11166 5.13734 8.1603 5.19266 8.19094 5.25806C8.22158 5.32346 8.23297 5.39623 8.22377 5.46786C8.21456 5.5395 8.18515 5.60703 8.13898 5.66256Z" fill="white"/>
</svg>
