<svg width="32" height="32" viewBox="0 0 32 32" fill="none" xmlns="http://www.w3.org/2000/svg">
<path d="M16.0003 31.1249C13.0089 31.125 10.0845 30.2381 7.59717 28.5761C5.10981 26.9142 3.17115 24.552 2.02634 21.7882C0.881539 19.0245 0.582017 15.9833 1.16565 13.0493C1.74929 10.1153 3.18987 7.4203 5.30522 5.30505C8.14174 2.46854 11.9889 0.875 16.0003 0.875C20.0118 0.875 23.8589 2.46854 26.6954 5.30506C29.5319 8.14157 31.1255 11.9887 31.1255 16.0002C31.1255 20.0116 29.5319 23.8587 26.6954 26.6953C25.2941 28.104 23.6273 29.2208 21.7915 29.9812C19.9557 30.7415 17.9873 31.1303 16.0003 31.1249ZM16.0003 31.1249C16.0002 31.1249 16.0001 31.1249 16 31.1249L16.0003 30.9999L16.0003 31.1249ZM2.15557 16.0002C2.15557 8.36652 8.36668 2.1554 16.0003 2.1554C23.634 2.1554 29.8451 8.36652 29.8451 16.0002C29.8451 23.6338 23.634 29.8449 16.0003 29.8449C8.36668 29.8449 2.15557 23.6338 2.15557 16.0002Z" fill="url(#paint0_linear_7041_8295)" stroke="url(#paint1_linear_7041_8295)" stroke-width="0.25"/>
<path d="M4.36133 16.0004L4.36133 16.0003C4.36133 9.58437 9.58095 4.36475 15.9969 4.36475C22.4128 4.36475 27.6363 9.58432 27.6363 16.0003V16.0003C27.6358 18.0427 27.0983 20.049 26.0778 21.8181L26.0778 21.8181C26.0215 21.9155 25.9406 21.9964 25.8431 22.0526C25.7457 22.1087 25.6353 22.1382 25.523 22.1381M4.36133 16.0004L25.2025 22.0523M4.36133 16.0004C4.36284 18.043 4.90144 20.0493 5.92311 21.8181C6.00798 21.9651 6.14778 22.0724 6.31176 22.1164C6.47574 22.1603 6.65046 22.1373 6.7975 22.0525C6.94453 21.9676 7.05183 21.8278 7.09579 21.6638C7.13974 21.4999 7.11676 21.3252 7.03191 21.1781M4.36133 16.0004L7.03191 21.1781M25.523 22.1381C25.4104 22.1384 25.2998 22.1088 25.2025 22.0523M25.523 22.1381C25.5228 22.1381 25.5227 22.1381 25.5225 22.1381L25.5227 22.0133L25.5231 22.1381C25.5231 22.1381 25.523 22.1381 25.523 22.1381ZM25.2025 22.0523C25.0557 21.9672 24.9487 21.8273 24.9051 21.6633C24.8614 21.4994 24.8847 21.3248 24.9697 21.178M25.2025 22.0523L24.9697 21.178M24.9697 21.178C25.8777 19.6035 26.3559 17.8179 26.3563 16.0003C26.3563 10.2902 21.7127 5.64477 16.0008 5.64477C10.2888 5.64477 5.64523 10.2902 5.64522 16.0003L24.9697 21.178ZM7.03191 21.1781C6.12382 19.6036 5.64561 17.818 5.64522 16.0003L7.03191 21.1781Z" fill="url(#paint2_linear_7041_8295)" stroke="url(#paint3_linear_7041_8295)" stroke-width="0.25"/>
<path d="M15.5478 8.15354C15.6678 8.27357 15.8306 8.341 16.0004 8.341C16.1701 8.341 16.3329 8.27357 16.453 8.15354C16.573 8.03351 16.6404 7.87071 16.6404 7.70097V5.00478C16.6404 4.83503 16.573 4.67224 16.453 4.55221C16.3329 4.43218 16.1701 4.36475 16.0004 4.36475C15.8306 4.36475 15.6678 4.43218 15.5478 4.55221C15.4278 4.67224 15.3604 4.83503 15.3604 5.00478V7.70097C15.3604 7.87071 15.4278 8.03351 15.5478 8.15354Z" fill="url(#paint4_linear_7041_8295)" stroke="url(#paint5_linear_7041_8295)" stroke-width="0.25"/>
<path d="M11.0568 6.15753C11.0148 6.08473 10.9589 6.02091 10.8922 5.96973C10.8255 5.91854 10.7494 5.881 10.6682 5.85923C10.587 5.83747 10.5023 5.83191 10.419 5.84287C10.3356 5.85383 10.2552 5.8811 10.1824 5.92313C10.1096 5.96515 10.0458 6.0211 9.99463 6.08779C9.94345 6.15448 9.9059 6.23059 9.88414 6.31179C9.86237 6.39298 9.85681 6.47767 9.86777 6.56102C9.87873 6.64436 9.90601 6.72473 9.94803 6.79754L9.94804 6.79755L11.8514 9.45259C11.9636 9.45246 12.0739 9.42281 12.1711 9.3666C12.2683 9.31037 12.349 9.22957 12.4051 9.13229C12.4612 9.03501 12.4907 8.92469 12.4907 8.81239C12.4906 8.7001 12.4611 8.58979 12.4049 8.49254L11.0568 6.15753ZM11.0568 6.15753L10.9486 6.22002L11.0568 6.15752L11.0568 6.15753Z" fill="url(#paint6_linear_7041_8295)" stroke="url(#paint7_linear_7041_8295)" stroke-width="0.25"/>
<path d="M8.49205 12.4054L8.4921 12.4054C8.58941 12.4616 8.69978 12.4911 8.81212 12.4911L8.81207 12.3662L8.81202 12.4911C8.95296 12.4911 9.08998 12.4446 9.20181 12.3589C9.31363 12.2731 9.39402 12.1528 9.4305 12.0167C9.46697 11.8805 9.45749 11.7361 9.40352 11.6059C9.34956 11.4758 9.25415 11.367 9.13208 11.2966C9.13207 11.2966 9.13205 11.2966 9.13204 11.2966L6.79706 9.94853L6.79705 9.94852C6.65001 9.86365 6.47528 9.84067 6.3113 9.88462C6.2301 9.90639 6.15399 9.94394 6.0873 9.99512C6.02062 10.0463 5.96466 10.1101 5.92264 10.1829C5.88062 10.2557 5.85334 10.3361 5.84238 10.4194C5.83142 10.5028 5.83698 10.5875 5.85874 10.6687C5.9027 10.8327 6.01 10.9725 6.15703 11.0573C6.15703 11.0573 6.15704 11.0573 6.15704 11.0573L8.49205 12.4054Z" fill="url(#paint8_linear_7041_8295)" stroke="url(#paint9_linear_7041_8295)" stroke-width="0.25"/>
<path d="M5.00429 16.6404H7.70048C7.87023 16.6404 8.03302 16.573 8.15305 16.453C8.27308 16.3329 8.34051 16.1701 8.34051 16.0004C8.34051 15.8306 8.27308 15.6678 8.15305 15.5478C8.03302 15.4278 7.87023 15.3604 7.70048 15.3604H5.00429C4.83454 15.3604 4.67175 15.4278 4.55172 15.5478C4.43169 15.6678 4.36426 15.8306 4.36426 16.0004C4.36426 16.1701 4.43169 16.3329 4.55172 16.453C4.67175 16.573 4.83454 16.6404 5.00429 16.6404Z" fill="url(#paint10_linear_7041_8295)" stroke="url(#paint11_linear_7041_8295)" stroke-width="0.25"/>
<path d="M8.49313 19.596L8.49314 19.596C8.64018 19.5111 8.81491 19.4881 8.97889 19.5321C9.14288 19.576 9.28268 19.6833 9.36755 19.8304C9.45242 19.9774 9.47541 20.1522 9.43145 20.3161C9.38749 20.4801 9.28019 20.6199 9.13315 20.7048M8.49313 19.596L6.79831 22.0528M8.49313 19.596L6.15816 20.9441C6.03607 21.0145 5.94064 21.1232 5.88667 21.2534C5.8327 21.3836 5.82322 21.528 5.85969 21.6641C5.89617 21.8003 5.97656 21.9205 6.08839 22.0063C6.20016 22.0921 6.33709 22.1385 6.47794 22.1385M8.49313 19.596L6.47794 22.1385M9.13315 20.7048L9.07066 20.5965L9.13316 20.7048L9.13315 20.7048ZM9.13315 20.7048L6.79831 22.0528M6.79831 22.0528L6.73566 21.9447L6.79814 22.0529L6.79831 22.0528ZM6.47794 22.1385C6.47802 22.1385 6.4781 22.1385 6.47817 22.1385L6.47812 22.0135L6.47782 22.1385C6.47786 22.1385 6.4779 22.1385 6.47794 22.1385Z" fill="url(#paint12_linear_7041_8295)" stroke="url(#paint13_linear_7041_8295)" stroke-width="0.25"/>
<path d="M25.5221 22.1385C25.663 22.1385 25.7999 22.0921 25.9117 22.0063C26.0235 21.9206 26.1039 21.8003 26.1404 21.6641C26.1769 21.528 26.1674 21.3836 26.1134 21.2534C26.0594 21.1232 25.964 21.0145 25.8419 20.9441L23.5083 19.5974C23.4358 19.5532 23.3553 19.5239 23.2714 19.5112C23.1869 19.4983 23.1007 19.5025 23.0178 19.5236C22.935 19.5446 22.8572 19.582 22.789 19.6335C22.7209 19.6851 22.6637 19.7498 22.621 19.8238C22.5782 19.8978 22.5507 19.9796 22.5401 20.0644C22.5295 20.1493 22.536 20.2353 22.5592 20.3176C22.5824 20.3999 22.6218 20.4766 22.6751 20.5434C22.7281 20.6097 22.7938 20.6649 22.8683 20.7056L25.2017 22.0527C25.2017 22.0528 25.2018 22.0528 25.2019 22.0528C25.2991 22.1093 25.4096 22.1388 25.5221 22.1385ZM25.5221 22.1385C25.522 22.1385 25.522 22.1385 25.5219 22.1385L25.522 22.0136L25.5223 22.1385C25.5223 22.1385 25.5222 22.1385 25.5221 22.1385Z" fill="url(#paint14_linear_7041_8295)" stroke="url(#paint15_linear_7041_8295)" stroke-width="0.25"/>
<path d="M24.3002 16.6404H26.9964C27.1661 16.6404 27.3289 16.573 27.4489 16.453C27.569 16.3329 27.6364 16.1701 27.6364 16.0004C27.6364 15.8306 27.569 15.6678 27.4489 15.5478C27.3289 15.4278 27.1661 15.3604 26.9964 15.3604H24.3002C24.1304 15.3604 23.9676 15.4278 23.8476 15.5478C23.7276 15.6678 23.6602 15.8306 23.6602 16.0004C23.6602 16.1701 23.7276 16.3329 23.8476 16.453C23.9676 16.573 24.1304 16.6404 24.3002 16.6404Z" fill="url(#paint16_linear_7041_8295)" stroke="url(#paint17_linear_7041_8295)" stroke-width="0.25"/>
<path d="M23.1891 12.4911C23.3014 12.4911 23.4117 12.4616 23.509 12.4054L23.5091 12.4054L25.8441 11.0573C25.8441 11.0573 25.8441 11.0573 25.8441 11.0573C25.9169 11.0153 25.9807 10.9594 26.0319 10.8927C26.0831 10.826 26.1206 10.7499 26.1424 10.6687C26.1642 10.5875 26.1697 10.5028 26.1587 10.4194C26.1478 10.3361 26.1205 10.2557 26.0785 10.1829C26.0365 10.1101 25.9805 10.0463 25.9138 9.99512C25.8471 9.94394 25.771 9.90639 25.6898 9.88462C25.6086 9.86286 25.5239 9.8573 25.4406 9.86826C25.3573 9.87922 25.2769 9.90649 25.2041 9.94852L25.2041 9.94852L22.8691 11.2966C22.8691 11.2966 22.8691 11.2966 22.869 11.2966C22.747 11.367 22.6516 11.4758 22.5976 11.6059C22.5436 11.7361 22.5342 11.8805 22.5706 12.0167C22.6071 12.1528 22.6875 12.2731 22.7993 12.3589C22.9111 12.4446 23.0481 12.4911 23.1891 12.4911ZM23.1891 12.4911C23.189 12.4911 23.189 12.4911 23.189 12.4911L23.1891 12.3661L23.1891 12.4911C23.1891 12.4911 23.1891 12.4911 23.1891 12.4911Z" fill="url(#paint18_linear_7041_8295)" stroke="url(#paint19_linear_7041_8295)" stroke-width="0.25"/>
<path d="M19.5955 8.49254C19.5393 8.58985 19.5098 8.70023 19.5098 8.81259C19.5098 8.92496 19.5394 9.03534 19.5956 9.13264C19.6517 9.22994 19.7326 9.31073 19.8299 9.36689C19.9272 9.42305 20.0375 9.4526 20.1499 9.45259L19.5955 8.49254ZM19.5955 8.49254L19.7038 8.55504L20.9436 6.15753L19.5955 8.49254ZM22.0524 6.79755L22.0524 6.79754L20.1499 9.45259C20.2623 9.4526 20.3727 9.42304 20.47 9.36688C20.5673 9.3107 20.6481 9.22989 20.7043 9.13257L20.5972 9.07074L20.7043 9.13257L22.0524 6.79755Z" fill="url(#paint20_linear_7041_8295)" stroke="url(#paint21_linear_7041_8295)" stroke-width="0.25"/>
<path d="M13.1441 18.4089L13.1441 18.409C13.1074 18.5317 13.1083 18.6624 13.1466 18.7843C13.1958 19.5048 13.5155 20.1803 14.0418 20.6753C14.5722 21.1739 15.2725 21.4519 16.0004 21.4527L16.0007 21.4527C16.7287 21.4519 17.429 21.1739 17.9593 20.6753C18.4857 20.1803 18.8053 19.5048 18.8546 18.7844C18.893 18.6628 18.894 18.5323 18.8572 18.41C18.8571 18.4098 18.8571 18.4096 18.857 18.4094L18.8531 18.3961C18.8151 17.9579 18.6136 17.1794 18.3192 16.1981C18.0204 15.2022 17.6215 13.9839 17.1873 12.6726C16.9378 11.919 16.7236 11.2717 16.6141 10.9051L16.6141 10.9051C16.5747 10.773 16.4936 10.6572 16.3831 10.5749C16.2725 10.4926 16.1383 10.4482 16.0005 10.4482L16.0006 10.5732L16.0006 10.4482C15.8628 10.4482 15.7286 10.4926 15.6181 10.5749C15.5075 10.6572 15.4265 10.773 15.387 10.9051L15.387 10.9051C15.2776 11.2717 15.0634 11.919 14.8139 12.672L14.8139 12.672C14.38 13.9835 13.9803 15.2019 13.681 16.1977C13.3863 17.1784 13.1845 17.9569 13.148 18.3959L13.1441 18.4089ZM14.4195 18.5662V18.5662C14.42 18.5603 14.4208 18.5529 14.4223 18.5422L14.4229 18.5423L14.4233 18.53C14.4292 18.3722 14.4922 18.0673 14.5988 17.6578C14.7043 17.253 14.8489 16.7583 15.0117 16.2279C15.3269 15.201 15.7087 14.0449 16.0024 13.1577C16.2961 14.045 16.6781 15.2013 16.9933 16.2284C17.1561 16.7588 17.3007 17.2535 17.4062 17.6582C17.5123 18.0657 17.5753 18.3695 17.5816 18.5277V18.5278V18.5279V18.5279V18.528V18.5281V18.5281V18.5282V18.5283V18.5283V18.5284V18.5285V18.5285V18.5286V18.5287V18.5287V18.5288V18.5288V18.5289V18.529V18.529V18.5291V18.5292V18.5292V18.5293V18.5294V18.5294V18.5295V18.5296V18.5296V18.5297V18.5298V18.5298V18.5299V18.53V18.53V18.5301V18.5302V18.5302V18.5303V18.5304V18.5304V18.5305V18.5306V18.5306V18.5307V18.5308V18.5308V18.5309V18.531V18.531V18.5311V18.5312V18.5313V18.5313V18.5314V18.5315V18.5315V18.5316V18.5317V18.5317V18.5318V18.5319V18.5319V18.532V18.5321V18.5321V18.5322V18.5323V18.5323V18.5324V18.5325V18.5325V18.5326V18.5327V18.5327V18.5328V18.5329V18.5329V18.533V18.5331V18.5331V18.5332V18.5333V18.5333V18.5334V18.5335V18.5335V18.5336V18.5337V18.5338V18.5338V18.5339V18.534V18.534V18.5341V18.5342V18.5342V18.5343V18.5344V18.5344V18.5345V18.5346V18.5346V18.5347V18.5348V18.5348V18.5349V18.535V18.535V18.5351V18.5352V18.5352V18.5353V18.5354V18.5355V18.5355V18.5356V18.5357V18.5357V18.5358V18.5359V18.5359V18.536V18.5361V18.5361V18.5362V18.5363V18.5363V18.5364V18.5365V18.5365V18.5366V18.5367V18.5367V18.5368V18.5369V18.537V18.537V18.5371V18.5372V18.5372V18.5373V18.5374V18.5374V18.5375V18.5376V18.5376V18.5377V18.5378V18.5378V18.5379V18.538V18.538V18.5381V18.5382V18.5383V18.5383V18.5384V18.5385V18.5385V18.5386V18.5387V18.5387V18.5388V18.5389V18.5389V18.539V18.5391V18.5391V18.5392V18.5393V18.5393V18.5394V18.5395V18.5396V18.5396V18.5397V18.5398V18.5398V18.5399V18.54V18.54V18.5401V18.5402V18.5402V18.5403V18.5404V18.5404V18.5405V18.5406V18.5406V18.5407V18.5408V18.5408V18.5409V18.541V18.5411V18.5411V18.5412V18.5413V18.5413V18.5414V18.5415V18.5415V18.5416V18.5417V18.5417V18.5418V18.5419V18.5419V18.542V18.5421V18.5421V18.5422V18.5423V18.5423V18.5424V18.5425V18.5425V18.5426V18.5427V18.5428V18.5428V18.5429V18.543V18.543V18.5431V18.5432V18.5432V18.5433V18.5434V18.5434V18.5435V18.5436V18.5436V18.5437V18.5438V18.5438V18.5439V18.544V18.544V18.5441V18.5442V18.5442V18.5443V18.5444V18.5444V18.5445V18.5446V18.5446V18.5447V18.5448V18.5448V18.5449V18.545V18.545V18.5451V18.5452V18.5453V18.5453V18.5454V18.5455V18.5455V18.5456V18.5457V18.5457V18.5458V18.5459V18.5459V18.546V18.5461V18.5461V18.5462V18.5463V18.5463V18.5464V18.5465V18.5465V18.5466V18.5467V18.5467V18.5468V18.5469V18.5469V18.547V18.5471V18.5471V18.5472V18.5473V18.5473V18.5474V18.5475V18.5475V18.5476V18.5476V18.5477V18.5478V18.5478V18.5479V18.548V18.548V18.5481V18.5482V18.5482V18.5483V18.5484V18.5484V18.5485V18.5486V18.5486V18.5487V18.5488V18.5488V18.5489V18.549V18.549V18.5491V18.5492V18.5492V18.5493V18.5494V18.5494V18.5495V18.5496V18.5496V18.5497V18.5497V18.5498V18.5499V18.5499V18.55V18.5501V18.5501V18.5502V18.5503V18.5503V18.5504V18.5505V18.5505V18.5506V18.5507V18.5507V18.5508V18.5508V18.5509V18.551V18.551V18.5511V18.5512V18.5512V18.5513V18.5514V18.5514V18.5515V18.5516V18.5516V18.5517V18.5517V18.5518V18.5519V18.5519V18.552V18.5521V18.5521V18.5522V18.5522V18.5523V18.5524V18.5524V18.5525V18.5526V18.5526V18.5527V18.5528V18.5528V18.5529V18.5529V18.553V18.5531V18.5531V18.5532V18.5533V18.5533V18.5534V18.5534V18.5535V18.5536V18.5536V18.5537V18.5538V18.5538V18.5539V18.5539V18.554V18.5541V18.5541V18.5542V18.5542V18.5543V18.5544V18.5544V18.5545V18.5546V18.5546V18.5547V18.5547V18.5548V18.5549V18.5549V18.555V18.555V18.5551V18.5552V18.5552V18.5553V18.5553V18.5554V18.5555V18.5555V18.5556V18.5556V18.5557V18.5558V18.5558V18.5559V18.5559V18.556V18.5561V18.5561V18.5562V18.5562V18.5563V18.5564V18.5564V18.5565V18.5565V18.5566V18.5567V18.5567V18.5568V18.5568V18.5569V18.557V18.557V18.5571V18.5571V18.5572V18.5573V18.5573V18.5574V18.5574V18.5575V18.5575V18.5576V18.5577V18.5577V18.5578V18.5578V18.5579V18.5579V18.558V18.5581V18.5581V18.5582V18.5582V18.5583V18.5583V18.5584V18.5585V18.5585V18.5586V18.5586V18.5587V18.5587V18.5588V18.5589V18.5589V18.559V18.559V18.5591V18.5591V18.5592V18.5593V18.5593V18.5594V18.5594V18.5595V18.5595V18.5596V18.5597V18.5597V18.5598V18.5598V18.5599V18.5599V18.56V18.5601V18.5601V18.5602V18.5602V18.5603V18.5603V18.5604V18.5605V18.5605V18.5606V18.5606V18.5607V18.5607V18.5608V18.5609V18.5609V18.561V18.561V18.5611V18.5611V18.5612V18.5613V18.5613V18.5614V18.5614V18.5615V18.5615V18.5616V18.5617V18.5617V18.5618V18.5618V18.5619V18.5619V18.562V18.5621V18.5621V18.5622V18.5622V18.5623V18.5623V18.5624V18.5625V18.5625V18.5626V18.5626V18.5627V18.5627V18.5628V18.5629V18.5629V18.563V18.563V18.5631V18.5631V18.5632V18.5633V18.5633V18.5634V18.5634V18.5635V18.5636V18.5636V18.5637V18.5637V18.5638V18.5638V18.5639V18.564V18.564V18.5641V18.5641V18.5642V18.5642V18.5643V18.5644V18.5644V18.5645V18.5645V18.5646V18.5647V18.5647V18.5648V18.5648V18.5649V18.5649V18.565V18.5651V18.5651V18.5652V18.5652V18.5653V18.5654V18.5654V18.5655V18.5655V18.5656V18.5656V18.5657V18.5658V18.5658V18.5659V18.5659V18.566V18.5661V18.5661V18.5662V18.5662V18.5663V18.5663V18.5664V18.5665V18.5665V18.5666V18.5666V18.5667V18.5668V18.5668V18.5669V18.5669V18.567V18.567V18.5671V18.5672V18.5672V18.5673V18.5673V18.5674V18.5675V18.5675V18.5676V18.5676V18.5677V18.5678V18.5678V18.5679V18.5679V18.568V18.568V18.5681V18.5682V18.5682V18.5683V18.5683V18.5684V18.5685V18.5685V18.5686V18.5686V18.5687V18.5688V18.5688V18.5689V18.5689V18.569V18.5691V18.5691V18.5692V18.5692V18.5693V18.5693V18.5694V18.5695V18.5695V18.5696V18.5696V18.5697V18.5698V18.5698V18.5699V18.5699V18.57V18.5701V18.5701V18.5702V18.5702V18.5703V18.5704V18.5704V18.5705V18.5705V18.5706V18.5707V18.5707V18.5708V18.5708V18.5709V18.571V18.571V18.5711V18.5711V18.5712V18.5713V18.5713V18.5714V18.5714V18.5715V18.5715V18.5716V18.5717V18.5717V18.5718V18.5718V18.5719V18.572V18.572V18.5721V18.5721V18.5722V18.5723V18.5723V18.5724V18.5724V18.5725V18.5726V18.5726V18.5727V18.5727V18.5728V18.5729V18.5729V18.573V18.573V18.5731V18.5732V18.5732V18.5733V18.5734V18.5734V18.5735V18.5735V18.5736V18.5737V18.5737V18.5738V18.5738V18.5739V18.574V18.574V18.5741V18.5741V18.5742V18.5743V18.5743V18.5744V18.5744V18.5745V18.5746V18.5746V18.5747V18.5747V18.5748V18.5749V18.5749V18.575V18.575V18.5751V18.5752V18.5752V18.5753V18.5753V18.5754V18.5755V18.5755V18.5756V18.5757V18.5757V18.5758V18.5758V18.5759V18.576V18.576V18.5761V18.5761V18.5762V18.5763V18.5763V18.5764V18.5764V18.5765V18.5766V18.5766V18.5767V18.5767V18.5768V18.5769V18.5769V18.577V18.5771V18.5771V18.5772V18.5772V18.5773V18.5774V18.5774V18.5775V18.5775V18.5776V18.5777V18.5777V18.5778V18.5779V18.5779V18.578V18.578V18.5781V18.5782V18.5782V18.5783V18.5783V18.5784V18.5785V18.5785V18.5786V18.5786V18.5787V18.5788V18.5788V18.5789V18.579V18.579V18.5791V18.5791V18.5792V18.5793V18.5793V18.5794V18.5794V18.5795V18.5796V18.5796V18.5797V18.5798V18.5798V18.5799V18.5799V18.58V18.5801V18.5801V18.5802V18.5803V18.5803V18.5804V18.5804V18.5805V18.5806V18.5806V18.5807V18.5807V18.5808V18.5809V18.5809V18.581V18.5811V18.5811V18.5812V18.5812V18.5813V18.5814V18.5814V18.5815V18.5816V18.5816V18.5817V18.5817V18.5818V18.5819V18.5819V18.582V18.5821V18.5821V18.5822V18.5822V18.5823V18.5824V18.5824V18.5825V18.5826V18.5826V18.5827V18.5827V18.5828V18.5829V18.5829V18.583V18.5831V18.5831V18.5832V18.5832V18.5833V18.5834V18.5834V18.5835V18.5836V18.5836V18.5837V18.5837V18.5838V18.5839V18.5839V18.584V18.5841V18.5841V18.5842V18.5842V18.5843V18.5844V18.5844V18.5845V18.5846V18.5846V18.5847V18.5848V18.5848V18.5849V18.5849V18.585V18.5851V18.5851V18.5852V18.5853V18.5853V18.5854V18.5854V18.5855V18.5856V18.5856V18.5857V18.5858V18.5858V18.5859V18.5859V18.586V18.5861V18.5861V18.5862V18.5863V18.5863V18.5864V18.5865V18.5865V18.5866V18.5866V18.5867V18.5868V18.5868V18.5869V18.587V18.587V18.5871V18.5872V18.5872V18.5873V18.5873V18.5874V18.5875V18.5875V18.5876V18.5877V18.5877V18.5878V18.5879V18.5879V18.588V18.588V18.5881V18.5882V18.5882V18.5883V18.5884V18.5884V18.5885V18.5886V18.5886V18.5887V18.5887V18.5888V18.5889V18.5889V18.589V18.5891V18.5891V18.5892V18.5893V18.5893V18.5894V18.5895V18.5895V18.5896V18.5896V18.5897C17.5816 19.009 17.415 19.4112 17.1185 19.7077C16.822 20.0042 16.4199 20.1707 16.0006 20.1707C15.5813 20.1707 15.1791 20.0042 14.8826 19.7077C14.5861 19.4112 14.4195 19.009 14.4195 18.5897V18.5896V18.5896V18.5895V18.5895V18.5894V18.5893V18.5893V18.5892V18.5892V18.5891V18.589V18.589V18.5889V18.5889V18.5888V18.5887V18.5887V18.5886V18.5886V18.5885V18.5884V18.5884V18.5883V18.5883V18.5882V18.5881V18.5881V18.588V18.588V18.5879V18.5878V18.5878V18.5877V18.5877V18.5876V18.5875V18.5875V18.5874V18.5874V18.5873V18.5872V18.5872V18.5871V18.5871V18.587V18.5869V18.5869V18.5868V18.5868V18.5867V18.5866V18.5866V18.5865V18.5864V18.5864V18.5863V18.5863V18.5862V18.5861V18.5861V18.586V18.586V18.5859V18.5858V18.5858V18.5857V18.5857V18.5856V18.5855V18.5855V18.5854V18.5854V18.5853V18.5852V18.5852V18.5851V18.5851V18.585V18.5849V18.5849V18.5848V18.5848V18.5847V18.5846V18.5846V18.5845V18.5845V18.5844V18.5843V18.5843V18.5842V18.5842V18.5841V18.584V18.584V18.5839V18.5839V18.5838V18.5837V18.5837V18.5836V18.5836V18.5835V18.5834V18.5834V18.5833V18.5833V18.5832V18.5831V18.5831V18.583V18.583V18.5829V18.5828V18.5828V18.5827V18.5827V18.5826V18.5825V18.5825V18.5824V18.5824V18.5823V18.5822V18.5822V18.5821V18.5821V18.582V18.5819V18.5819V18.5818V18.5818V18.5817V18.5816V18.5816V18.5815V18.5815V18.5814V18.5813V18.5813V18.5812V18.5812V18.5811V18.581V18.581V18.5809V18.5808V18.5808V18.5807V18.5807V18.5806V18.5806V18.5805V18.5804V18.5804V18.5803V18.5802V18.5802V18.5801V18.5801V18.58V18.58V18.5799V18.5798V18.5798V18.5797V18.5796V18.5796V18.5795V18.5795V18.5794V18.5794V18.5793V18.5792V18.5792V18.5791V18.5791V18.579V18.5789V18.5789V18.5788V18.5788V18.5787V18.5786V18.5786V18.5785V18.5785V18.5784V18.5783V18.5783V18.5782V18.5782V18.5781V18.578V18.578V18.5779V18.5779V18.5778V18.5777V18.5777V18.5776V18.5776V18.5775V18.5774V18.5774V18.5773V18.5773V18.5772V18.5771V18.5771V18.577V18.577V18.5769V18.5768V18.5768V18.5767V18.5767V18.5766V18.5765V18.5765V18.5764V18.5764V18.5763V18.5762V18.5762V18.5761V18.5761V18.576V18.5759V18.5759V18.5758V18.5758V18.5757V18.5756V18.5756V18.5755V18.5755V18.5754V18.5753V18.5753V18.5752V18.5752V18.5751V18.5751V18.575V18.5749V18.5749V18.5748V18.5748V18.5747V18.5746V18.5746V18.5745V18.5745V18.5744V18.5743V18.5743V18.5742V18.5742V18.5741V18.574V18.574V18.5739V18.5739V18.5738V18.5737V18.5737V18.5736V18.5736V18.5735V18.5734V18.5734V18.5733V18.5733V18.5732V18.5731V18.5731V18.573V18.573V18.5729V18.5729V18.5728V18.5727V18.5727V18.5726V18.5726V18.5725V18.5724V18.5724V18.5723V18.5723V18.5722V18.5721V18.5721V18.572V18.572V18.5719V18.5718V18.5718V18.5717V18.5717V18.5716V18.5716V18.5715V18.5714V18.5714V18.5713V18.5713V18.5712V18.5711V18.5711V18.571V18.571V18.5709V18.5708V18.5708V18.5707V18.5707V18.5706V18.5706V18.5705V18.5704V18.5704V18.5703V18.5703V18.5702V18.5701V18.5701V18.57V18.57V18.5699V18.5698V18.5698V18.5697V18.5697V18.5696V18.5696V18.5695V18.5694V18.5694V18.5693V18.5693V18.5692V18.5691V18.5691V18.569V18.569V18.5689V18.5688V18.5688V18.5687V18.5687V18.5686V18.5686V18.5685V18.5684V18.5684V18.5683V18.5683V18.5682V18.5681V18.5681V18.568V18.568V18.5679V18.5679V18.5678V18.5677V18.5677V18.5676V18.5676V18.5675V18.5674V18.5674V18.5673V18.5673V18.5672V18.5672V18.5671V18.567V18.567V18.5669V18.5669V18.5668V18.5667V18.5667V18.5666V18.5666V18.5665V18.5665V18.5664V18.5663V18.5663V18.5662Z" fill="url(#paint22_linear_7041_8295)" stroke="url(#paint23_linear_7041_8295)" stroke-width="0.25"/>
<path d="M15.9334 29.0813L15.9334 29.0813C14.8203 29.0572 13.5843 28.3819 13.3762 26.9139C13.2404 25.9717 13.5301 24.4091 15.5217 22.1872L15.9334 29.0813ZM15.9334 29.0813H15.9361M15.9334 29.0813H15.9361M15.9361 29.0813H16.0004M15.9361 29.0813H16.0004M15.9586 27.9276H15.9972C16.632 27.9276 17.3228 27.5889 17.4663 26.8196C17.5624 26.3134 17.4842 25.2429 16.081 23.5025C16.0537 23.5359 16.0268 23.569 16.0005 23.6018M15.9586 27.9276L15.9613 27.8026C15.9609 27.8026 15.9604 27.8026 15.96 27.8026M15.9586 27.9276V27.8026H15.96M15.9586 27.9276C15.3695 27.9147 14.6395 27.5986 14.5197 26.7514M15.96 27.8026H15.9972C16.5955 27.8026 17.2148 27.4863 17.3435 26.7967L17.3435 26.7963C17.43 26.3407 17.3738 25.3129 16.0005 23.6018M15.96 27.8026C15.4036 27.79 14.7512 27.4952 14.6435 26.734M16.0005 23.6018C15.9741 23.569 15.9472 23.5359 15.9199 23.5025C14.5567 25.1939 14.4502 26.2499 14.5197 26.7514M16.0005 23.6018C14.667 25.2638 14.5806 26.2796 14.6435 26.734M14.6435 26.734C14.6435 26.7341 14.6435 26.7342 14.6435 26.7342L14.5197 26.7514M14.6435 26.734C14.6435 26.734 14.6435 26.7339 14.6435 26.7339L14.5197 26.7514M16.0004 29.0813C17.3046 29.0813 18.3761 28.2506 18.6019 27.0324L16.0004 29.0813ZM15.7374 22.0298C15.6552 22.0665 15.5818 22.1201 15.5217 22.1872L18.6019 27.0323C18.7802 26.0743 18.5293 24.4792 16.4753 22.1872C16.4153 22.1202 16.3418 22.0665 16.2596 22.0298C16.1775 21.9931 16.0885 21.9741 15.9985 21.9741C15.9085 21.9741 15.8195 21.9931 15.7374 22.0298Z" fill="url(#paint24_linear_7041_8295)" stroke="url(#paint25_linear_7041_8295)" stroke-width="0.25"/>
<path d="M14.5264 26.7517C14.4769 26.4015 14.5342 25.9927 14.697 25.542C14.7397 25.4235 14.7374 25.2934 14.6906 25.1764M14.5264 26.7517L12.5989 23.1883C12.6475 23.1341 12.7071 23.0908 12.7737 23.0613C12.8403 23.0318 12.9124 23.0167 12.9852 23.0171M14.5264 26.7517C14.5387 26.8392 14.559 26.9254 14.587 27.0092M14.5264 26.7517L14.587 27.0092M14.6906 25.1764L14.8067 25.1301C14.8067 25.13 14.8067 25.13 14.8067 25.13C14.8067 25.13 14.8067 25.13 14.8067 25.1299L14.6906 25.1764ZM14.6906 25.1764C14.4447 24.5596 14.0005 23.8907 13.3715 23.189C13.3229 23.1346 13.2634 23.0912 13.1968 23.0616C13.1302 23.0319 13.0581 23.0168 12.9852 23.0171M12.9852 23.0171L12.9859 22.8921C12.9857 22.8921 12.9855 22.8921 12.9853 22.8921C12.9851 22.8921 12.9849 22.8921 12.9847 22.8921L12.9852 23.0171ZM12.9834 24.5329C12.2178 25.546 12.1719 26.1511 12.2096 26.4174L12.2098 26.419L12.2098 26.419C12.2267 26.5501 12.2826 26.673 12.3704 26.7717C12.4583 26.8704 12.5738 26.9403 12.702 26.9723L12.7075 26.9737L12.7075 26.9738C12.8312 27.0108 12.9611 27.0221 13.0893 27.0071C13.1895 26.9955 13.2869 26.9679 13.3781 26.9257L12.9834 24.5329ZM12.9834 24.5329C13.1896 24.8044 13.3696 25.095 13.5208 25.4007C13.36 25.9371 13.311 26.4435 13.3764 26.9126L12.9834 24.5329ZM14.587 27.0092C14.6152 27.0938 14.621 27.1842 14.6039 27.2716M14.587 27.0092L14.6039 27.2716M14.6039 27.2716C14.5867 27.3591 14.5472 27.4406 14.4891 27.5082L14.6039 27.2716ZM14.7265 27.2957C14.7479 27.187 14.7406 27.0747 14.7055 26.9696L12.3839 28.0818C12.5779 28.1388 12.7791 28.1676 12.9813 28.1674V28.2924C12.9814 28.2924 12.9814 28.2924 12.9815 28.2924C13.5943 28.2924 14.1899 28.0416 14.5833 27.5903L14.5839 27.5896C14.6561 27.5056 14.7052 27.4044 14.7265 27.2957Z" fill="url(#paint26_linear_7041_8295)" stroke="url(#paint27_linear_7041_8295)" stroke-width="0.25"/>
<path d="M19.0281 28.2927L19.0263 28.2928C18.4152 28.2927 17.8126 28.0433 17.4256 27.5931C17.3519 27.5095 17.3014 27.408 17.279 27.2988C17.2566 27.1894 17.2631 27.0761 17.2981 26.97C17.317 26.9119 17.3322 26.8527 17.3436 26.7928C17.4058 26.457 17.3582 26.0503 17.1892 25.5802C17.1362 25.4328 17.139 25.2712 17.1971 25.1258L19.0281 28.2927ZM19.0281 28.2927C19.2231 28.2901 19.417 28.2619 19.6048 28.2091C20.3601 28.0058 20.9022 27.4357 21.0401 26.6834C21.175 25.9604 20.9893 24.7722 19.4929 23.1008L19.4929 23.1008M19.0281 28.2927L19.4929 23.1008M19.4929 23.1008C19.4328 23.0337 19.3593 22.9801 19.2772 22.9434C19.195 22.9067 19.106 22.8877 19.016 22.8877C18.926 22.8877 18.8371 22.9067 18.7549 22.9434C18.6728 22.9801 18.5993 23.0337 18.5393 23.1007M19.4929 23.1008L18.5393 23.1007M18.5393 23.1007C17.9042 23.8079 17.4509 24.4905 17.1972 25.1258L18.5393 23.1007ZM18.9032 27.0061C18.8055 26.9936 18.7104 26.966 18.6214 26.9246C18.6907 26.4517 18.6412 25.9397 18.4811 25.4026C18.6331 25.0971 18.8136 24.8067 19.0204 24.5354C19.8095 25.5795 19.8362 26.1924 19.7868 26.4553L19.7867 26.4555C19.7213 26.8071 19.4509 26.9331 19.2768 26.9796L19.2768 26.9796L19.2759 26.9798C19.1546 27.0131 19.028 27.022 18.9032 27.0061Z" fill="url(#paint28_linear_7041_8295)" stroke="url(#paint29_linear_7041_8295)" stroke-width="0.25"/>
<path d="M7.73654 24.1803C7.64703 24.2697 7.58602 24.3836 7.56123 24.5077C7.53644 24.6318 7.54898 24.7604 7.59727 24.8773C7.64556 24.9943 7.72742 25.0943 7.83252 25.1647C7.93762 25.2352 8.06124 25.2729 8.18776 25.2731L8.18804 25.2731L8.55236 24.9968L8.64073 25.0852L8.64084 25.0851C8.64084 25.0851 8.64085 25.0851 8.64086 25.0851L11.2281 22.4992C11.2281 22.4991 11.2281 22.4991 11.2281 22.4991C11.3482 22.3791 11.4157 22.2164 11.4158 22.0466C11.4159 21.8769 11.3485 21.714 11.2285 21.5939C11.1085 21.4738 10.9457 21.4063 10.776 21.4063C10.6062 21.4062 10.4434 21.4735 10.3233 21.5935L10.3232 21.5936L7.73654 24.1803ZM7.73654 24.1803L7.82488 24.2687L7.73649 24.1803L7.73654 24.1803Z" fill="url(#paint30_linear_7041_8295)" stroke="url(#paint31_linear_7041_8295)" stroke-width="0.25"/>
<path d="M24.2645 24.1803C24.3541 24.2697 24.4151 24.3837 24.4399 24.5079C24.4646 24.632 24.452 24.7607 24.4036 24.8777C24.3553 24.9947 24.2733 25.0947 24.1681 25.1651C24.063 25.2354 23.9395 25.2729 23.8131 25.2731L24.2645 24.1803ZM24.2645 24.1803L24.2646 24.1803L24.1763 24.2686L24.2645 24.1803ZM23.5679 25.2242C23.6454 25.2564 23.7285 25.273 23.8125 25.2731L20.7736 22.4991C20.7736 22.4991 20.7736 22.4991 20.7736 22.4992L23.3602 25.0851C23.3602 25.0851 23.3602 25.0851 23.3602 25.0851C23.4196 25.1447 23.4902 25.1919 23.5679 25.2242Z" fill="url(#paint32_linear_7041_8295)" stroke="url(#paint33_linear_7041_8295)" stroke-width="0.25"/>
<defs>
<linearGradient id="paint0_linear_7041_8295" x1="16.0002" y1="1" x2="16.0002" y2="31" gradientUnits="userSpaceOnUse">
<stop stop-color="#34A1DB"/>
<stop offset="1" stop-color="#212595"/>
</linearGradient>
<linearGradient id="paint1_linear_7041_8295" x1="16.0002" y1="1" x2="16.0002" y2="31" gradientUnits="userSpaceOnUse">
<stop stop-color="#34A1DB"/>
<stop offset="1" stop-color="#212595"/>
</linearGradient>
<linearGradient id="paint2_linear_7041_8295" x1="15.9988" y1="4.48975" x2="15.9988" y2="22.0132" gradientUnits="userSpaceOnUse">
<stop stop-color="#34A1DB"/>
<stop offset="1" stop-color="#212595"/>
</linearGradient>
<linearGradient id="paint3_linear_7041_8295" x1="15.9988" y1="4.48975" x2="15.9988" y2="22.0132" gradientUnits="userSpaceOnUse">
<stop stop-color="#34A1DB"/>
<stop offset="1" stop-color="#212595"/>
</linearGradient>
<linearGradient id="paint4_linear_7041_8295" x1="16.0004" y1="4.48975" x2="16.0004" y2="8.216" gradientUnits="userSpaceOnUse">
<stop stop-color="#34A1DB"/>
<stop offset="1" stop-color="#212595"/>
</linearGradient>
<linearGradient id="paint5_linear_7041_8295" x1="16.0004" y1="4.48975" x2="16.0004" y2="8.216" gradientUnits="userSpaceOnUse">
<stop stop-color="#34A1DB"/>
<stop offset="1" stop-color="#212595"/>
</linearGradient>
<linearGradient id="paint6_linear_7041_8295" x1="11.1765" y1="5.9624" x2="11.1765" y2="9.32759" gradientUnits="userSpaceOnUse">
<stop stop-color="#34A1DB"/>
<stop offset="1" stop-color="#212595"/>
</linearGradient>
<linearGradient id="paint7_linear_7041_8295" x1="11.1765" y1="5.9624" x2="11.1765" y2="9.32759" gradientUnits="userSpaceOnUse">
<stop stop-color="#34A1DB"/>
<stop offset="1" stop-color="#212595"/>
</linearGradient>
<linearGradient id="paint8_linear_7041_8295" x1="7.64461" y1="9.98779" x2="7.64461" y2="12.3661" gradientUnits="userSpaceOnUse">
<stop stop-color="#34A1DB"/>
<stop offset="1" stop-color="#212595"/>
</linearGradient>
<linearGradient id="paint9_linear_7041_8295" x1="7.64461" y1="9.98779" x2="7.64461" y2="12.3661" gradientUnits="userSpaceOnUse">
<stop stop-color="#34A1DB"/>
<stop offset="1" stop-color="#212595"/>
</linearGradient>
<linearGradient id="paint10_linear_7041_8295" x1="6.35238" y1="15.4854" x2="6.35238" y2="16.5154" gradientUnits="userSpaceOnUse">
<stop stop-color="#34A1DB"/>
<stop offset="1" stop-color="#212595"/>
</linearGradient>
<linearGradient id="paint11_linear_7041_8295" x1="6.35238" y1="15.4854" x2="6.35238" y2="16.5154" gradientUnits="userSpaceOnUse">
<stop stop-color="#34A1DB"/>
<stop offset="1" stop-color="#212595"/>
</linearGradient>
<linearGradient id="paint12_linear_7041_8295" x1="7.64559" y1="19.6353" x2="7.64559" y2="22.0135" gradientUnits="userSpaceOnUse">
<stop stop-color="#34A1DB"/>
<stop offset="1" stop-color="#212595"/>
</linearGradient>
<linearGradient id="paint13_linear_7041_8295" x1="7.64559" y1="19.6353" x2="7.64559" y2="22.0135" gradientUnits="userSpaceOnUse">
<stop stop-color="#34A1DB"/>
<stop offset="1" stop-color="#212595"/>
</linearGradient>
<linearGradient id="paint14_linear_7041_8295" x1="24.3487" y1="19.6289" x2="24.3487" y2="22.0135" gradientUnits="userSpaceOnUse">
<stop stop-color="#34A1DB"/>
<stop offset="1" stop-color="#212595"/>
</linearGradient>
<linearGradient id="paint15_linear_7041_8295" x1="24.3487" y1="19.6289" x2="24.3487" y2="22.0135" gradientUnits="userSpaceOnUse">
<stop stop-color="#34A1DB"/>
<stop offset="1" stop-color="#212595"/>
</linearGradient>
<linearGradient id="paint16_linear_7041_8295" x1="25.6483" y1="15.4854" x2="25.6483" y2="16.5154" gradientUnits="userSpaceOnUse">
<stop stop-color="#34A1DB"/>
<stop offset="1" stop-color="#212595"/>
</linearGradient>
<linearGradient id="paint17_linear_7041_8295" x1="25.6483" y1="15.4854" x2="25.6483" y2="16.5154" gradientUnits="userSpaceOnUse">
<stop stop-color="#34A1DB"/>
<stop offset="1" stop-color="#212595"/>
</linearGradient>
<linearGradient id="paint18_linear_7041_8295" x1="24.3565" y1="9.98779" x2="24.3565" y2="12.3661" gradientUnits="userSpaceOnUse">
<stop stop-color="#34A1DB"/>
<stop offset="1" stop-color="#212595"/>
</linearGradient>
<linearGradient id="paint19_linear_7041_8295" x1="24.3565" y1="9.98779" x2="24.3565" y2="12.3661" gradientUnits="userSpaceOnUse">
<stop stop-color="#34A1DB"/>
<stop offset="1" stop-color="#212595"/>
</linearGradient>
<linearGradient id="paint20_linear_7041_8295" x1="20.824" y1="5.9624" x2="20.824" y2="9.32759" gradientUnits="userSpaceOnUse">
<stop stop-color="#34A1DB"/>
<stop offset="1" stop-color="#212595"/>
</linearGradient>
<linearGradient id="paint21_linear_7041_8295" x1="20.824" y1="5.9624" x2="20.824" y2="9.32759" gradientUnits="userSpaceOnUse">
<stop stop-color="#34A1DB"/>
<stop offset="1" stop-color="#212595"/>
</linearGradient>
<linearGradient id="paint22_linear_7041_8295" x1="16.0006" y1="10.5732" x2="16.0006" y2="21.3277" gradientUnits="userSpaceOnUse">
<stop stop-color="#34A1DB"/>
<stop offset="1" stop-color="#212595"/>
</linearGradient>
<linearGradient id="paint23_linear_7041_8295" x1="16.0006" y1="10.5732" x2="16.0006" y2="21.3277" gradientUnits="userSpaceOnUse">
<stop stop-color="#34A1DB"/>
<stop offset="1" stop-color="#212595"/>
</linearGradient>
<linearGradient id="paint24_linear_7041_8295" x1="15.9983" y1="22.0991" x2="15.9983" y2="28.9563" gradientUnits="userSpaceOnUse">
<stop stop-color="#34A1DB"/>
<stop offset="1" stop-color="#212595"/>
</linearGradient>
<linearGradient id="paint25_linear_7041_8295" x1="15.9983" y1="22.0991" x2="15.9983" y2="28.9563" gradientUnits="userSpaceOnUse">
<stop stop-color="#34A1DB"/>
<stop offset="1" stop-color="#212595"/>
</linearGradient>
<linearGradient id="paint26_linear_7041_8295" x1="12.8867" y1="23.0171" x2="12.8867" y2="28.1674" gradientUnits="userSpaceOnUse">
<stop stop-color="#34A1DB"/>
<stop offset="1" stop-color="#212595"/>
</linearGradient>
<linearGradient id="paint27_linear_7041_8295" x1="12.8867" y1="23.0171" x2="12.8867" y2="28.1674" gradientUnits="userSpaceOnUse">
<stop stop-color="#34A1DB"/>
<stop offset="1" stop-color="#212595"/>
</linearGradient>
<linearGradient id="paint28_linear_7041_8295" x1="19.1138" y1="23.0127" x2="19.1138" y2="28.1677" gradientUnits="userSpaceOnUse">
<stop stop-color="#34A1DB"/>
<stop offset="1" stop-color="#212595"/>
</linearGradient>
<linearGradient id="paint29_linear_7041_8295" x1="19.1138" y1="23.0127" x2="19.1138" y2="28.1677" gradientUnits="userSpaceOnUse">
<stop stop-color="#34A1DB"/>
<stop offset="1" stop-color="#212595"/>
</linearGradient>
<linearGradient id="paint30_linear_7041_8295" x1="9.4823" y1="21.5312" x2="9.4823" y2="25.1481" gradientUnits="userSpaceOnUse">
<stop stop-color="#34A1DB"/>
<stop offset="1" stop-color="#212595"/>
</linearGradient>
<linearGradient id="paint31_linear_7041_8295" x1="9.4823" y1="21.5312" x2="9.4823" y2="25.1481" gradientUnits="userSpaceOnUse">
<stop stop-color="#34A1DB"/>
<stop offset="1" stop-color="#212595"/>
</linearGradient>
<linearGradient id="paint32_linear_7041_8295" x1="22.5191" y1="21.5312" x2="22.5191" y2="25.1481" gradientUnits="userSpaceOnUse">
<stop stop-color="#34A1DB"/>
<stop offset="1" stop-color="#212595"/>
</linearGradient>
<linearGradient id="paint33_linear_7041_8295" x1="22.5191" y1="21.5312" x2="22.5191" y2="25.1481" gradientUnits="userSpaceOnUse">
<stop stop-color="#34A1DB"/>
<stop offset="1" stop-color="#212595"/>
</linearGradient>
</defs>
</svg>
