<svg width="18" height="18" viewBox="0 0 18 18" fill="none" xmlns="http://www.w3.org/2000/svg">
<path d="M5.74066 9H12.3296Z" fill="#0062B6"/>
<path d="M7.3125 12.375H5.0625C4.16739 12.375 3.30895 12.0194 2.67601 11.3865C2.04308 10.7536 1.6875 9.89511 1.6875 9C1.6875 8.10489 2.04308 7.24645 2.67601 6.61351C3.30895 5.98058 4.16739 5.625 5.0625 5.625H7.3125M10.6875 5.625H12.9375C13.8326 5.625 14.6911 5.98058 15.324 6.61351C15.9569 7.24645 16.3125 8.10489 16.3125 9C16.3125 9.89511 15.9569 10.7536 15.324 11.3865C14.6911 12.0194 13.8326 12.375 12.9375 12.375H10.6875M5.74066 9H12.3296" stroke="#0062B6" stroke-width="2" stroke-linecap="round" stroke-linejoin="round"/>
</svg>
