<svg width="26" height="26" viewBox="0 0 26 26" fill="none" xmlns="http://www.w3.org/2000/svg">
<path d="M24 12.8852C24 18.6271 19.3597 23.2705 13.644 23.2705C12.3992 23.2705 11.2043 23.0508 10.099 22.6514C8.84433 22.192 4.19402 25.2177 3.21816 24.339C2.2423 23.4602 4.89109 18.6171 4.30359 17.3888C3.64637 16.0208 3.27791 14.4929 3.27791 12.8852C3.27791 7.14337 7.91825 2.5 13.634 2.5C19.3498 2.5 23.9901 7.15335 23.9901 12.8852H24Z" stroke="url(#paint0_linear_5946_27348)" stroke-width="2"/>
<path d="M8.34998 14.26C9.09556 14.26 9.69995 13.6556 9.69995 12.91C9.69995 12.1644 9.09556 11.5601 8.34998 11.5601C7.60439 11.5601 7 12.1644 7 12.91C7 13.6556 7.60439 14.26 8.34998 14.26Z" fill="url(#paint1_linear_5946_27348)"/>
<path d="M13.15 14.26C13.8956 14.26 14.5001 13.6556 14.5001 12.91C14.5001 12.1644 13.8956 11.5601 13.15 11.5601C12.4044 11.5601 11.8 12.1644 11.8 12.91C11.8 13.6556 12.4044 14.26 13.15 14.26Z" fill="url(#paint2_linear_5946_27348)"/>
<path d="M17.9601 14.26C18.7057 14.26 19.3101 13.6556 19.3101 12.91C19.3101 12.1644 18.7057 11.5601 17.9601 11.5601C17.2145 11.5601 16.6101 12.1644 16.6101 12.91C16.6101 13.6556 17.2145 14.26 17.9601 14.26Z" fill="url(#paint3_linear_5946_27348)"/>
<defs>
<linearGradient id="paint0_linear_5946_27348" x1="13.4946" y1="25.4973" x2="13.4946" y2="1.49143" gradientUnits="userSpaceOnUse">
<stop stop-color="#34A1DB"/>
<stop offset="1" stop-color="#212595"/>
</linearGradient>
<linearGradient id="paint1_linear_5946_27348" x1="7" y1="12.91" x2="9.69995" y2="12.91" gradientUnits="userSpaceOnUse">
<stop stop-color="#34A1DB"/>
<stop offset="1" stop-color="#212595"/>
</linearGradient>
<linearGradient id="paint2_linear_5946_27348" x1="11.8" y1="12.91" x2="14.5001" y2="12.91" gradientUnits="userSpaceOnUse">
<stop stop-color="#34A1DB"/>
<stop offset="1" stop-color="#212595"/>
</linearGradient>
<linearGradient id="paint3_linear_5946_27348" x1="16.6001" y1="12.91" x2="19.3101" y2="12.91" gradientUnits="userSpaceOnUse">
<stop stop-color="#34A1DB"/>
<stop offset="1" stop-color="#212595"/>
</linearGradient>
</defs>
</svg>
