<svg width="20" height="34" viewBox="0 0 20 34" fill="none" xmlns="http://www.w3.org/2000/svg">
<rect width="11" height="34" transform="matrix(-1 0 0 1 9 0)" fill="#A3E8FF"/>
<ellipse cx="11" cy="17" rx="11" ry="17" transform="matrix(-1 0 0 1 20 0)" fill="#A3E8FF"/>
<path d="M11.5828 25.1486C11.0336 25.6979 10.1431 25.6979 9.5937 25.1486L2.71943 18.2676C1.62179 17.1688 1.62223 15.3884 2.7204 14.2903L9.59876 7.41187C10.1481 6.86262 11.0386 6.86262 11.588 7.41187C12.1373 7.96112 12.1373 8.85173 11.588 9.40097L5.70072 15.2883C5.15145 15.8375 5.15145 16.728 5.70072 17.2774L11.5828 23.1595C12.1322 23.7087 12.1322 24.5993 11.5828 25.1486Z" fill="white"/>
</svg>
