<svg width="18" height="18" viewBox="0 0 18 18" fill="none" xmlns="http://www.w3.org/2000/svg">
<path d="M9 1.6875C4.96793 1.6875 1.6875 4.96793 1.6875 9C1.6875 13.0321 4.96793 16.3125 9 16.3125C13.0321 16.3125 16.3125 13.0321 16.3125 9C16.3125 4.96793 13.0321 1.6875 9 1.6875ZM7.23445 5.79445C7.67988 5.3223 8.30672 5.0625 9 5.0625C9.69328 5.0625 10.3145 5.32406 10.7617 5.79867C11.2148 6.27961 11.4353 6.92578 11.3832 7.62047C11.2792 9 10.2104 10.125 9 10.125C7.78957 10.125 6.71871 9 6.61676 7.62012C6.56508 6.9198 6.78516 6.27152 7.23445 5.79445V5.79445ZM9 15.1875C8.17399 15.188 7.35628 15.0227 6.59537 14.7013C5.83445 14.3799 5.14582 13.909 4.57031 13.3165C4.89992 12.8464 5.3199 12.4468 5.8057 12.1409C6.70184 11.5664 7.83598 11.25 9 11.25C10.164 11.25 11.2982 11.5664 12.1932 12.1409C12.6795 12.4466 13.0998 12.8463 13.4297 13.3165C12.8542 13.9091 12.1656 14.38 11.4047 14.7014C10.6438 15.0228 9.82602 15.1881 9 15.1875V15.1875Z" fill="#0062B6"/>
</svg>
