<svg width="12" height="10" viewBox="0 0 12 10" fill="none" xmlns="http://www.w3.org/2000/svg">
<path fill-rule="evenodd" clip-rule="evenodd" d="M5.65059 9.97937C8.64701 9.97937 11.0761 7.76498 11.0761 5.03339C11.0761 2.3018 8.64701 0.0874023 5.65059 0.0874023C2.65417 0.0874023 0.225098 2.3018 0.225098 5.03339C0.225098 7.76498 2.65417 9.97937 5.65059 9.97937ZM5.447 8.24892C5.36118 8.17069 5.31297 8.06459 5.31297 7.95395V5.45108H2.56745C2.44609 5.45108 2.3297 5.40713 2.24389 5.3289C2.15807 5.25067 2.10986 5.14457 2.10986 5.03394C2.10986 4.9233 2.15807 4.8172 2.24389 4.73897C2.3297 4.66074 2.44609 4.61679 2.56745 4.61679H5.31297V2.11392C5.31297 2.00329 5.36118 1.89719 5.447 1.81896C5.53281 1.74073 5.6492 1.69678 5.77056 1.69678C5.89192 1.69678 6.00831 1.74073 6.09412 1.81896C6.17994 1.89719 6.22815 2.00329 6.22815 2.11392V4.61679H8.97367C9.09503 4.61679 9.21142 4.66074 9.29723 4.73897C9.38304 4.8172 9.43125 4.9233 9.43125 5.03394C9.43125 5.14457 9.38304 5.25067 9.29723 5.3289C9.21142 5.40713 9.09503 5.45108 8.97367 5.45108H6.22815V7.95395C6.22815 8.06459 6.17994 8.17069 6.09412 8.24892C6.00831 8.32715 5.89192 8.3711 5.77056 8.3711C5.6492 8.3711 5.53281 8.32715 5.447 8.24892Z" fill="white"/>
</svg>
