<svg width="25" height="29" viewBox="0 0 25 29" fill="none" xmlns="http://www.w3.org/2000/svg">
<g clip-path="url(#clip0_5946_27339)">
<path fill-rule="evenodd" clip-rule="evenodd" d="M14.247 14.3057C11.7058 16.085 11.0872 19.5929 12.8668 22.1343C14.6461 24.6754 18.154 25.294 20.6954 23.5147C23.2368 21.7352 23.8551 18.2273 22.0758 15.6861C20.2963 13.1447 16.7884 12.5261 14.247 14.3057ZM14.914 15.2582C16.9298 13.8466 19.7119 14.3373 21.1233 16.3529C22.5347 18.3684 22.0442 21.1508 20.0284 22.5622C18.0128 23.9736 15.2307 23.4829 13.8191 21.4673C12.4079 19.4517 12.8984 16.6698 14.914 15.2582Z" fill="url(#paint0_linear_5946_27339)"/>
<path fill-rule="evenodd" clip-rule="evenodd" d="M20.0221 23.5613L20.6179 24.4124C20.7081 24.5343 20.8423 24.6161 20.992 24.6405C21.1416 24.6648 21.2948 24.6298 21.419 24.5428C21.5432 24.4559 21.6285 24.3239 21.6568 24.1749C21.6851 24.026 21.6541 23.8719 21.5705 23.7454L20.9747 22.8943C20.8845 22.7724 20.7503 22.6906 20.6006 22.6662C20.451 22.6419 20.2978 22.6769 20.1736 22.7639C20.0494 22.8508 19.964 22.9828 19.9358 23.1318C19.9075 23.2807 19.9384 23.4348 20.0221 23.5613Z" fill="black"/>
<path fill-rule="evenodd" clip-rule="evenodd" d="M23.2342 24.3966C23.0055 24.07 22.6841 23.8197 22.3115 23.678C21.9389 23.5363 21.5323 23.5098 21.1444 23.6019C20.931 23.6526 20.7451 23.7828 20.6244 23.9659C20.4052 24.2989 20.2911 24.69 20.2968 25.0886C20.3025 25.4872 20.4278 25.8749 20.6565 26.2015L21.9281 28.0178C22.1684 28.3573 22.5333 28.5879 22.9431 28.6591C23.3529 28.7303 23.7743 28.6363 24.115 28.3978C24.4557 28.1592 24.6881 27.7955 24.7614 27.386C24.8347 26.9766 24.7429 26.5548 24.506 26.2129L23.2342 24.3966ZM22.2816 25.0636C22.1987 24.9451 22.0861 24.8505 21.9552 24.7891C21.8242 24.7277 21.6795 24.7018 21.5353 24.7138C21.4748 24.8451 21.4497 24.99 21.4626 25.1341C21.4755 25.2781 21.5259 25.4163 21.6088 25.5347L22.8809 27.351C22.9434 27.44 23.0386 27.5006 23.1457 27.5195C23.2528 27.5384 23.363 27.514 23.4521 27.4517L23.4528 27.4513C23.4969 27.4204 23.5346 27.3811 23.5636 27.3356C23.5925 27.2902 23.6122 27.2395 23.6216 27.1864C23.6309 27.1334 23.6297 27.079 23.6181 27.0264C23.6064 26.9738 23.5844 26.924 23.5535 26.8799L22.2816 25.0636ZM0.590695 7.90544C0.584416 7.7645 0.530928 5.89637 2.09 4.05311C2.94907 3.03753 4.35442 1.95311 6.77372 1.37544C9.97604 0.610319 12.586 1.47358 14.2853 2.94264C17.1658 5.43264 17.7121 9.74706 14.4653 12.8408C13.576 13.6885 12.4165 14.181 11.1879 14.5606C10.7779 14.6873 10.3609 14.8031 9.96767 14.9557C9.74535 15.0422 9.51023 15.1059 9.36325 15.3003C9.14465 15.5903 9.14604 16.0352 9.18046 16.6847C9.25581 18.1106 8.15953 19.3294 6.73372 19.405C5.30767 19.4803 4.08907 18.384 4.01349 16.958C3.90721 14.9487 4.33604 13.5868 4.94814 12.5999C5.64186 11.4812 6.61488 10.7678 7.74604 10.2757C8.35302 10.0117 9.01116 9.81753 9.6607 9.61683C10.1056 9.47939 10.5737 9.40241 10.8958 9.0952C11.63 8.39567 11.5528 7.41985 10.9016 6.85683C10.2405 6.2852 9.20767 6.1759 7.9486 6.41358C6.49674 6.68753 6.00372 7.55404 5.82186 8.07497C5.25046 9.71148 4.54767 10.4215 3.21535 10.4408C1.79209 10.4617 0.618602 9.32683 0.590695 7.90544ZM4.72418 7.69171C4.36674 8.71497 4.03116 9.26613 3.19814 9.27823C2.82046 9.28357 2.45612 9.13874 2.18518 8.87556C1.91425 8.61239 1.75889 8.25241 1.75325 7.87474L1.75256 7.85264C1.75256 7.85264 1.69163 6.3252 2.97814 4.80427C3.72163 3.92497 4.94953 3.0066 7.04372 2.50637C9.80395 1.84706 12.0605 2.55613 13.5251 3.82241C15.9044 5.87916 16.3453 9.44334 13.6633 11.9992C12.9016 12.7252 11.897 13.1247 10.8446 13.4496C10.4084 13.5843 9.96511 13.7094 9.54698 13.8717C9.12209 14.0366 8.71581 14.2282 8.43535 14.6001C8.09302 15.0536 7.96558 15.7292 8.0193 16.7461C8.03913 17.1234 7.90836 17.493 7.65573 17.7739C7.40311 18.0547 7.0493 18.2237 6.67209 18.2438C6.29491 18.2636 5.9253 18.1328 5.64451 17.8802C5.36372 17.6275 5.19472 17.2738 5.17465 16.8966C5.08511 15.201 5.41976 14.0459 5.93628 13.2129C6.4979 12.3073 7.29442 11.7403 8.21 11.3419C8.77837 11.0947 9.39581 10.9157 10.0037 10.728C10.6246 10.5361 11.2488 10.3652 11.6981 9.93706C12.9967 8.69939 12.8144 6.97334 11.6621 5.9773C10.7779 5.21311 9.41605 4.95334 7.73279 5.27102C5.65535 5.66311 4.98442 6.94613 4.72418 7.69171ZM4.04465 22.8696V23.3464C4.04465 24.7743 5.20395 25.9336 6.63186 25.9336C8.05977 25.9336 9.2186 24.7743 9.2186 23.3464V22.8696C9.2186 21.4417 8.05953 20.2826 6.63163 20.2826C5.20372 20.2826 4.04465 21.4417 4.04465 22.8696ZM5.20744 22.8696C5.20762 22.4919 5.35776 22.1297 5.62485 21.8626C5.89194 21.5955 6.25414 21.4454 6.63186 21.4452C7.00954 21.4454 7.37168 21.5956 7.63872 21.8627C7.90576 22.1298 8.05586 22.4919 8.05605 22.8696V23.3464C8.05586 23.724 7.90576 24.0862 7.63872 24.3533C7.37168 24.6204 7.00954 24.7705 6.63186 24.7708C6.25418 24.7705 5.89204 24.6204 5.625 24.3533C5.35796 24.0862 5.20786 23.724 5.20767 23.3464L5.20744 22.8696Z" fill="url(#paint1_linear_5946_27339)"/>
</g>
<defs>
<linearGradient id="paint0_linear_5946_27339" x1="17.4712" y1="13.2896" x2="17.4712" y2="24.5307" gradientUnits="userSpaceOnUse">
<stop stop-color="#34A1DB"/>
<stop offset="1" stop-color="#212595"/>
</linearGradient>
<linearGradient id="paint1_linear_5946_27339" x1="12.6875" y1="1.09082" x2="12.6875" y2="28.6823" gradientUnits="userSpaceOnUse">
<stop stop-color="#34A1DB"/>
<stop offset="1" stop-color="#212595"/>
</linearGradient>
<clipPath id="clip0_5946_27339">
<rect width="25" height="29" fill="white"/>
</clipPath>
</defs>
</svg>
