<svg width="28" height="28" viewBox="0 0 28 28" fill="none" xmlns="http://www.w3.org/2000/svg">
<g clip-path="url(#clip0_5946_27323)">
<path d="M20.5625 18.6875C20.3139 18.6875 20.0754 18.7863 19.8996 18.9621C19.7238 19.1379 19.625 19.3764 19.625 19.625V20.5625C19.6224 21.179 19.4172 21.7775 19.0412 22.266C18.6652 22.7545 18.139 23.106 17.5438 23.2663C17.335 22.7455 16.9754 22.299 16.5109 21.9843C16.0465 21.6695 15.4985 21.5009 14.9375 21.5H13.0625C12.3166 21.5 11.6012 21.7963 11.0738 22.3238C10.5463 22.8512 10.25 23.5666 10.25 24.3125C10.25 25.0584 10.5463 25.7738 11.0738 26.3012C11.6012 26.8287 12.3166 27.125 13.0625 27.125H14.9375C15.5313 27.123 16.1092 26.9327 16.588 26.5815C17.0667 26.2302 17.4217 25.7361 17.6019 25.1703C18.6903 24.9844 19.6781 24.4202 20.3912 23.5772C21.1043 22.7343 21.497 21.6666 21.5 20.5625V19.625C21.5 19.3764 21.4012 19.1379 21.2254 18.9621C21.0496 18.7863 20.8111 18.6875 20.5625 18.6875ZM14.9375 25.25H13.0625C12.8139 25.25 12.5754 25.1512 12.3996 24.9754C12.2238 24.7996 12.125 24.5611 12.125 24.3125C12.125 24.0639 12.2238 23.8254 12.3996 23.6496C12.5754 23.4738 12.8139 23.375 13.0625 23.375H14.9375C15.1861 23.375 15.4246 23.4738 15.6004 23.6496C15.7762 23.8254 15.875 24.0639 15.875 24.3125C15.875 24.5611 15.7762 24.7996 15.6004 24.9754C15.4246 25.1512 15.1861 25.25 14.9375 25.25Z" fill="url(#paint0_linear_5946_27323)"/>
<path d="M22.4375 9.3125H21.5V8.375C21.5 6.38588 20.7098 4.47822 19.3033 3.0717C17.8968 1.66518 15.9891 0.875 14 0.875C12.0109 0.875 10.1032 1.66518 8.6967 3.0717C7.29018 4.47822 6.5 6.38588 6.5 8.375V9.3125H5.5625C4.31975 9.31399 3.12834 9.80833 2.24958 10.6871C1.37083 11.5658 0.876489 12.7573 0.875 14V15.875C0.876489 17.1177 1.37083 18.3092 2.24958 19.1879C3.12834 20.0667 4.31975 20.561 5.5625 20.5625H7.4375C7.68614 20.5625 7.9246 20.4637 8.10041 20.2879C8.27623 20.1121 8.375 19.8736 8.375 19.625V8.375C8.375 6.88316 8.96763 5.45242 10.0225 4.39752C11.0774 3.34263 12.5082 2.75 14 2.75C15.4918 2.75 16.9226 3.34263 17.9775 4.39752C19.0324 5.45242 19.625 6.88316 19.625 8.375V19.625C19.625 19.8736 19.7238 20.1121 19.8996 20.2879C20.0754 20.4637 20.3139 20.5625 20.5625 20.5625H22.4375C23.6802 20.561 24.8717 20.0667 25.7504 19.1879C26.6292 18.3092 27.1235 17.1177 27.125 15.875V14C27.1235 12.7573 26.6292 11.5658 25.7504 10.6871C24.8717 9.80833 23.6802 9.31399 22.4375 9.3125ZM6.5 18.6875H5.5625C4.81658 18.6875 4.10121 18.3912 3.57376 17.8637C3.04632 17.3363 2.75 16.6209 2.75 15.875V14C2.75 13.2541 3.04632 12.5387 3.57376 12.0113C4.10121 11.4838 4.81658 11.1875 5.5625 11.1875H6.5V18.6875ZM25.25 15.875C25.25 16.6209 24.9537 17.3363 24.4262 17.8637C23.8988 18.3912 23.1834 18.6875 22.4375 18.6875H21.5V11.1875H22.4375C23.1834 11.1875 23.8988 11.4838 24.4262 12.0113C24.9537 12.5387 25.25 13.2541 25.25 14V15.875Z" fill="url(#paint1_linear_5946_27323)"/>
</g>
<defs>
<linearGradient id="paint0_linear_5946_27323" x1="15.875" y1="18.6875" x2="15.875" y2="27.125" gradientUnits="userSpaceOnUse">
<stop stop-color="#34A1DB"/>
<stop offset="1" stop-color="#212595"/>
</linearGradient>
<linearGradient id="paint1_linear_5946_27323" x1="14" y1="0.875" x2="14" y2="20.5625" gradientUnits="userSpaceOnUse">
<stop stop-color="#34A1DB"/>
<stop offset="1" stop-color="#212595"/>
</linearGradient>
<clipPath id="clip0_5946_27323">
<rect width="28" height="28" fill="white"/>
</clipPath>
</defs>
</svg>
