<svg width="24" height="24" viewBox="0 0 24 24" fill="none" xmlns="http://www.w3.org/2000/svg">
<path d="M12 0C5.38667 0 0 5.38667 0 12C0 18.6133 5.38667 24 12 24C18.6133 24 24 18.6133 24 12C24 5.38667 18.6133 0 12 0ZM12 22C6.48 22 2 17.52 2 12C2 6.48 6.48 2 12 2C17.52 2 22 6.48 22 12C22 17.52 17.52 22 12 22ZM15.0667 6.26667C15.88 7.08 16.3333 8.17333 16.3333 9.33333C16.3333 10.4933 15.88 11.5733 15.0667 12.4C14.4933 12.9733 13.7733 13.3733 13 13.5467V14C13 14.5467 12.5467 15 12 15C11.4533 15 11 14.5467 11 14V12.6667C11 12.12 11.4533 11.6667 12 11.6667C12.6267 11.6667 13.2133 11.4267 13.6533 10.9867C14.0933 10.5467 14.3333 9.96 14.3333 9.33333C14.3333 8.70667 14.0933 8.12 13.6533 7.68C12.7733 6.8 11.24 6.8 10.36 7.68C9.92 8.12 9.68 8.70667 9.68 9.33333C9.68 9.88 9.22667 10.3333 8.68 10.3333C8.13333 10.3333 7.68 9.88 7.68 9.33333C7.68 8.17333 8.13333 7.09333 8.94667 6.26667C10.5867 4.62667 13.44 4.62667 15.08 6.26667H15.0667ZM13.3333 17.6667C13.3333 18.4 12.7333 19 12 19C11.2667 19 10.6667 18.4 10.6667 17.6667C10.6667 16.9333 11.2667 16.3333 12 16.3333C12.7333 16.3333 13.3333 16.9333 13.3333 17.6667Z" fill="#2A8FD3"/>
</svg>
