<svg width="21" height="23" viewBox="0 0 21 23" fill="none" xmlns="http://www.w3.org/2000/svg">
<path d="M18.2893 12.9667C18.0582 12.9667 17.8165 12.8891 17.5854 12.8336C17.1177 12.7233 16.6578 12.5789 16.2091 12.4013C15.7217 12.2143 15.1859 12.224 14.7049 12.4286C14.2238 12.6333 13.8315 13.0184 13.6035 13.5098L13.3723 14.0197C12.352 13.4092 11.4093 12.6642 10.5671 11.8028C9.75059 10.9142 9.0445 9.91966 8.46581 8.84314L8.94911 8.61036C9.41493 8.36973 9.77994 7.95584 9.9739 7.44833C10.1679 6.94083 10.1771 6.37558 9.99975 5.86134C9.8329 5.38362 9.69602 4.89483 9.59 4.39815C9.53747 4.15429 9.49544 3.89934 9.46392 3.65547C9.33634 2.87469 8.94871 2.16761 8.37086 1.66159C7.793 1.15557 7.06288 0.883851 6.31199 0.89537H3.14955C2.70539 0.894756 2.26611 0.99319 1.86053 1.18422C1.45495 1.37525 1.09221 1.65456 0.796105 2.00384C0.493856 2.36261 0.268803 2.78615 0.136409 3.24538C0.00401542 3.7046 -0.0325808 4.18862 0.0291349 4.66419C0.600252 9.27781 2.59818 13.5638 5.71312 16.8574C8.83495 20.1438 12.8973 22.2517 17.2702 22.8543C17.4066 22.8653 17.5436 22.8653 17.68 22.8543C18.4547 22.8555 19.2028 22.5556 19.7813 22.0118C20.1123 21.6994 20.3771 21.3167 20.5581 20.8888C20.7392 20.4609 20.8325 19.9975 20.8319 19.5288V16.2034C20.8262 15.4375 20.5701 14.6971 20.1069 14.1074C19.6436 13.5177 19.0016 13.1147 18.2893 12.9667ZM18.8042 19.6175C18.8038 19.7722 18.7728 19.9251 18.7131 20.0664C18.6534 20.2076 18.5663 20.3342 18.4574 20.4378C18.3423 20.5485 18.2053 20.6308 18.0562 20.6787C17.9072 20.7266 17.75 20.739 17.5959 20.7149C13.6752 20.1747 10.0315 18.2896 7.22605 15.3499C4.41817 12.3874 2.61585 8.52985 2.0989 4.37598C2.07608 4.21341 2.08781 4.04751 2.13323 3.89031C2.17866 3.7331 2.25665 3.58852 2.36157 3.46703C2.46098 3.35081 2.5826 3.25812 2.71842 3.19508C2.85423 3.13203 3.00117 3.10004 3.14955 3.10124H6.30148C6.54435 3.09497 6.78177 3.1777 6.97333 3.33534C7.16489 3.49299 7.29875 3.7158 7.35213 3.96585C7.35213 4.26513 7.44668 4.57551 7.50972 4.8748C7.63115 5.45549 7.79268 6.02603 7.99302 6.58185L6.52212 7.31344C6.2693 7.43589 6.07282 7.65912 5.97578 7.93419C5.8707 8.20406 5.8707 8.50676 5.97578 8.77663C7.48787 12.1938 10.0914 14.9406 13.3303 16.536C13.5861 16.6468 13.873 16.6468 14.1288 16.536C14.3895 16.4336 14.6011 16.2263 14.7171 15.9595L15.3791 14.4077C15.9211 14.6162 16.4756 14.7866 17.0391 14.9176C17.3122 14.9841 17.6064 15.0395 17.8901 15.0839C18.1271 15.1402 18.3383 15.2814 18.4877 15.4835C18.6371 15.6856 18.7155 15.9361 18.7096 16.1923L18.8042 19.6175ZM12.6053 0.773438C12.3637 0.773438 12.1115 0.773438 11.8699 0.773438C11.5913 0.798426 11.3334 0.939177 11.1531 1.16473C10.9729 1.39028 10.8849 1.68215 10.9086 1.97613C10.9322 2.27012 11.0657 2.54214 11.2794 2.73235C11.4932 2.92256 11.7699 3.01538 12.0485 2.99039H12.6053C14.2772 2.99039 15.8807 3.6911 17.0629 4.93838C18.2451 6.18565 18.9092 7.87732 18.9092 9.64124C18.9092 9.84077 18.9092 10.0292 18.9092 10.2287C18.8859 10.5212 18.9735 10.8114 19.1527 11.0358C19.3319 11.2602 19.5882 11.4005 19.8653 11.4259H19.9494C20.2124 11.427 20.4662 11.324 20.6607 11.1373C20.8553 10.9505 20.9763 10.6935 21 10.4172C21 10.1622 21 9.89619 21 9.64124C21 7.29127 20.1159 5.03739 18.5419 3.37467C16.9679 1.71196 14.8327 0.776375 12.6053 0.773438ZM14.7066 9.64124C14.7066 9.93523 14.8173 10.2172 15.0144 10.4251C15.2114 10.6329 15.4786 10.7497 15.7573 10.7497C16.0359 10.7497 16.3032 10.6329 16.5002 10.4251C16.6972 10.2172 16.8079 9.93523 16.8079 9.64124C16.8079 8.4653 16.3652 7.33752 15.577 6.506C14.7889 5.67448 13.7199 5.20734 12.6053 5.20734C12.3267 5.20734 12.0595 5.32412 11.8624 5.532C11.6654 5.73988 11.5547 6.02183 11.5547 6.31581C11.5547 6.6098 11.6654 6.89175 11.8624 7.09962C12.0595 7.3075 12.3267 7.42429 12.6053 7.42429C13.1626 7.42429 13.6971 7.65786 14.0912 8.07362C14.4853 8.48938 14.7066 9.05327 14.7066 9.64124Z" fill="#0062B6"/>
</svg>
