<svg width="20" height="21" viewBox="0 0 20 21" fill="none" xmlns="http://www.w3.org/2000/svg">
<path d="M13.7375 13.838L14.2047 13.3462L13.0892 12.2868L12.6221 12.7786L13.7375 13.838ZM15.7418 13.1392L17.7012 14.267L18.4687 12.9337L16.5092 11.8059L15.7418 13.1392ZM18.0793 16.6053L16.6224 18.1392L17.7378 19.1987L19.1948 17.6648L18.0793 16.6053ZM15.7458 18.6307C14.274 18.776 10.4338 18.652 6.26562 14.2636L5.15019 15.3231C9.69295 20.1058 14.0263 20.3463 15.8968 20.1617L15.7458 18.6307ZM6.26562 14.2636C2.29025 10.0782 1.62342 6.54785 1.5403 4.99937L0.00410763 5.08182C0.105899 6.9784 0.911186 10.8603 5.15019 15.3231L6.26562 14.2636ZM7.67619 7.45657L7.97034 7.14688L6.85491 6.0874L6.56075 6.39709L7.67619 7.45657ZM8.2014 3.2911L6.90817 1.46194L5.65201 2.35008L6.94529 4.17923L8.2014 3.2911ZM2.53089 1.06759L0.921093 2.7624L2.03652 3.82188L3.64631 2.12707L2.53089 1.06759ZM7.11847 6.92683C6.56075 6.39709 6.55933 6.39859 6.55933 6.39859L6.55788 6.40013L6.5549 6.40332C6.55288 6.40549 6.55079 6.40776 6.54864 6.41012C6.54434 6.41485 6.53978 6.41997 6.53498 6.42549C6.52539 6.43652 6.51484 6.44914 6.50357 6.46339C6.48103 6.49188 6.45552 6.52689 6.42877 6.56869C6.37512 6.65255 6.31692 6.76298 6.26764 6.90145C6.16744 7.18305 6.11284 7.55596 6.18107 8.02166C6.31513 8.93664 6.91466 10.1671 8.48109 11.8162L9.59654 10.7568C8.13238 9.21519 7.77169 8.26579 7.70323 7.79863C7.6702 7.57326 7.70376 7.4545 7.71703 7.41721C7.72449 7.39625 7.72937 7.39042 7.72459 7.39789C7.72228 7.4015 7.71767 7.40829 7.70991 7.41809C7.70603 7.423 7.70136 7.42866 7.69578 7.43508C7.69299 7.43828 7.68996 7.44167 7.68671 7.44526C7.68508 7.44706 7.68339 7.44889 7.68164 7.45078L7.67896 7.45364L7.67759 7.4551C7.67759 7.4551 7.67619 7.45657 7.11847 6.92683ZM8.48109 11.8162C10.043 13.4606 11.2225 14.107 12.1225 14.2532C12.5843 14.3282 12.9582 14.2683 13.2412 14.1567C13.3796 14.1021 13.489 14.038 13.5712 13.9798C13.6122 13.9506 13.6464 13.923 13.6738 13.8989C13.6877 13.8868 13.6998 13.8756 13.7104 13.8653C13.7157 13.8603 13.7206 13.8554 13.7251 13.8508C13.7274 13.8486 13.7295 13.8463 13.7316 13.8442L13.7347 13.8411L13.7361 13.8396C13.7361 13.8396 13.7375 13.838 13.1798 13.3083C12.6221 12.7786 12.6235 12.7771 12.6235 12.7771L12.6248 12.7756L12.6276 12.7728C12.6295 12.771 12.6312 12.7691 12.6328 12.7674C12.6363 12.764 12.6396 12.7607 12.6427 12.7577C12.6488 12.7518 12.6545 12.7467 12.6594 12.7424C12.6692 12.7337 12.6764 12.7282 12.6812 12.7249C12.6908 12.7181 12.6898 12.7204 12.6767 12.7255C12.6569 12.7333 12.5637 12.7663 12.3692 12.7347C11.9563 12.6676 11.0654 12.3032 9.59654 10.7568L8.48109 11.8162ZM6.90817 1.46194C5.86862 -0.00835441 3.78846 -0.256408 2.53089 1.06759L3.64631 2.12707C4.18254 1.56253 5.12654 1.60687 5.65201 2.35008L6.90817 1.46194ZM1.5403 4.99937C1.51832 4.58985 1.69665 4.1797 2.03652 3.82188L0.921093 2.7624C0.371521 3.34099 -0.0461881 4.14475 0.00410763 5.08182L1.5403 4.99937ZM16.6224 18.1392C16.3362 18.4405 16.0368 18.602 15.7458 18.6307L15.8968 20.1617C16.6631 20.086 17.2832 19.6774 17.7378 19.1987L16.6224 18.1392ZM7.97034 7.14688C8.96271 6.10212 9.03297 4.46712 8.2014 3.2911L6.94529 4.17923C7.37824 4.79159 7.31185 5.60632 6.85491 6.0874L7.97034 7.14688ZM17.7012 14.267C18.543 14.7516 18.7078 15.9437 18.0793 16.6053L19.1948 17.6648C20.5331 16.2557 20.1434 13.8977 18.4687 12.9337L17.7012 14.267ZM14.2047 13.3462C14.6 12.93 15.2159 12.8365 15.7418 13.1392L16.5092 11.8059C15.3826 11.1574 13.9853 11.3433 13.0892 12.2868L14.2047 13.3462Z" fill="#949494"/>
</svg>
