<svg width="11" height="11" viewBox="0 0 11 11" fill="none" xmlns="http://www.w3.org/2000/svg">
<path d="M8.01223 1.37226C5.7479 0.323337 2.96104 0.657085 1.16119 2.08743V1.22922C1.16119 0.943154 0.928954 0.752441 0.580596 0.752441C0.232239 0.752441 0 0.943154 0 1.22922V3.37474C0 3.66081 0.232239 3.85153 0.580596 3.85153H3.19328C3.54164 3.85153 3.77388 3.66081 3.77388 3.37474C3.77388 3.08868 3.54164 2.89796 3.19328 2.89796H1.79985C2.61268 2.13511 3.83194 1.70601 5.16731 1.70601C7.72193 1.70601 9.81208 3.42242 9.81208 5.52027C9.81208 7.61811 7.72193 9.33453 5.16731 9.33453C4.81895 9.33453 4.58671 9.52524 4.58671 9.81131C4.58671 10.0974 4.81895 10.2881 5.16731 10.2881C7.25746 10.2881 9.17342 9.3822 10.2185 7.90418C11.7861 5.61562 10.7991 2.70725 8.01223 1.37226ZM5.10925 3.61314C4.76089 3.61314 4.52865 3.80385 4.52865 4.08992V5.52027C4.52865 5.80633 4.76089 5.99705 5.10925 5.99705H6.27044C6.6188 5.99705 6.85104 5.80633 6.85104 5.52027C6.85104 5.2342 6.6188 5.04348 6.27044 5.04348H5.68984V4.08992C5.68984 3.80385 5.45761 3.61314 5.10925 3.61314Z" fill="white"/>
</svg>
