<svg width="16" height="13" viewBox="0 0 16 13" fill="none" xmlns="http://www.w3.org/2000/svg">
<path d="M10.6875 10.4062V6.75H5.58984C5.44066 6.75 5.29759 6.69074 5.1921 6.58525C5.08661 6.47976 5.02734 6.33668 5.02734 6.1875C5.02734 6.03832 5.08661 5.89524 5.1921 5.78975C5.29759 5.68426 5.44066 5.625 5.58984 5.625H10.6875V1.96875C10.6869 1.44678 10.4793 0.946342 10.1102 0.57725C9.74116 0.208159 9.24072 0.000558361 8.71875 0H1.96875C1.44678 0.000558361 0.946342 0.208159 0.57725 0.57725C0.208159 0.946342 0.000558361 1.44678 0 1.96875V10.4062C0.000558361 10.9282 0.208159 11.4287 0.57725 11.7977C0.946342 12.1668 1.44678 12.3744 1.96875 12.375H8.71875C9.24072 12.3744 9.74116 12.1668 10.1102 11.7977C10.4793 11.4287 10.6869 10.9282 10.6875 10.4062V10.4062ZM13.8294 6.75L11.9774 8.60238C11.8763 8.70873 11.8209 8.85034 11.8227 8.99702C11.8246 9.1437 11.8837 9.28384 11.9874 9.38756C12.0912 9.49129 12.2313 9.55039 12.378 9.55227C12.5247 9.55415 12.6663 9.49865 12.7726 9.39762L15.5851 6.58512C15.6905 6.47964 15.7497 6.33662 15.7497 6.1875C15.7497 6.03838 15.6905 5.89536 15.5851 5.78988L12.7726 2.97738C12.6663 2.87635 12.5247 2.82085 12.378 2.82273C12.2313 2.82461 12.0912 2.88371 11.9874 2.98744C11.8837 3.09116 11.8246 3.2313 11.8227 3.37798C11.8209 3.52466 11.8763 3.66627 11.9774 3.77262L13.8294 5.625H10.6875V6.75H13.8294Z" fill="#0062B6"/>
</svg>
