<svg width="19" height="25" viewBox="0 0 19 25" fill="none" xmlns="http://www.w3.org/2000/svg">
<path d="M9.11483 0.423901C4.00262 0.629974 0 4.9389 0 10.2317C0 17.6162 9.02613 23.8666 9.41052 24.13L9.86961 24.4398L10.3162 24.1114C10.6711 23.848 19 17.5883 19 9.53602C18.9984 7.10808 18.0071 4.82269 16.2066 3.09974C15.2644 2.2041 14.1512 1.5058 12.9331 1.04617C11.715 0.586546 10.4166 0.374946 9.11483 0.423901ZM9.37317 6.44648C9.78232 6.42555 10.1915 6.48724 10.5761 6.62783C10.9607 6.76842 11.3127 6.98501 11.611 7.26457C12.2226 7.82546 12.5759 8.59087 12.6117 9.41826C12.6288 9.825 12.5647 10.2311 12.4231 10.613C12.2815 10.9949 12.0653 11.3451 11.7869 11.6432C11.5101 11.9432 11.1766 12.1859 10.8053 12.3571C10.4341 12.5283 10.0325 12.6248 9.62372 12.641H9.49611C8.71177 12.641 7.96945 12.3513 7.38898 11.8199C7.08761 11.5451 6.84398 11.2135 6.67222 10.8444C6.50045 10.4752 6.40396 10.0758 6.38832 9.66927C6.35587 8.84807 6.6519 8.04759 7.21146 7.44342C7.77103 6.83925 8.54844 6.48072 9.37317 6.44648Z" fill="#0062B6"/>
</svg>
