<svg width="19" height="14" viewBox="0 0 19 14" fill="none" xmlns="http://www.w3.org/2000/svg">
<path d="M15.7304 0.118164H2.91371C1.59136 0.118164 0.506348 1.23001 0.506348 2.58507V10.9586C0.506348 12.3137 1.59136 13.4255 2.91371 13.4255H15.7304C17.0527 13.4255 18.1377 12.3137 18.1377 10.9586V2.58507C18.1377 1.23001 17.0866 0.118164 15.7304 0.118164ZM2.91371 1.57746H15.7304C16.2729 1.57746 16.7136 2.02914 16.7136 2.58507V2.93252L9.89844 7.79683C9.59328 8.0053 9.01687 8.0053 8.71172 7.79683L1.89651 2.93252V2.58507C1.93042 2.02914 2.3712 1.57746 2.91371 1.57746ZM15.7304 12.001H2.91371C2.3712 12.001 1.93042 11.5493 1.93042 10.9934V4.70452L7.93187 8.97816C8.33874 9.25613 8.84734 9.39511 9.35594 9.39511C9.86454 9.39511 10.3731 9.25613 10.78 8.97816L16.7476 4.70452V10.9586C16.7476 11.5493 16.2729 12.001 15.7304 12.001Z" fill="#949494"/>
</svg>
