<svg width="14" height="13" viewBox="0 0 14 13" fill="none" xmlns="http://www.w3.org/2000/svg">
<path d="M10.8824 1.82229C9.77895 0.939441 8.40774 0.458775 6.99462 0.459473C5.32884 0.459473 3.77298 1.10123 2.60978 2.26662C1.48567 3.39428 0.869619 4.88315 0.874541 6.45787C0.874579 7.61241 1.21353 8.74153 1.84935 9.70522L1.85454 9.7126C1.8622 9.72381 1.87013 9.73502 1.87806 9.74596C1.88599 9.7569 1.89583 9.77112 1.89802 9.77467L1.90403 9.78561C1.93493 9.84029 1.95872 9.90701 1.93767 9.97428L1.43399 11.797C1.41384 11.8648 1.40281 11.935 1.40118 12.0056C1.40082 12.1916 1.47422 12.3701 1.60528 12.5021C1.73635 12.634 1.91439 12.7086 2.10036 12.7095C2.19863 12.7062 2.29548 12.685 2.3861 12.6469L4.23153 11.9808L4.25478 11.9717C4.30498 11.9507 4.35892 11.94 4.41337 11.9403C4.46357 11.9404 4.51333 11.9497 4.56021 11.9676C4.6045 11.9849 5.00673 12.1388 5.4311 12.2575C5.78384 12.3559 6.51774 12.5036 7.09278 12.5036C8.72384 12.5036 10.2469 11.8719 11.3811 10.7246C12.5055 9.586 13.1245 8.07252 13.1245 6.46115C13.1247 6.04753 13.0809 5.63505 12.9938 5.23068C12.7111 3.90123 11.9613 2.69045 10.8824 1.82229ZM4.37454 7.45947C4.20148 7.45947 4.03231 7.40816 3.88842 7.31201C3.74452 7.21586 3.63237 7.07921 3.56615 6.91932C3.49992 6.75944 3.48259 6.5835 3.51635 6.41377C3.55012 6.24404 3.63345 6.08813 3.75582 5.96576C3.87819 5.84338 4.0341 5.76005 4.20384 5.72629C4.37357 5.69252 4.5495 5.70985 4.70939 5.77608C4.86927 5.84231 5.00593 5.95446 5.10208 6.09835C5.19822 6.24224 5.24954 6.41142 5.24954 6.58447C5.24954 6.81654 5.15735 7.0391 4.99326 7.20319C4.82917 7.36729 4.60661 7.45947 4.37454 7.45947ZM6.99954 7.45947C6.82648 7.45947 6.65731 7.40816 6.51342 7.31201C6.36952 7.21586 6.25737 7.07921 6.19115 6.91932C6.12492 6.75944 6.10759 6.5835 6.14135 6.41377C6.17512 6.24404 6.25845 6.08813 6.38082 5.96576C6.50319 5.84338 6.6591 5.76005 6.82884 5.72629C6.99857 5.69252 7.1745 5.70985 7.33439 5.77608C7.49428 5.84231 7.63093 5.95446 7.72708 6.09835C7.82322 6.24224 7.87454 6.41142 7.87454 6.58447C7.87454 6.81654 7.78235 7.0391 7.61826 7.20319C7.45417 7.36729 7.23161 7.45947 6.99954 7.45947V7.45947ZM9.62454 7.45947C9.45148 7.45947 9.28231 7.40816 9.13842 7.31201C8.99452 7.21586 8.88237 7.07921 8.81615 6.91932C8.74992 6.75944 8.73259 6.5835 8.76635 6.41377C8.80012 6.24404 8.88345 6.08813 9.00582 5.96576C9.12819 5.84338 9.2841 5.76005 9.45384 5.72629C9.62357 5.69252 9.7995 5.70985 9.95939 5.77608C10.1193 5.84231 10.2559 5.95446 10.3521 6.09835C10.4482 6.24224 10.4995 6.41142 10.4995 6.58447C10.4995 6.81654 10.4074 7.0391 10.2433 7.20319C10.0792 7.36729 9.85661 7.45947 9.62454 7.45947Z" fill="#30ADE0"/>
</svg>
