<svg width="19" height="21" viewBox="0 0 19 21" fill="none" xmlns="http://www.w3.org/2000/svg">
<path d="M0.888743 14.3994H4.04825L3.10558 19.0817C3.08485 19.1853 3.07451 19.3096 3.07451 19.4132C3.07451 19.9208 3.42672 20.2005 3.91357 20.2005C4.41081 20.2005 4.77337 19.9311 4.87698 19.4236L5.89218 14.3994H10.7921L9.84934 19.0817C9.81827 19.1853 9.80792 19.3096 9.80792 19.4132C9.80792 19.9208 10.1601 20.2005 10.6573 20.2005C11.1546 20.2005 11.5171 19.9311 11.6207 19.4236L12.6256 14.3994H16.3238C16.8935 14.3994 17.2872 13.985 17.2872 13.4256C17.2872 12.9698 16.9764 12.5969 16.5102 12.5969H12.9985L14.0966 7.12732H17.7222C18.292 7.12732 18.6856 6.71296 18.6856 6.15353C18.6856 5.69776 18.3749 5.32485 17.9087 5.32485H14.4591L15.3086 1.1501C15.3189 1.08795 15.3397 0.953281 15.3397 0.818652C15.3397 0.311029 14.9771 0.0209961 14.4799 0.0209961C13.8998 0.0209961 13.6408 0.3421 13.5372 0.828994L12.6256 5.32485H7.72572L8.57518 1.1501C8.58556 1.08795 8.60625 0.953281 8.60625 0.818652C8.60625 0.311029 8.23334 0.0209961 7.74645 0.0209961C7.156 0.0209961 6.88665 0.3421 6.79343 0.828994L5.88179 5.32485H2.48405C1.91429 5.32485 1.52065 5.75994 1.52065 6.32967C1.52065 6.79583 1.83141 7.12732 2.29758 7.12732H5.51927L4.4212 12.5969H1.07522C0.505451 12.5969 0.111816 13.032 0.111816 13.6017C0.111816 14.0679 0.422578 14.3994 0.888743 14.3994ZM6.25474 12.5969L7.36316 7.12732H12.263L11.1546 12.5969H6.25474Z" fill="#949494"/>
</svg>
