<svg width="23" height="27" viewBox="0 0 23 27" fill="none" xmlns="http://www.w3.org/2000/svg">
<path d="M8.38697 7.46563C8.52103 7.46563 8.65415 7.43375 8.7779 7.37094L14.867 4.24719C15.167 4.09344 15.3517 3.77844 15.3404 3.43813C15.3292 3.09782 15.1248 2.79594 14.8154 2.66188L8.82759 0.0706278C8.56322 -0.0437472 8.25853 -0.0184346 8.01665 0.14094C7.77384 0.29844 7.62665 0.56844 7.62103 0.860003L7.58822 2.72188C2.9279 4.29688 -0.163034 8.69375 0.00665318 13.6447C0.141653 17.5766 2.38978 21.1906 5.8754 23.075C6.00572 23.1453 6.1454 23.1781 6.28322 23.1781C6.59259 23.1781 6.89165 23.0103 7.04728 22.7159C7.27228 22.2894 7.11384 21.7597 6.69197 21.5319C3.74915 19.94 1.85072 16.895 1.73634 13.5838C1.6004 9.62375 3.94884 6.08375 7.5554 4.59875L7.52072 6.57407C7.51603 6.88063 7.66978 7.16844 7.92759 7.33157C8.06728 7.42157 8.22665 7.46563 8.38697 7.46563ZM12.4323 3.53469L9.27853 5.15282L9.33103 2.19219L12.4323 3.53469ZM22.4945 12.8863C22.3688 9.23563 20.447 5.87188 17.3551 3.88719C16.9482 3.6275 16.4157 3.74844 16.1598 4.15719C15.9048 4.565 16.0238 5.10594 16.427 5.36469C19.0379 7.04 20.6607 9.87406 20.7657 12.9463C20.8923 16.6194 18.8663 19.9644 15.6357 21.6144L15.5851 19.64C15.5757 19.3334 15.4098 19.0541 15.1463 18.9022C14.8829 18.7513 14.5595 18.7494 14.296 18.9003L8.34572 22.2772C8.05228 22.4441 7.88165 22.7666 7.90603 23.1059C7.93134 23.4444 8.1479 23.7378 8.4629 23.8588L14.5585 26.195C14.6588 26.2325 14.762 26.2513 14.8651 26.2513C15.0413 26.2513 15.2176 26.1959 15.3657 26.09C15.601 25.9213 15.737 25.6447 15.7304 25.3541L15.6835 23.5184C19.937 21.7156 22.6538 17.5213 22.4945 12.8863ZM10.8085 22.8856L13.891 21.1363L13.967 24.0959L10.8085 22.8856Z" fill="url(#paint0_linear_5946_27099)"/>
<defs>
<linearGradient id="paint0_linear_5946_27099" x1="11.2506" y1="0" x2="11.2506" y2="26.2513" gradientUnits="userSpaceOnUse">
<stop stop-color="#34A1DB"/>
<stop offset="1" stop-color="#212595"/>
</linearGradient>
</defs>
</svg>
