<svg width="26" height="26" viewBox="0 0 26 26" fill="none" xmlns="http://www.w3.org/2000/svg">
<g clip-path="url(#clip0_5946_27330)">
<path d="M12.6623 0.337891C10.158 0.337891 7.70984 1.08052 5.62753 2.47188C3.54522 3.86324 1.92225 5.84082 0.963869 8.15457C0.00548635 10.4683 -0.24527 13.0143 0.243309 15.4705C0.731888 17.9268 1.93786 20.183 3.70872 21.9539C5.47958 23.7247 7.73579 24.9307 10.192 25.4193C12.6483 25.9079 15.1943 25.6571 17.508 24.6987C19.8218 23.7403 21.7993 22.1174 23.1907 20.0351C24.5821 17.9527 25.3247 15.5046 25.3247 13.0002C25.3208 9.64315 23.9855 6.42467 21.6117 4.05085C19.2379 1.67704 16.0194 0.341737 12.6623 0.337891ZM12.6623 24.2563C10.4361 24.2563 8.25985 23.5962 6.4088 22.3593C4.55774 21.1225 3.11502 19.3645 2.26307 17.3078C1.41113 15.251 1.18822 12.9877 1.62254 10.8043C2.05686 8.62081 3.1289 6.61517 4.70309 5.04097C6.27728 3.46678 8.28293 2.39474 10.4664 1.96042C12.6499 1.5261 14.9131 1.74901 16.9699 2.60096C19.0267 3.45291 20.7846 4.89563 22.0214 6.74668C23.2583 8.59774 23.9184 10.774 23.9184 13.0002C23.915 15.9845 22.7279 18.8455 20.6178 20.9557C18.5076 23.0658 15.6466 24.2529 12.6623 24.2563ZM14.3363 8.90992C14.3114 10.6405 13.6003 13.4507 13.1128 15.1827C13.0848 15.2807 13.0257 15.3668 12.9444 15.4282C12.8631 15.4895 12.764 15.5227 12.6621 15.5227C12.5603 15.5227 12.4612 15.4895 12.3799 15.4282C12.2985 15.3668 12.2394 15.2807 12.2114 15.1827C11.715 13.4193 10.9875 10.5421 10.9875 8.81852C10.9876 8.57628 11.0401 8.33694 11.1416 8.11698C11.2431 7.89702 11.391 7.70168 11.5752 7.5444C11.7595 7.38713 11.9756 7.27166 12.2088 7.20596C12.4419 7.14026 12.6865 7.12588 12.9258 7.16383C13.3313 7.23709 13.697 7.45381 13.956 7.77439C14.2149 8.09498 14.3499 8.49803 14.3363 8.90992ZM13.7738 17.7445C13.7738 17.9648 13.7084 18.1803 13.5859 18.3635C13.4634 18.5467 13.2893 18.6894 13.0857 18.7736C12.882 18.8579 12.658 18.8798 12.4419 18.8366C12.2258 18.7935 12.0273 18.6872 11.8716 18.5312C11.716 18.3752 11.6101 18.1765 11.5674 17.9603C11.5247 17.7441 11.5471 17.5201 11.6317 17.3166C11.7164 17.1131 11.8595 16.9394 12.0429 16.8173C12.2264 16.6952 12.442 16.6302 12.6623 16.6307C12.9577 16.6307 13.241 16.748 13.4499 16.9569C13.6588 17.1658 13.7761 17.4491 13.7761 17.7445H13.7738Z" fill="url(#paint0_linear_5946_27330)"/>
</g>
<defs>
<linearGradient id="paint0_linear_5946_27330" x1="12.6623" y1="0.337891" x2="12.6623" y2="25.6626" gradientUnits="userSpaceOnUse">
<stop stop-color="#34A1DB"/>
<stop offset="1" stop-color="#212595"/>
</linearGradient>
<clipPath id="clip0_5946_27330">
<rect width="26" height="26" fill="white"/>
</clipPath>
</defs>
</svg>
