<svg width="26" height="25" viewBox="0 0 26 25" fill="none" xmlns="http://www.w3.org/2000/svg">
<path d="M14.2795 0.807953C14.0567 0.543211 13.7286 0.390625 13.383 0.390625C13.0374 0.390625 12.7094 0.543211 12.4866 0.807953C12.1661 1.1879 4.64661 10.1845 4.64661 15.873C4.64661 20.6902 8.56583 24.6094 13.383 24.6094C18.2002 24.6094 22.1194 20.6902 22.1194 15.873C22.1194 10.1891 14.5999 1.18866 14.2795 0.807953ZM13.383 22.2656C9.85825 22.2656 6.99036 19.3977 6.99036 15.873C6.99036 12.3619 11.0179 6.46286 13.383 3.42865C15.7489 6.46286 19.7757 12.3604 19.7757 15.873C19.7757 19.3977 16.9078 22.2656 13.383 22.2656Z" fill="url(#paint0_linear_5946_27117)"/>
<defs>
<linearGradient id="paint0_linear_5946_27117" x1="13.383" y1="0.390625" x2="13.383" y2="24.6094" gradientUnits="userSpaceOnUse">
<stop stop-color="#34A1DB"/>
<stop offset="1" stop-color="#212595"/>
</linearGradient>
</defs>
</svg>
